999
FreeCAD v1.0 Unknown
  0
SECTION
  2
HEADER
  9
$ACADVER
  1
AC1014
  9
$ACADMAINTVER
 70
     9
  9
$DWGCODEPAGE
  3
ANSI_1252
  9
$TEXTSTYLE
  7
STANDARD
  9
$DIMSTYLE
  2
STANDARD
  9
$DIMTXSTY
  7
STANDARD
  9
$CMLSTYLE
  2
STANDARD
  9
$LUNITS
 70
2
  9
$INSUNITS
 70
4
  9
$PEXTMAX
 10
50
 20
50
 30
50
  9
$PEXTMIN
 10
0
 20
0
 30
0
  9
$HANDSEED
  5
FFFF
  0
ENDSEC
  0
SECTION
  2
CLASSES
  0
CLASS
  1
ACDBDICTIONARYWDFLT
  2
AcDbDictionaryWithDefault
  3
ObjectDBX Classes
 90
        0
280
     0
281
     0
  0
CLASS
  1
XRECORD
  2
AcDbXrecord
  3
ObjectDBX Classes
 90
        0
280
     0
281
     0
  0
CLASS
  1
LWPOLYLINE
  2
AcDbPolyline
  3
ObjectDBX Classes
 90
        0
280
     0
281
     1
  0
ENDSEC
  0
SECTION
  2
TABLES
  0
TABLE
  2
VPORT
  5
20
330
0
100
AcDbSymbolTable
 70
     1
  0
VPORT
  5
21
330
20
100
AcDbSymbolTableRecord
100
AcDbViewportTableRecord
  2
*ACTIVE
 70
     0
  0
ENDTAB
  0
TABLE
  2
LTYPE
  5
22
330
0
100
AcDbSymbolTable
 70
     1
  0
LTYPE
  5
23
330
21
100
AcDbSymbolTableRecord
100
AcDbLinetypeTableRecord
  2
BYBLOCK
 70
     0
  3

 72
    65
 73
     0
 40
0.0
  0
LTYPE
  5
24
330
21
100
AcDbSymbolTableRecord
100
AcDbLinetypeTableRecord
  2
BYLAYER
 70
     0
  3

 72
    65
 73
     0
 40
0.0
  0
LTYPE
  5
25
330
21
100
AcDbSymbolTableRecord
100
AcDbLinetypeTableRecord
  2
CONTINUOUS
 70
     0
  3
Solid line
 72
    65
 73
     0
 40
0.0
  0
ENDTAB
  0
TABLE
  2
LAYER
  5
BE2
330
0
100
AcDbSymbolTable
 70
2
  0
LAYER
  5
BE3
330
BE2
100
AcDbSymbolTableRecord
100
AcDbLayerTableRecord
  2
0
 70
   0
 62
   7
  6
CONTINUOUS
  0
LAYER
  5
BE4
330
BE2
100
AcDbSymbolTableRecord
100
AcDbLayerTableRecord
  2
View
 70
    0
 62
    7
  6
CONTINUOUS
  0
ENDTAB
  0
TABLE
  2
STYLE
  5
70
330
0
100
AcDbSymbolTable
 70
     2
  0
STYLE
  5
71
330
70
100
AcDbSymbolTableRecord
100
AcDbTextStyleTableRecord
  2
STANDARD
 70
     0
 40
0.0
 41
1.0
 50
0.0
 71
     0
 42
2.5
  3
arial.ttf
  4

  0
STYLE
  5
72
330
70
100
AcDbSymbolTableRecord
100
AcDbTextStyleTableRecord
  2
ANNOTATIVE
 70
     0
 40
0.0
 41
1.0
 50
0.0
 71
     0
 42
2.5
  3
arial.ttf
  4

  0
ENDTAB
  0
TABLE
  2
VIEW
  5
73
330
0
100
AcDbSymbolTable
 70
     0
  0
ENDTAB
  0
TABLE
  2
UCS
  5
74
330
0
100
AcDbSymbolTable
 70
     0
  0
ENDTAB
  0
TABLE
  2
APPID
  5
75
330
0
100
AcDbSymbolTable
 70
     2
  0
APPID
  5
76
330
75
100
AcDbSymbolTableRecord
100
AcDbRegAppTableRecord
  2
ACAD
 70
     0
  0
APPID
  5
77
330
75
100
AcDbSymbolTableRecord
100
AcDbRegAppTableRecord
  2
ACADANNOTATIVE
 70
     0
  0
ENDTAB
  0
TABLE
  2
DIMSTYLE
  5
78
330
0
100
AcDbSymbolTable
 70
     2
  0
DIMSTYLE
105
79
330
78
100
AcDbSymbolTableRecord
100
AcDbDimStyleTableRecord
  2
STANDARD
 70
     0
  3

  4

  5

  6

  7

 40
0.0
 41
2.5
 42
0.625
 43
3.75
 44
1.25
 45
0.0
 46
0.0
 47
0.0
 48
0.0
140
2.5
141
2.5
142
0.0
143
0.03937007874016
144
1.0
145
0.0
146
1.0
147
0.625
 71
     0
 72
     0
 73
     0
 74
     0
 75
     0
 76
     0
 77
     1
 78
     8
170
     0
171
     3
172
     1
173
     0
174
     0
175
     0
176
     0
177
     0
178
     0
270
     2
271
     2
272
     2
273
     2
274
     3
340
71
275
     0
280
     0
281
     0
282
     0
283
     0
284
     8
285
     0
286
     0
287
     3
288
     0
  0
ENDTAB
  0
TABLE
  2
BLOCK_RECORD
  5
A01
330
0
100
AcDbSymbolTable
  70
5
  0
BLOCK_RECORD
  5
A02
330
A01
100
AcDbSymbolTableRecord
100
AcDbBlockTableRecord
  2
*MODEL_SPACE
  0
BLOCK_RECORD
  5
A03
330
A01
100
AcDbSymbolTableRecord
100
AcDbBlockTableRecord
  2
*PAPER_SPACE
  0
ENDTAB
  0
ENDSEC
  0
SECTION
  2
BLOCKS
  0
BLOCK
  5
A04
330
A02
100
AcDbEntity
  8
0
100
AcDbBlockBegin
  2
*MODEL_SPACE
 70
   0
 10
0
 20
0
 30
0
  3
*MODEL_SPACE
  1
 
  0
ENDBLK
  5
A05
330
A02
100
AcDbEntity
  8
0
100
AcDbBlockEnd
  0
BLOCK
  5
A06
330
A03
100
AcDbEntity
 67
1
  8
0
100
AcDbBlockBegin
  2
*PAPER_SPACE
 70
   0
 10
0
 20
0
 30
0
  3
*PAPER_SPACE
  1
 
  0
ENDBLK
  5
A07
330
A03
100
AcDbEntity
 67
    1
  8
0
100
AcDbBlockEnd
  0
ENDSEC
  0
SECTION
  2
ENTITIES
  0
ARC
  5
A08
330
A02
100
AcDbEntity
  8
View
100
AcDbCircle
 10
166.735414744
 20
105.000000000
 30
0.000000000
 40
3.962400000
100
AcDbArc
 50
0.000000000
 51
26.000000000
  0
ARC
  5
A09
330
A02
100
AcDbEntity
  8
View
100
AcDbCircle
 10
130.264585256
 20
105.000000000
 30
0.000000000
 40
3.962400000
100
AcDbArc
 50
154.000000000
 51
180.000000000
  0
ARC
  5
A0A
330
A02
100
AcDbEntity
  8
View
100
AcDbCircle
 10
136.600000000
 20
117.995000000
 30
0.000000000
 40
3.960000000
100
AcDbArc
 50
90.000000000
 51
154.000000000
  0
LINE
  5
A0B
330
A02
100
AcDbEntity
  8
View
100
AcDbLine
 10
126.703203727
 20
106.737001832
 30
0.000000000
 11
133.040775577
 21
119.730949741
 31
0.000000000
  0
ARC
  5
A0C
330
A02
100
AcDbEntity
  8
View
100
AcDbCircle
 10
130.264585256
 20
105.000000000
 30
0.000000000
 40
3.962400000
100
AcDbArc
 50
180.000000000
 51
-154.000000000
  0
LINE
  5
A0D
330
A02
100
AcDbEntity
  8
View
100
AcDbLine
 10
133.040775577
 20
90.269050259
 30
0.000000000
 11
126.703203727
 21
103.262998168
 31
0.000000000
  0
ARC
  5
A0E
330
A02
100
AcDbEntity
  8
View
100
AcDbCircle
 10
136.600000000
 20
92.005000000
 30
0.000000000
 40
3.960000000
100
AcDbArc
 50
-154.000000000
 51
-90.000000000
  0
LINE
  5
A0F
330
A02
100
AcDbEntity
  8
View
100
AcDbLine
 10
160.400000000
 20
88.045000000
 30
0.000000000
 11
136.600000000
 21
88.045000000
 31
0.000000000
  0
ARC
  5
A10
330
A02
100
AcDbEntity
  8
View
100
AcDbCircle
 10
160.400000000
 20
92.005000000
 30
0.000000000
 40
3.960000000
100
AcDbArc
 50
-90.000000000
 51
-26.000000000
  0
LINE
  5
A11
330
A02
100
AcDbEntity
  8
View
100
AcDbLine
 10
170.296796273
 20
103.262998168
 30
0.000000000
 11
163.959224423
 21
90.269050259
 31
0.000000000
  0
ARC
  5
A12
330
A02
100
AcDbEntity
  8
View
100
AcDbCircle
 10
166.735414744
 20
105.000000000
 30
0.000000000
 40
3.962400000
100
AcDbArc
 50
-26.000000000
 51
0.000000000
  0
LINE
  5
A13
330
A02
100
AcDbEntity
  8
View
100
AcDbLine
 10
163.959224423
 20
119.730949741
 30
0.000000000
 11
170.296796273
 21
106.737001832
 31
0.000000000
  0
ARC
  5
A14
330
A02
100
AcDbEntity
  8
View
100
AcDbCircle
 10
160.400000000
 20
117.995000000
 30
0.000000000
 40
3.960000000
100
AcDbArc
 50
26.000000000
 51
90.000000000
  0
LINE
  5
A15
330
A02
100
AcDbEntity
  8
View
100
AcDbLine
 10
136.600000000
 20
121.955000000
 30
0.000000000
 11
160.400000000
 21
121.955000000
 31
0.000000000
  0
LINE
  5
A16
330
A02
100
AcDbEntity
  8
View
100
AcDbLine
 10
162.025000000
 20
100.424000000
 30
0.000000000
 11
161.215000000
 21
100.424000000
 31
0.000000000
  0
LINE
  5
A17
330
A02
100
AcDbEntity
  8
View
100
AcDbLine
 10
160.820000000
 20
94.774000000
 30
0.000000000
 11
160.820000000
 21
94.913000000
 31
0.000000000
  0
LINE
  5
A18
330
A02
100
AcDbEntity
  8
View
100
AcDbLine
 10
160.820000000
 20
97.707000000
 30
0.000000000
 11
160.820000000
 21
97.954000000
 31
0.000000000
  0
LINE
  5
A19
330
A02
100
AcDbEntity
  8
View
100
AcDbLine
 10
136.180000000
 20
94.774000000
 30
0.000000000
 11
136.180000000
 21
94.913000000
 31
0.000000000
  0
LINE
  5
A1A
330
A02
100
AcDbEntity
  8
View
100
AcDbLine
 10
136.180000000
 20
97.707000000
 30
0.000000000
 11
136.180000000
 21
97.954000000
 31
0.000000000
  0
LINE
  5
A1B
330
A02
100
AcDbEntity
  8
View
100
AcDbLine
 10
135.785000000
 20
100.424000000
 30
0.000000000
 11
134.975000000
 21
100.424000000
 31
0.000000000
  0
ARC
  5
A1C
330
A02
100
AcDbEntity
  8
View
100
AcDbCircle
 10
166.495000000
 20
105.000000000
 30
0.000000000
 40
1.689100000
100
AcDbArc
 50
180.000000000
 51
0.000000000
  0
ARC
  5
A1D
330
A02
100
AcDbEntity
  8
View
100
AcDbCircle
 10
166.495000000
 20
105.000000000
 30
0.000000000
 40
1.689100000
100
AcDbArc
 50
0.000000000
 51
180.000000000
  0
ARC
  5
A1E
330
A02
100
AcDbEntity
  8
View
100
AcDbCircle
 10
130.505000000
 20
105.000000000
 30
0.000000000
 40
1.689100000
100
AcDbArc
 50
180.000000000
 51
0.000000000
  0
ARC
  5
A1F
330
A02
100
AcDbEntity
  8
View
100
AcDbCircle
 10
130.505000000
 20
105.000000000
 30
0.000000000
 40
1.689100000
100
AcDbArc
 50
0.000000000
 51
180.000000000
  0
LINE
  5
A20
330
A02
100
AcDbEntity
  8
View
100
AcDbLine
 10
160.628500000
 20
94.774000000
 30
0.000000000
 11
160.628500000
 21
94.913000000
 31
0.000000000
  0
LINE
  5
A21
330
A02
100
AcDbEntity
  8
View
100
AcDbLine
 10
159.358500000
 20
94.774000000
 30
0.000000000
 11
159.358500000
 21
94.913000000
 31
0.000000000
  0
LINE
  5
A22
330
A02
100
AcDbEntity
  8
View
100
AcDbLine
 10
137.641500000
 20
94.803500000
 30
0.000000000
 11
137.641500000
 21
94.913000000
 31
0.000000000
  0
LINE
  5
A23
330
A02
100
AcDbEntity
  8
View
100
AcDbLine
 10
136.371500000
 20
94.774000000
 30
0.000000000
 11
136.371500000
 21
94.913000000
 31
0.000000000
  0
LINE
  5
A24
330
A02
100
AcDbEntity
  8
View
100
AcDbLine
 10
136.371500000
 20
97.707000000
 30
0.000000000
 11
136.371500000
 21
97.954000000
 31
0.000000000
  0
LINE
  5
A25
330
A02
100
AcDbEntity
  8
View
100
AcDbLine
 10
160.628500000
 20
97.707000000
 30
0.000000000
 11
160.628500000
 21
97.954000000
 31
0.000000000
  0
LINE
  5
A26
330
A02
100
AcDbEntity
  8
View
100
AcDbLine
 10
159.358500000
 20
94.913000000
 30
0.000000000
 11
161.911200000
 21
94.913000000
 31
0.000000000
  0
LINE
  5
A27
330
A02
100
AcDbEntity
  8
View
100
AcDbLine
 10
159.358500000
 20
94.913000000
 30
0.000000000
 11
159.358500000
 21
97.707000000
 31
0.000000000
  0
LINE
  5
A28
330
A02
100
AcDbEntity
  8
View
100
AcDbLine
 10
159.358500000
 20
97.707000000
 30
0.000000000
 11
159.358500000
 21
97.954000000
 31
0.000000000
  0
LINE
  5
A29
330
A02
100
AcDbEntity
  8
View
100
AcDbLine
 10
137.641500000
 20
97.707000000
 30
0.000000000
 11
137.641500000
 21
97.928500000
 31
0.000000000
  0
LINE
  5
A2A
330
A02
100
AcDbEntity
  8
View
100
AcDbLine
 10
137.641500000
 20
94.913000000
 30
0.000000000
 11
137.641500000
 21
97.707000000
 31
0.000000000
  0
LINE
  5
A2B
330
A02
100
AcDbEntity
  8
View
100
AcDbLine
 10
137.641500000
 20
94.913000000
 30
0.000000000
 11
135.088800000
 21
94.913000000
 31
0.000000000
  0
LINE
  5
A2C
330
A02
100
AcDbEntity
  8
View
100
AcDbLine
 10
137.641500000
 20
97.707000000
 30
0.000000000
 11
135.723800000
 21
97.707000000
 31
0.000000000
  0
LINE
  5
A2D
330
A02
100
AcDbEntity
  8
View
100
AcDbLine
 10
135.723800000
 20
97.707000000
 30
0.000000000
 11
135.723800000
 21
99.942200000
 31
0.000000000
  0
LINE
  5
A2E
330
A02
100
AcDbEntity
  8
View
100
AcDbLine
 10
135.723800000
 20
99.942200000
 30
0.000000000
 11
135.088800000
 21
99.942200000
 31
0.000000000
  0
LINE
  5
A2F
330
A02
100
AcDbEntity
  8
View
100
AcDbLine
 10
135.088800000
 20
99.942200000
 30
0.000000000
 11
135.088800000
 21
94.913000000
 31
0.000000000
  0
LINE
  5
A30
330
A02
100
AcDbEntity
  8
View
100
AcDbLine
 10
159.358500000
 20
97.707000000
 30
0.000000000
 11
161.276200000
 21
97.707000000
 31
0.000000000
  0
LINE
  5
A31
330
A02
100
AcDbEntity
  8
View
100
AcDbLine
 10
161.276200000
 20
97.707000000
 30
0.000000000
 11
161.276200000
 21
99.942200000
 31
0.000000000
  0
LINE
  5
A32
330
A02
100
AcDbEntity
  8
View
100
AcDbLine
 10
161.911200000
 20
94.913000000
 30
0.000000000
 11
161.911200000
 21
99.942200000
 31
0.000000000
  0
LINE
  5
A33
330
A02
100
AcDbEntity
  8
View
100
AcDbLine
 10
161.276200000
 20
99.942200000
 30
0.000000000
 11
161.911200000
 21
99.942200000
 31
0.000000000
  0
LINE
  5
A34
330
A02
100
AcDbEntity
  8
View
100
AcDbLine
 10
161.215000000
 20
100.424000000
 30
0.000000000
 11
161.215000000
 21
99.154000000
 31
0.000000000
  0
LINE
  5
A35
330
A02
100
AcDbEntity
  8
View
100
AcDbLine
 10
162.025000000
 20
100.424000000
 30
0.000000000
 11
161.215000000
 21
100.424000000
 31
0.000000000
  0
LINE
  5
A36
330
A02
100
AcDbEntity
  8
View
100
AcDbLine
 10
135.785000000
 20
100.424000000
 30
0.000000000
 11
135.785000000
 21
99.154000000
 31
0.000000000
  0
LINE
  5
A37
330
A02
100
AcDbEntity
  8
View
100
AcDbLine
 10
134.975000000
 20
100.424000000
 30
0.000000000
 11
135.785000000
 21
100.424000000
 31
0.000000000
  0
LINE
  5
A38
330
A02
100
AcDbEntity
  8
View
100
AcDbLine
 10
135.785000000
 20
97.954000000
 30
0.000000000
 11
135.785000000
 21
100.424000000
 31
0.000000000
  0
LINE
  5
A39
330
A02
100
AcDbEntity
  8
View
100
AcDbLine
 10
162.025000000
 20
100.424000000
 30
0.000000000
 11
162.025000000
 21
113.460000000
 31
0.000000000
  0
ARC
  5
A3A
330
A02
100
AcDbEntity
  8
View
100
AcDbCircle
 10
159.662800000
 20
113.460000000
 30
0.000000000
 40
2.362200000
100
AcDbArc
 50
0.000000000
 51
45.000000000
  0
LINE
  5
A3B
330
A02
100
AcDbEntity
  8
View
100
AcDbLine
 10
161.333127639
 20
115.130327639
 30
0.000000000
 11
156.724683273
 21
119.738772004
 31
0.000000000
  0
ARC
  5
A3C
330
A02
100
AcDbEntity
  8
View
100
AcDbCircle
 10
155.055911270
 20
118.070000000
 30
0.000000000
 40
2.360000000
100
AcDbArc
 50
45.000000000
 51
90.000000000
  0
LINE
  5
A3D
330
A02
100
AcDbEntity
  8
View
100
AcDbLine
 10
155.055911270
 20
120.430000000
 30
0.000000000
 11
141.946800000
 21
120.430000000
 31
0.000000000
  0
ARC
  5
A3E
330
A02
100
AcDbEntity
  8
View
100
AcDbCircle
 10
141.946800000
 20
118.067800000
 30
0.000000000
 40
2.362200000
100
AcDbArc
 50
90.000000000
 51
135.000000000
  0
LINE
  5
A3F
330
A02
100
AcDbEntity
  8
View
100
AcDbLine
 10
140.276472361
 20
119.738127639
 30
0.000000000
 11
135.666872361
 21
115.128527639
 31
0.000000000
  0
ARC
  5
A40
330
A02
100
AcDbEntity
  8
View
100
AcDbCircle
 10
137.337200000
 20
113.458200000
 30
0.000000000
 40
2.362200000
100
AcDbArc
 50
135.000000000
 51
180.000000000
  0
LINE
  5
A41
330
A02
100
AcDbEntity
  8
View
100
AcDbLine
 10
134.975000000
 20
113.458200000
 30
0.000000000
 11
134.975000000
 21
100.424000000
 31
0.000000000
  0
LINE
  5
A42
330
A02
100
AcDbEntity
  8
View
100
AcDbLine
 10
137.616000000
 20
97.954000000
 30
0.000000000
 11
135.785000000
 21
97.954000000
 31
0.000000000
  0
LINE
  5
A43
330
A02
100
AcDbEntity
  8
View
100
AcDbLine
 10
137.866000000
 20
97.704000000
 30
0.000000000
 11
137.616000000
 21
97.954000000
 31
0.000000000
  0
LINE
  5
A44
330
A02
100
AcDbEntity
  8
View
100
AcDbLine
 10
137.866000000
 20
95.028000000
 30
0.000000000
 11
137.866000000
 21
97.704000000
 31
0.000000000
  0
LINE
  5
A45
330
A02
100
AcDbEntity
  8
View
100
AcDbLine
 10
137.612000000
 20
94.774000000
 30
0.000000000
 11
137.866000000
 21
95.028000000
 31
0.000000000
  0
LINE
  5
A46
330
A02
100
AcDbEntity
  8
View
100
AcDbLine
 10
134.975000000
 20
94.774000000
 30
0.000000000
 11
137.612000000
 21
94.774000000
 31
0.000000000
  0
LINE
  5
A47
330
A02
100
AcDbEntity
  8
View
100
AcDbLine
 10
134.975000000
 20
94.774000000
 30
0.000000000
 11
134.975000000
 21
91.932200000
 31
0.000000000
  0
ARC
  5
A48
330
A02
100
AcDbEntity
  8
View
100
AcDbCircle
 10
137.337200000
 20
91.932200000
 30
0.000000000
 40
2.362200000
100
AcDbArc
 50
180.000000000
 51
-90.000000000
  0
LINE
  5
A49
330
A02
100
AcDbEntity
  8
View
100
AcDbLine
 10
137.337200000
 20
89.570000000
 30
0.000000000
 11
159.662800000
 21
89.570000000
 31
0.000000000
  0
ARC
  5
A4A
330
A02
100
AcDbEntity
  8
View
100
AcDbCircle
 10
159.662800000
 20
91.932200000
 30
0.000000000
 40
2.362200000
100
AcDbArc
 50
-90.000000000
 51
0.000000000
  0
LINE
  5
A4B
330
A02
100
AcDbEntity
  8
View
100
AcDbLine
 10
162.025000000
 20
91.932200000
 30
0.000000000
 11
162.025000000
 21
94.774000000
 31
0.000000000
  0
LINE
  5
A4C
330
A02
100
AcDbEntity
  8
View
100
AcDbLine
 10
162.025000000
 20
94.774000000
 30
0.000000000
 11
159.226000000
 21
94.774000000
 31
0.000000000
  0
LINE
  5
A4D
330
A02
100
AcDbEntity
  8
View
100
AcDbLine
 10
159.016750000
 20
94.983250000
 30
0.000000000
 11
159.226000000
 21
94.774000000
 31
0.000000000
  0
LINE
  5
A4E
330
A02
100
AcDbEntity
  8
View
100
AcDbLine
 10
158.976000000
 20
97.704000000
 30
0.000000000
 11
158.976000000
 21
95.868445984
 31
0.000000000
  0
LINE
  5
A4F
330
A02
100
AcDbEntity
  8
View
100
AcDbLine
 10
159.226000000
 20
97.954000000
 30
0.000000000
 11
158.976000000
 21
97.704000000
 31
0.000000000
  0
LINE
  5
A50
330
A02
100
AcDbEntity
  8
View
100
AcDbLine
 10
161.215000000
 20
97.954000000
 30
0.000000000
 11
159.226000000
 21
97.954000000
 31
0.000000000
  0
LINE
  5
A51
330
A02
100
AcDbEntity
  8
View
100
AcDbLine
 10
161.215000000
 20
100.424000000
 30
0.000000000
 11
161.215000000
 21
97.954000000
 31
0.000000000
  0
LINE
  5
A52
330
A02
100
AcDbEntity
  8
View
100
AcDbLine
 10
140.492700000
 20
107.655800000
 30
0.000000000
 11
140.492700000
 21
109.735800000
 31
0.000000000
  0
LINE
  5
A53
330
A02
100
AcDbEntity
  8
View
100
AcDbLine
 10
142.502700000
 20
109.735800000
 30
0.000000000
 11
142.502700000
 21
107.655800000
 31
0.000000000
  0
LINE
  5
A54
330
A02
100
AcDbEntity
  8
View
100
AcDbLine
 10
154.494400000
 20
107.655800000
 30
0.000000000
 11
154.494400000
 21
109.735800000
 31
0.000000000
  0
LINE
  5
A55
330
A02
100
AcDbEntity
  8
View
100
AcDbLine
 10
156.501000000
 20
109.735800000
 30
0.000000000
 11
156.501000000
 21
107.655800000
 31
0.000000000
  0
LINE
  5
A56
330
A02
100
AcDbEntity
  8
View
100
AcDbLine
 10
147.495000000
 20
111.562000000
 30
0.000000000
 11
147.495000000
 21
113.642000000
 31
0.000000000
  0
LINE
  5
A57
330
A02
100
AcDbEntity
  8
View
100
AcDbLine
 10
149.505000000
 20
113.642000000
 30
0.000000000
 11
149.505000000
 21
111.562000000
 31
0.000000000
  0
LINE
  5
A58
330
A02
100
AcDbEntity
  8
View
100
AcDbLine
 10
143.650000000
 20
99.964000000
 30
0.000000000
 11
143.650000000
 21
98.344000000
 31
0.000000000
  0
LINE
  5
A59
330
A02
100
AcDbEntity
  8
View
100
AcDbLine
 10
143.650000000
 20
98.344000000
 30
0.000000000
 11
143.266146309
 21
98.344000000
 31
0.000000000
  0
LINE
  5
A5A
330
A02
100
AcDbEntity
  8
View
100
AcDbLine
 10
138.767353691
 20
98.344000000
 30
0.000000000
 11
138.566000000
 21
98.344000000
 31
0.000000000
  0
LINE
  5
A5B
330
A02
100
AcDbEntity
  8
View
100
AcDbLine
 10
138.566000000
 20
98.344000000
 30
0.000000000
 11
138.316000000
 21
98.594000000
 31
0.000000000
  0
LINE
  5
A5C
330
A02
100
AcDbEntity
  8
View
100
AcDbLine
 10
138.316000000
 20
98.594000000
 30
0.000000000
 11
138.316000000
 21
99.964000000
 31
0.000000000
  0
LINE
  5
A5D
330
A02
100
AcDbEntity
  8
View
100
AcDbLine
 10
138.316000000
 20
99.964000000
 30
0.000000000
 11
143.650000000
 21
99.964000000
 31
0.000000000
  0
LINE
  5
A5E
330
A02
100
AcDbEntity
  8
View
100
AcDbLine
 10
158.684800000
 20
99.964000000
 30
0.000000000
 11
158.684800000
 21
98.594000000
 31
0.000000000
  0
LINE
  5
A5F
330
A02
100
AcDbEntity
  8
View
100
AcDbLine
 10
158.684800000
 20
98.594000000
 30
0.000000000
 11
158.434800000
 21
98.344000000
 31
0.000000000
  0
LINE
  5
A60
330
A02
100
AcDbEntity
  8
View
100
AcDbLine
 10
158.434800000
 20
98.344000000
 30
0.000000000
 11
158.266146309
 21
98.344000000
 31
0.000000000
  0
LINE
  5
A61
330
A02
100
AcDbEntity
  8
View
100
AcDbLine
 10
153.767353691
 20
98.344000000
 30
0.000000000
 11
153.354800000
 21
98.344000000
 31
0.000000000
  0
LINE
  5
A62
330
A02
100
AcDbEntity
  8
View
100
AcDbLine
 10
153.354800000
 20
98.344000000
 30
0.000000000
 11
153.354800000
 21
99.964000000
 31
0.000000000
  0
LINE
  5
A63
330
A02
100
AcDbEntity
  8
View
100
AcDbLine
 10
153.354800000
 20
99.964000000
 30
0.000000000
 11
158.684800000
 21
99.964000000
 31
0.000000000
  0
LINE
  5
A64
330
A02
100
AcDbEntity
  8
View
100
AcDbLine
 10
139.976750000
 20
97.367300000
 30
0.000000000
 11
142.056750000
 21
97.367300000
 31
0.000000000
  0
LINE
  5
A65
330
A02
100
AcDbEntity
  8
View
100
AcDbLine
 10
154.976750000
 20
97.370700000
 30
0.000000000
 11
157.056750000
 21
97.370700000
 31
0.000000000
  0
LINE
  5
A66
330
A02
100
AcDbEntity
  8
View
100
AcDbLine
 10
140.497700000
 20
107.665800000
 30
0.000000000
 11
140.497700000
 21
107.655800000
 31
0.000000000
  0
LINE
  5
A67
330
A02
100
AcDbEntity
  8
View
100
AcDbLine
 10
140.497700000
 20
109.645800000
 30
0.000000000
 11
140.497700000
 21
107.665800000
 31
0.000000000
  0
LINE
  5
A68
330
A02
100
AcDbEntity
  8
View
100
AcDbLine
 10
140.497700000
 20
109.735800000
 30
0.000000000
 11
140.497700000
 21
109.645800000
 31
0.000000000
  0
LINE
  5
A69
330
A02
100
AcDbEntity
  8
View
100
AcDbLine
 10
144.497700000
 20
108.018133845
 30
0.000000000
 11
143.681789040
 21
110.863553511
 31
0.000000000
  0
LINE
  5
A6A
330
A02
100
AcDbEntity
  8
View
100
AcDbLine
 10
144.497700000
 20
105.717800000
 30
0.000000000
 11
144.497700000
 21
108.018133845
 31
0.000000000
  0
SPLINE
  5
A6B
330
A02
100
AcDbEntity
  8
View
100
AcDbSpline
210
0
220
0
230
1
 70
8
 71
3
 72
8
 73
4
 74
0
 40
0.000000000
 40
0.000000000
 40
0.000000000
 40
0.000000000
 40
1.570796327
 40
1.570796327
 40
1.570796327
 40
1.570796327
 10
144.497700000
 20
105.517800000
 30
0.000000000
 10
144.497700000
 20
105.515559218
 30
0.000000000
 10
144.497700000
 20
105.610894585
 30
0.000000000
 10
144.497700000
 20
105.717800000
 30
0.000000000
  0
LINE
  5
A6C
330
A02
100
AcDbEntity
  8
View
100
AcDbLine
 10
144.497700000
 20
104.707800000
 30
0.000000000
 11
144.497700000
 21
105.517800000
 31
0.000000000
  0
LINE
  5
A6D
330
A02
100
AcDbEntity
  8
View
100
AcDbLine
 10
144.497700000
 20
105.517800000
 30
0.000000000
 11
142.894700000
 21
105.517800000
 31
0.000000000
  0
LINE
  5
A6E
330
A02
100
AcDbEntity
  8
View
100
AcDbLine
 10
142.894700000
 20
105.517800000
 30
0.000000000
 11
142.894700000
 21
104.707800000
 31
0.000000000
  0
LINE
  5
A6F
330
A02
100
AcDbEntity
  8
View
100
AcDbLine
 10
144.497700000
 20
104.707800000
 30
0.000000000
 11
142.894700000
 21
104.707800000
 31
0.000000000
  0
SPLINE
  5
A70
330
A02
100
AcDbEntity
  8
View
100
AcDbSpline
210
0
220
0
230
1
 70
8
 71
3
 72
8
 73
4
 74
0
 40
0.000000000
 40
0.000000000
 40
0.000000000
 40
0.000000000
 40
0.911197347
 40
0.911197347
 40
0.911197347
 40
0.911197347
 10
142.894700000
 20
104.707800000
 30
0.000000000
 10
142.027929319
 20
104.707800000
 30
0.000000000
 10
140.967470681
 20
104.707800000
 30
0.000000000
 10
140.100700000
 20
104.707800000
 30
0.000000000
  0
LINE
  5
A71
330
A02
100
AcDbEntity
  8
View
100
AcDbLine
 10
138.497700000
 20
104.707800000
 30
0.000000000
 11
140.100700000
 21
104.707800000
 31
0.000000000
  0
LINE
  5
A72
330
A02
100
AcDbEntity
  8
View
100
AcDbLine
 10
138.497700000
 20
105.517800000
 30
0.000000000
 11
140.100700000
 21
105.517800000
 31
0.000000000
  0
LINE
  5
A73
330
A02
100
AcDbEntity
  8
View
100
AcDbLine
 10
138.497700000
 20
104.707800000
 30
0.000000000
 11
138.497700000
 21
105.517800000
 31
0.000000000
  0
SPLINE
  5
A74
330
A02
100
AcDbEntity
  8
View
100
AcDbSpline
210
0
220
0
230
1
 70
8
 71
3
 72
8
 73
4
 74
0
 40
0.000000000
 40
0.000000000
 40
0.000000000
 40
0.000000000
 40
1.570796327
 40
1.570796327
 40
1.570796327
 40
1.570796327
 10
138.497700000
 20
105.517800000
 30
0.000000000
 10
138.497700000
 20
105.515559218
 30
0.000000000
 10
138.497700000
 20
105.610894585
 30
0.000000000
 10
138.497700000
 20
105.717800000
 30
0.000000000
  0
LINE
  5
A75
330
A02
100
AcDbEntity
  8
View
100
AcDbLine
 10
138.497700000
 20
105.717800000
 30
0.000000000
 11
138.497700000
 21
108.018133845
 31
0.000000000
  0
LINE
  5
A76
330
A02
100
AcDbEntity
  8
View
100
AcDbLine
 10
138.497700000
 20
108.018133845
 30
0.000000000
 11
139.313610960
 21
110.863553511
 31
0.000000000
  0
ARC
  5
A77
330
A02
100
AcDbEntity
  8
View
100
AcDbCircle
 10
140.073007700
 20
110.645800000
 30
0.000000000
 40
0.790000000
100
AcDbArc
 50
90.000000000
 51
164.000000000
  0
LINE
  5
A78
330
A02
100
AcDbEntity
  8
View
100
AcDbLine
 10
142.922392300
 20
111.435800000
 30
0.000000000
 11
140.073007700
 21
111.435800000
 31
0.000000000
  0
ARC
  5
A79
330
A02
100
AcDbEntity
  8
View
100
AcDbCircle
 10
142.922392300
 20
110.645800000
 30
0.000000000
 40
0.790000000
100
AcDbArc
 50
16.000000000
 51
90.000000000
  0
LINE
  5
A7A
330
A02
100
AcDbEntity
  8
View
100
AcDbLine
 10
140.457700000
 20
109.735800000
 30
0.000000000
 11
140.457700000
 21
107.655800000
 31
0.000000000
  0
LINE
  5
A7B
330
A02
100
AcDbEntity
  8
View
100
AcDbLine
 10
142.537700000
 20
109.735800000
 30
0.000000000
 11
140.457700000
 21
109.735800000
 31
0.000000000
  0
LINE
  5
A7C
330
A02
100
AcDbEntity
  8
View
100
AcDbLine
 10
142.537700000
 20
107.655800000
 30
0.000000000
 11
142.537700000
 21
109.735800000
 31
0.000000000
  0
LINE
  5
A7D
330
A02
100
AcDbEntity
  8
View
100
AcDbLine
 10
140.457700000
 20
107.655800000
 30
0.000000000
 11
142.537700000
 21
107.655800000
 31
0.000000000
  0
SPLINE
  5
A7E
330
A02
100
AcDbEntity
  8
View
100
AcDbSpline
210
0
220
0
230
1
 70
8
 71
3
 72
8
 73
4
 74
0
 40
0.000000000
 40
0.000000000
 40
0.000000000
 40
0.000000000
 40
0.911197347
 40
0.911197347
 40
0.911197347
 40
0.911197347
 10
140.100700000
 20
105.517800000
 30
0.000000000
 10
140.967470681
 20
105.517800000
 30
0.000000000
 10
142.027929319
 20
105.517800000
 30
0.000000000
 10
142.894700000
 20
105.517800000
 30
0.000000000
  0
LINE
  5
A7F
330
A02
100
AcDbEntity
  8
View
100
AcDbLine
 10
142.894700000
 20
105.517800000
 30
0.000000000
 11
142.894700000
 21
104.707800000
 31
0.000000000
  0
LINE
  5
A80
330
A02
100
AcDbEntity
  8
View
100
AcDbLine
 10
140.100700000
 20
105.517800000
 30
0.000000000
 11
140.100700000
 21
104.707800000
 31
0.000000000
  0
LINE
  5
A81
330
A02
100
AcDbEntity
  8
View
100
AcDbLine
 10
142.497700000
 20
107.665800000
 30
0.000000000
 11
142.497700000
 21
107.655800000
 31
0.000000000
  0
LINE
  5
A82
330
A02
100
AcDbEntity
  8
View
100
AcDbLine
 10
140.497700000
 20
107.665800000
 30
0.000000000
 11
142.497700000
 21
107.665800000
 31
0.000000000
  0
LINE
  5
A83
330
A02
100
AcDbEntity
  8
View
100
AcDbLine
 10
142.497700000
 20
109.645800000
 30
0.000000000
 11
142.497700000
 21
107.665800000
 31
0.000000000
  0
LINE
  5
A84
330
A02
100
AcDbEntity
  8
View
100
AcDbLine
 10
140.497700000
 20
109.645800000
 30
0.000000000
 11
142.497700000
 21
109.645800000
 31
0.000000000
  0
LINE
  5
A85
330
A02
100
AcDbEntity
  8
View
100
AcDbLine
 10
142.497700000
 20
109.735800000
 30
0.000000000
 11
142.497700000
 21
109.645800000
 31
0.000000000
  0
LINE
  5
A86
330
A02
100
AcDbEntity
  8
View
100
AcDbLine
 10
147.500000000
 20
111.652000000
 30
0.000000000
 11
147.500000000
 21
111.562000000
 31
0.000000000
  0
LINE
  5
A87
330
A02
100
AcDbEntity
  8
View
100
AcDbLine
 10
147.500000000
 20
113.632000000
 30
0.000000000
 11
147.500000000
 21
111.652000000
 31
0.000000000
  0
LINE
  5
A88
330
A02
100
AcDbEntity
  8
View
100
AcDbLine
 10
147.500000000
 20
113.642000000
 30
0.000000000
 11
147.500000000
 21
113.632000000
 31
0.000000000
  0
LINE
  5
A89
330
A02
100
AcDbEntity
  8
View
100
AcDbLine
 10
145.500000000
 20
113.279666155
 30
0.000000000
 11
146.315910960
 21
110.434246489
 31
0.000000000
  0
LINE
  5
A8A
330
A02
100
AcDbEntity
  8
View
100
AcDbLine
 10
145.500000000
 20
115.580000000
 30
0.000000000
 11
145.500000000
 21
113.279666155
 31
0.000000000
  0
SPLINE
  5
A8B
330
A02
100
AcDbEntity
  8
View
100
AcDbSpline
210
0
220
0
230
1
 70
8
 71
3
 72
8
 73
4
 74
0
 40
0.000000000
 40
0.000000000
 40
0.000000000
 40
0.000000000
 40
1.570796327
 40
1.570796327
 40
1.570796327
 40
1.570796327
 10
145.500000000
 20
115.780000000
 30
0.000000000
 10
145.500000000
 20
115.782240782
 30
0.000000000
 10
145.500000000
 20
115.686905415
 30
0.000000000
 10
145.500000000
 20
115.580000000
 30
0.000000000
  0
LINE
  5
A8C
330
A02
100
AcDbEntity
  8
View
100
AcDbLine
 10
145.500000000
 20
116.590000000
 30
0.000000000
 11
145.500000000
 21
115.780000000
 31
0.000000000
  0
LINE
  5
A8D
330
A02
100
AcDbEntity
  8
View
100
AcDbLine
 10
145.500000000
 20
115.780000000
 30
0.000000000
 11
147.103000000
 21
115.780000000
 31
0.000000000
  0
LINE
  5
A8E
330
A02
100
AcDbEntity
  8
View
100
AcDbLine
 10
147.103000000
 20
115.780000000
 30
0.000000000
 11
147.103000000
 21
116.590000000
 31
0.000000000
  0
LINE
  5
A8F
330
A02
100
AcDbEntity
  8
View
100
AcDbLine
 10
145.500000000
 20
116.590000000
 30
0.000000000
 11
147.103000000
 21
116.590000000
 31
0.000000000
  0
SPLINE
  5
A90
330
A02
100
AcDbEntity
  8
View
100
AcDbSpline
210
0
220
0
230
1
 70
8
 71
3
 72
8
 73
4
 74
0
 40
0.000000000
 40
0.000000000
 40
0.000000000
 40
0.000000000
 40
0.911197347
 40
0.911197347
 40
0.911197347
 40
0.911197347
 10
147.103000000
 20
116.590000000
 30
0.000000000
 10
147.969770681
 20
116.590000000
 30
0.000000000
 10
149.030229319
 20
116.590000000
 30
0.000000000
 10
149.897000000
 20
116.590000000
 30
0.000000000
  0
LINE
  5
A91
330
A02
100
AcDbEntity
  8
View
100
AcDbLine
 10
151.500000000
 20
116.590000000
 30
0.000000000
 11
149.897000000
 21
116.590000000
 31
0.000000000
  0
LINE
  5
A92
330
A02
100
AcDbEntity
  8
View
100
AcDbLine
 10
151.500000000
 20
115.780000000
 30
0.000000000
 11
149.897000000
 21
115.780000000
 31
0.000000000
  0
LINE
  5
A93
330
A02
100
AcDbEntity
  8
View
100
AcDbLine
 10
151.500000000
 20
116.590000000
 30
0.000000000
 11
151.500000000
 21
115.780000000
 31
0.000000000
  0
SPLINE
  5
A94
330
A02
100
AcDbEntity
  8
View
100
AcDbSpline
210
0
220
0
230
1
 70
8
 71
3
 72
8
 73
4
 74
0
 40
0.000000000
 40
0.000000000
 40
0.000000000
 40
0.000000000
 40
1.570796327
 40
1.570796327
 40
1.570796327
 40
1.570796327
 10
151.500000000
 20
115.780000000
 30
0.000000000
 10
151.500000000
 20
115.782240782
 30
0.000000000
 10
151.500000000
 20
115.686905415
 30
0.000000000
 10
151.500000000
 20
115.580000000
 30
0.000000000
  0
LINE
  5
A95
330
A02
100
AcDbEntity
  8
View
100
AcDbLine
 10
151.500000000
 20
115.580000000
 30
0.000000000
 11
151.500000000
 21
113.279666155
 31
0.000000000
  0
LINE
  5
A96
330
A02
100
AcDbEntity
  8
View
100
AcDbLine
 10
151.500000000
 20
113.279666155
 30
0.000000000
 11
150.684089040
 21
110.434246489
 31
0.000000000
  0
ARC
  5
A97
330
A02
100
AcDbEntity
  8
View
100
AcDbCircle
 10
149.924692300
 20
110.652000000
 30
0.000000000
 40
0.790000000
100
AcDbArc
 50
-90.000000000
 51
-16.000000000
  0
LINE
  5
A98
330
A02
100
AcDbEntity
  8
View
100
AcDbLine
 10
147.075307700
 20
109.862000000
 30
0.000000000
 11
149.924692300
 21
109.862000000
 31
0.000000000
  0
ARC
  5
A99
330
A02
100
AcDbEntity
  8
View
100
AcDbCircle
 10
147.075307700
 20
110.652000000
 30
0.000000000
 40
0.790000000
100
AcDbArc
 50
-164.000000000
 51
-90.000000000
  0
LINE
  5
A9A
330
A02
100
AcDbEntity
  8
View
100
AcDbLine
 10
149.540000000
 20
111.562000000
 30
0.000000000
 11
149.540000000
 21
113.642000000
 31
0.000000000
  0
LINE
  5
A9B
330
A02
100
AcDbEntity
  8
View
100
AcDbLine
 10
147.460000000
 20
111.562000000
 30
0.000000000
 11
149.540000000
 21
111.562000000
 31
0.000000000
  0
LINE
  5
A9C
330
A02
100
AcDbEntity
  8
View
100
AcDbLine
 10
147.460000000
 20
113.642000000
 30
0.000000000
 11
147.460000000
 21
111.562000000
 31
0.000000000
  0
LINE
  5
A9D
330
A02
100
AcDbEntity
  8
View
100
AcDbLine
 10
149.540000000
 20
113.642000000
 30
0.000000000
 11
147.460000000
 21
113.642000000
 31
0.000000000
  0
SPLINE
  5
A9E
330
A02
100
AcDbEntity
  8
View
100
AcDbSpline
210
0
220
0
230
1
 70
8
 71
3
 72
8
 73
4
 74
0
 40
0.000000000
 40
0.000000000
 40
0.000000000
 40
0.000000000
 40
0.911197347
 40
0.911197347
 40
0.911197347
 40
0.911197347
 10
149.897000000
 20
115.780000000
 30
0.000000000
 10
149.030229319
 20
115.780000000
 30
0.000000000
 10
147.969770681
 20
115.780000000
 30
0.000000000
 10
147.103000000
 20
115.780000000
 30
0.000000000
  0
LINE
  5
A9F
330
A02
100
AcDbEntity
  8
View
100
AcDbLine
 10
147.103000000
 20
115.780000000
 30
0.000000000
 11
147.103000000
 21
116.590000000
 31
0.000000000
  0
LINE
  5
AA0
330
A02
100
AcDbEntity
  8
View
100
AcDbLine
 10
149.897000000
 20
115.780000000
 30
0.000000000
 11
149.897000000
 21
116.590000000
 31
0.000000000
  0
LINE
  5
AA1
330
A02
100
AcDbEntity
  8
View
100
AcDbLine
 10
149.500000000
 20
113.642000000
 30
0.000000000
 11
149.500000000
 21
113.632000000
 31
0.000000000
  0
LINE
  5
AA2
330
A02
100
AcDbEntity
  8
View
100
AcDbLine
 10
149.500000000
 20
113.632000000
 30
0.000000000
 11
149.500000000
 21
111.652000000
 31
0.000000000
  0
LINE
  5
AA3
330
A02
100
AcDbEntity
  8
View
100
AcDbLine
 10
149.500000000
 20
111.652000000
 30
0.000000000
 11
149.500000000
 21
111.562000000
 31
0.000000000
  0
LINE
  5
AA4
330
A02
100
AcDbEntity
  8
View
100
AcDbLine
 10
147.500000000
 20
111.652000000
 30
0.000000000
 11
149.500000000
 21
111.652000000
 31
0.000000000
  0
LINE
  5
AA5
330
A02
100
AcDbEntity
  8
View
100
AcDbLine
 10
147.500000000
 20
113.632000000
 30
0.000000000
 11
149.500000000
 21
113.632000000
 31
0.000000000
  0
LINE
  5
AA6
330
A02
100
AcDbEntity
  8
View
100
AcDbLine
 10
154.497700000
 20
107.665800000
 30
0.000000000
 11
154.497700000
 21
107.655800000
 31
0.000000000
  0
LINE
  5
AA7
330
A02
100
AcDbEntity
  8
View
100
AcDbLine
 10
154.497700000
 20
109.645800000
 30
0.000000000
 11
154.497700000
 21
107.665800000
 31
0.000000000
  0
LINE
  5
AA8
330
A02
100
AcDbEntity
  8
View
100
AcDbLine
 10
154.497700000
 20
109.735800000
 30
0.000000000
 11
154.497700000
 21
109.645800000
 31
0.000000000
  0
LINE
  5
AA9
330
A02
100
AcDbEntity
  8
View
100
AcDbLine
 10
158.497700000
 20
108.018133845
 30
0.000000000
 11
157.681789040
 21
110.863553511
 31
0.000000000
  0
LINE
  5
AAA
330
A02
100
AcDbEntity
  8
View
100
AcDbLine
 10
158.497700000
 20
105.717800000
 30
0.000000000
 11
158.497700000
 21
108.018133845
 31
0.000000000
  0
SPLINE
  5
AAB
330
A02
100
AcDbEntity
  8
View
100
AcDbSpline
210
0
220
0
230
1
 70
8
 71
3
 72
8
 73
4
 74
0
 40
0.000000000
 40
0.000000000
 40
0.000000000
 40
0.000000000
 40
1.570796327
 40
1.570796327
 40
1.570796327
 40
1.570796327
 10
158.497700000
 20
105.517800000
 30
0.000000000
 10
158.497700000
 20
105.515559218
 30
0.000000000
 10
158.497700000
 20
105.610894585
 30
0.000000000
 10
158.497700000
 20
105.717800000
 30
0.000000000
  0
LINE
  5
AAC
330
A02
100
AcDbEntity
  8
View
100
AcDbLine
 10
158.497700000
 20
104.707800000
 30
0.000000000
 11
158.497700000
 21
105.517800000
 31
0.000000000
  0
LINE
  5
AAD
330
A02
100
AcDbEntity
  8
View
100
AcDbLine
 10
158.497700000
 20
105.517800000
 30
0.000000000
 11
156.894700000
 21
105.517800000
 31
0.000000000
  0
LINE
  5
AAE
330
A02
100
AcDbEntity
  8
View
100
AcDbLine
 10
156.894700000
 20
105.517800000
 30
0.000000000
 11
156.894700000
 21
104.707800000
 31
0.000000000
  0
LINE
  5
AAF
330
A02
100
AcDbEntity
  8
View
100
AcDbLine
 10
158.497700000
 20
104.707800000
 30
0.000000000
 11
156.894700000
 21
104.707800000
 31
0.000000000
  0
SPLINE
  5
AB0
330
A02
100
AcDbEntity
  8
View
100
AcDbSpline
210
0
220
0
230
1
 70
8
 71
3
 72
8
 73
4
 74
0
 40
0.000000000
 40
0.000000000
 40
0.000000000
 40
0.000000000
 40
0.911197347
 40
0.911197347
 40
0.911197347
 40
0.911197347
 10
156.894700000
 20
104.707800000
 30
0.000000000
 10
156.027929319
 20
104.707800000
 30
0.000000000
 10
154.967470681
 20
104.707800000
 30
0.000000000
 10
154.100700000
 20
104.707800000
 30
0.000000000
  0
LINE
  5
AB1
330
A02
100
AcDbEntity
  8
View
100
AcDbLine
 10
152.497700000
 20
104.707800000
 30
0.000000000
 11
154.100700000
 21
104.707800000
 31
0.000000000
  0
LINE
  5
AB2
330
A02
100
AcDbEntity
  8
View
100
AcDbLine
 10
152.497700000
 20
105.517800000
 30
0.000000000
 11
154.100700000
 21
105.517800000
 31
0.000000000
  0
LINE
  5
AB3
330
A02
100
AcDbEntity
  8
View
100
AcDbLine
 10
152.497700000
 20
104.707800000
 30
0.000000000
 11
152.497700000
 21
105.517800000
 31
0.000000000
  0
SPLINE
  5
AB4
330
A02
100
AcDbEntity
  8
View
100
AcDbSpline
210
0
220
0
230
1
 70
8
 71
3
 72
8
 73
4
 74
0
 40
0.000000000
 40
0.000000000
 40
0.000000000
 40
0.000000000
 40
1.570796327
 40
1.570796327
 40
1.570796327
 40
1.570796327
 10
152.497700000
 20
105.517800000
 30
0.000000000
 10
152.497700000
 20
105.515559218
 30
0.000000000
 10
152.497700000
 20
105.610894585
 30
0.000000000
 10
152.497700000
 20
105.717800000
 30
0.000000000
  0
LINE
  5
AB5
330
A02
100
AcDbEntity
  8
View
100
AcDbLine
 10
152.497700000
 20
105.717800000
 30
0.000000000
 11
152.497700000
 21
108.018133845
 31
0.000000000
  0
LINE
  5
AB6
330
A02
100
AcDbEntity
  8
View
100
AcDbLine
 10
152.497700000
 20
108.018133845
 30
0.000000000
 11
153.313610960
 21
110.863553511
 31
0.000000000
  0
ARC
  5
AB7
330
A02
100
AcDbEntity
  8
View
100
AcDbCircle
 10
154.073007700
 20
110.645800000
 30
0.000000000
 40
0.790000000
100
AcDbArc
 50
90.000000000
 51
164.000000000
  0
LINE
  5
AB8
330
A02
100
AcDbEntity
  8
View
100
AcDbLine
 10
156.922392300
 20
111.435800000
 30
0.000000000
 11
154.073007700
 21
111.435800000
 31
0.000000000
  0
ARC
  5
AB9
330
A02
100
AcDbEntity
  8
View
100
AcDbCircle
 10
156.922392300
 20
110.645800000
 30
0.000000000
 40
0.790000000
100
AcDbArc
 50
16.000000000
 51
90.000000000
  0
LINE
  5
ABA
330
A02
100
AcDbEntity
  8
View
100
AcDbLine
 10
154.457700000
 20
109.735800000
 30
0.000000000
 11
154.457700000
 21
107.655800000
 31
0.000000000
  0
LINE
  5
ABB
330
A02
100
AcDbEntity
  8
View
100
AcDbLine
 10
156.537700000
 20
109.735800000
 30
0.000000000
 11
154.457700000
 21
109.735800000
 31
0.000000000
  0
LINE
  5
ABC
330
A02
100
AcDbEntity
  8
View
100
AcDbLine
 10
156.537700000
 20
107.655800000
 30
0.000000000
 11
156.537700000
 21
109.735800000
 31
0.000000000
  0
LINE
  5
ABD
330
A02
100
AcDbEntity
  8
View
100
AcDbLine
 10
154.457700000
 20
107.655800000
 30
0.000000000
 11
156.537700000
 21
107.655800000
 31
0.000000000
  0
SPLINE
  5
ABE
330
A02
100
AcDbEntity
  8
View
100
AcDbSpline
210
0
220
0
230
1
 70
8
 71
3
 72
8
 73
4
 74
0
 40
0.000000000
 40
0.000000000
 40
0.000000000
 40
0.000000000
 40
0.911197347
 40
0.911197347
 40
0.911197347
 40
0.911197347
 10
154.100700000
 20
105.517800000
 30
0.000000000
 10
154.967470681
 20
105.517800000
 30
0.000000000
 10
156.027929319
 20
105.517800000
 30
0.000000000
 10
156.894700000
 20
105.517800000
 30
0.000000000
  0
LINE
  5
ABF
330
A02
100
AcDbEntity
  8
View
100
AcDbLine
 10
156.894700000
 20
105.517800000
 30
0.000000000
 11
156.894700000
 21
104.707800000
 31
0.000000000
  0
LINE
  5
AC0
330
A02
100
AcDbEntity
  8
View
100
AcDbLine
 10
154.100700000
 20
105.517800000
 30
0.000000000
 11
154.100700000
 21
104.707800000
 31
0.000000000
  0
LINE
  5
AC1
330
A02
100
AcDbEntity
  8
View
100
AcDbLine
 10
156.497700000
 20
107.665800000
 30
0.000000000
 11
156.497700000
 21
107.655800000
 31
0.000000000
  0
LINE
  5
AC2
330
A02
100
AcDbEntity
  8
View
100
AcDbLine
 10
154.497700000
 20
107.665800000
 30
0.000000000
 11
156.497700000
 21
107.665800000
 31
0.000000000
  0
LINE
  5
AC3
330
A02
100
AcDbEntity
  8
View
100
AcDbLine
 10
156.497700000
 20
109.645800000
 30
0.000000000
 11
156.497700000
 21
107.665800000
 31
0.000000000
  0
LINE
  5
AC4
330
A02
100
AcDbEntity
  8
View
100
AcDbLine
 10
154.497700000
 20
109.645800000
 30
0.000000000
 11
156.497700000
 21
109.645800000
 31
0.000000000
  0
LINE
  5
AC5
330
A02
100
AcDbEntity
  8
View
100
AcDbLine
 10
156.497700000
 20
109.735800000
 30
0.000000000
 11
156.497700000
 21
109.645800000
 31
0.000000000
  0
LINE
  5
AC6
330
A02
100
AcDbEntity
  8
View
100
AcDbLine
 10
143.290000000
 20
118.742000000
 30
0.000000000
 11
143.290000000
 21
117.722000000
 31
0.000000000
  0
LINE
  5
AC7
330
A02
100
AcDbEntity
  8
View
100
AcDbLine
 10
146.470000000
 20
118.742000000
 30
0.000000000
 11
143.290000000
 21
118.742000000
 31
0.000000000
  0
LINE
  5
AC8
330
A02
100
AcDbEntity
  8
View
100
AcDbLine
 10
146.470000000
 20
117.722000000
 30
0.000000000
 11
146.470000000
 21
118.742000000
 31
0.000000000
  0
LINE
  5
AC9
330
A02
100
AcDbEntity
  8
View
100
AcDbLine
 10
143.290000000
 20
117.722000000
 30
0.000000000
 11
146.470000000
 21
117.722000000
 31
0.000000000
  0
LINE
  5
ACA
330
A02
100
AcDbEntity
  8
View
100
AcDbLine
 10
150.530000000
 20
118.742000000
 30
0.000000000
 11
150.530000000
 21
117.722000000
 31
0.000000000
  0
LINE
  5
ACB
330
A02
100
AcDbEntity
  8
View
100
AcDbLine
 10
153.710000000
 20
118.742000000
 30
0.000000000
 11
150.530000000
 21
118.742000000
 31
0.000000000
  0
LINE
  5
ACC
330
A02
100
AcDbEntity
  8
View
100
AcDbLine
 10
153.710000000
 20
117.722000000
 30
0.000000000
 11
153.710000000
 21
118.742000000
 31
0.000000000
  0
LINE
  5
ACD
330
A02
100
AcDbEntity
  8
View
100
AcDbLine
 10
150.530000000
 20
117.722000000
 30
0.000000000
 11
153.710000000
 21
117.722000000
 31
0.000000000
  0
LINE
  5
ACE
330
A02
100
AcDbEntity
  8
View
100
AcDbLine
 10
142.006750000
 20
95.414000000
 30
0.000000000
 11
142.056750000
 21
95.414000000
 31
0.000000000
  0
LINE
  5
ACF
330
A02
100
AcDbEntity
  8
View
100
AcDbLine
 10
140.026750000
 20
95.414000000
 30
0.000000000
 11
142.006750000
 21
95.414000000
 31
0.000000000
  0
LINE
  5
AD0
330
A02
100
AcDbEntity
  8
View
100
AcDbLine
 10
139.976750000
 20
95.414000000
 30
0.000000000
 11
140.026750000
 21
95.414000000
 31
0.000000000
  0
LINE
  5
AD1
330
A02
100
AcDbEntity
  8
View
100
AcDbLine
 10
144.016750000
 20
95.726333845
 30
0.000000000
 11
143.200839040
 21
98.571753511
 31
0.000000000
  0
LINE
  5
AD2
330
A02
100
AcDbEntity
  8
View
100
AcDbLine
 10
144.016750000
 20
93.426000000
 30
0.000000000
 11
144.016750000
 21
95.726333845
 31
0.000000000
  0
SPLINE
  5
AD3
330
A02
100
AcDbEntity
  8
View
100
AcDbSpline
210
0
220
0
230
1
 70
8
 71
3
 72
8
 73
4
 74
0
 40
0.000000000
 40
0.000000000
 40
0.000000000
 40
0.000000000
 40
1.570796327
 40
1.570796327
 40
1.570796327
 40
1.570796327
 10
144.016750000
 20
93.226000000
 30
0.000000000
 10
144.016750000
 20
93.223759218
 30
0.000000000
 10
144.016750000
 20
93.319094585
 30
0.000000000
 10
144.016750000
 20
93.426000000
 30
0.000000000
  0
LINE
  5
AD4
330
A02
100
AcDbEntity
  8
View
100
AcDbLine
 10
144.016750000
 20
92.416000000
 30
0.000000000
 11
144.016750000
 21
93.226000000
 31
0.000000000
  0
LINE
  5
AD5
330
A02
100
AcDbEntity
  8
View
100
AcDbLine
 10
144.016750000
 20
93.226000000
 30
0.000000000
 11
142.413750000
 21
93.226000000
 31
0.000000000
  0
LINE
  5
AD6
330
A02
100
AcDbEntity
  8
View
100
AcDbLine
 10
142.413750000
 20
93.226000000
 30
0.000000000
 11
142.413750000
 21
92.416000000
 31
0.000000000
  0
LINE
  5
AD7
330
A02
100
AcDbEntity
  8
View
100
AcDbLine
 10
144.016750000
 20
92.416000000
 30
0.000000000
 11
142.413750000
 21
92.416000000
 31
0.000000000
  0
SPLINE
  5
AD8
330
A02
100
AcDbEntity
  8
View
100
AcDbSpline
210
0
220
0
230
1
 70
8
 71
3
 72
8
 73
4
 74
0
 40
0.000000000
 40
0.000000000
 40
0.000000000
 40
0.000000000
 40
0.911197347
 40
0.911197347
 40
0.911197347
 40
0.911197347
 10
142.413750000
 20
92.416000000
 30
0.000000000
 10
141.546979319
 20
92.416000000
 30
0.000000000
 10
140.486520681
 20
92.416000000
 30
0.000000000
 10
139.619750000
 20
92.416000000
 30
0.000000000
  0
LINE
  5
AD9
330
A02
100
AcDbEntity
  8
View
100
AcDbLine
 10
138.016750000
 20
92.416000000
 30
0.000000000
 11
139.619750000
 21
92.416000000
 31
0.000000000
  0
LINE
  5
ADA
330
A02
100
AcDbEntity
  8
View
100
AcDbLine
 10
138.016750000
 20
93.226000000
 30
0.000000000
 11
139.619750000
 21
93.226000000
 31
0.000000000
  0
LINE
  5
ADB
330
A02
100
AcDbEntity
  8
View
100
AcDbLine
 10
138.016750000
 20
92.416000000
 30
0.000000000
 11
138.016750000
 21
93.226000000
 31
0.000000000
  0
SPLINE
  5
ADC
330
A02
100
AcDbEntity
  8
View
100
AcDbSpline
210
0
220
0
230
1
 70
8
 71
3
 72
8
 73
4
 74
0
 40
0.000000000
 40
0.000000000
 40
0.000000000
 40
0.000000000
 40
1.570796327
 40
1.570796327
 40
1.570796327
 40
1.570796327
 10
138.016750000
 20
93.226000000
 30
0.000000000
 10
138.016750000
 20
93.223759218
 30
0.000000000
 10
138.016750000
 20
93.319094585
 30
0.000000000
 10
138.016750000
 20
93.426000000
 30
0.000000000
  0
LINE
  5
ADD
330
A02
100
AcDbEntity
  8
View
100
AcDbLine
 10
138.016750000
 20
93.426000000
 30
0.000000000
 11
138.016750000
 21
95.726333845
 31
0.000000000
  0
LINE
  5
ADE
330
A02
100
AcDbEntity
  8
View
100
AcDbLine
 10
138.016750000
 20
95.726333845
 30
0.000000000
 11
138.832660960
 21
98.571753511
 31
0.000000000
  0
ARC
  5
ADF
330
A02
100
AcDbEntity
  8
View
100
AcDbCircle
 10
139.592057700
 20
98.354000000
 30
0.000000000
 40
0.790000000
100
AcDbArc
 50
90.000000000
 51
164.000000000
  0
LINE
  5
AE0
330
A02
100
AcDbEntity
  8
View
100
AcDbLine
 10
142.441442300
 20
99.144000000
 30
0.000000000
 11
139.592057700
 21
99.144000000
 31
0.000000000
  0
ARC
  5
AE1
330
A02
100
AcDbEntity
  8
View
100
AcDbCircle
 10
142.441442300
 20
98.354000000
 30
0.000000000
 40
0.790000000
100
AcDbArc
 50
16.000000000
 51
90.000000000
  0
LINE
  5
AE2
330
A02
100
AcDbEntity
  8
View
100
AcDbLine
 10
139.976750000
 20
97.444000000
 30
0.000000000
 11
139.976750000
 21
95.364000000
 31
0.000000000
  0
LINE
  5
AE3
330
A02
100
AcDbEntity
  8
View
100
AcDbLine
 10
142.056750000
 20
97.444000000
 30
0.000000000
 11
139.976750000
 21
97.444000000
 31
0.000000000
  0
LINE
  5
AE4
330
A02
100
AcDbEntity
  8
View
100
AcDbLine
 10
142.056750000
 20
95.364000000
 30
0.000000000
 11
142.056750000
 21
97.444000000
 31
0.000000000
  0
LINE
  5
AE5
330
A02
100
AcDbEntity
  8
View
100
AcDbLine
 10
139.976750000
 20
95.364000000
 30
0.000000000
 11
142.056750000
 21
95.364000000
 31
0.000000000
  0
SPLINE
  5
AE6
330
A02
100
AcDbEntity
  8
View
100
AcDbSpline
210
0
220
0
230
1
 70
8
 71
3
 72
8
 73
4
 74
0
 40
0.000000000
 40
0.000000000
 40
0.000000000
 40
0.000000000
 40
0.911197347
 40
0.911197347
 40
0.911197347
 40
0.911197347
 10
139.619750000
 20
93.226000000
 30
0.000000000
 10
140.486520681
 20
93.226000000
 30
0.000000000
 10
141.546979319
 20
93.226000000
 30
0.000000000
 10
142.413750000
 20
93.226000000
 30
0.000000000
  0
LINE
  5
AE7
330
A02
100
AcDbEntity
  8
View
100
AcDbLine
 10
142.413750000
 20
93.226000000
 30
0.000000000
 11
142.413750000
 21
92.416000000
 31
0.000000000
  0
LINE
  5
AE8
330
A02
100
AcDbEntity
  8
View
100
AcDbLine
 10
139.619750000
 20
93.226000000
 30
0.000000000
 11
139.619750000
 21
92.416000000
 31
0.000000000
  0
LINE
  5
AE9
330
A02
100
AcDbEntity
  8
View
100
AcDbLine
 10
142.006750000
 20
97.314000000
 30
0.000000000
 11
142.056750000
 21
97.314000000
 31
0.000000000
  0
LINE
  5
AEA
330
A02
100
AcDbEntity
  8
View
100
AcDbLine
 10
142.006750000
 20
95.414000000
 30
0.000000000
 11
142.006750000
 21
97.314000000
 31
0.000000000
  0
LINE
  5
AEB
330
A02
100
AcDbEntity
  8
View
100
AcDbLine
 10
140.026750000
 20
97.314000000
 30
0.000000000
 11
142.006750000
 21
97.314000000
 31
0.000000000
  0
LINE
  5
AEC
330
A02
100
AcDbEntity
  8
View
100
AcDbLine
 10
140.026750000
 20
95.414000000
 30
0.000000000
 11
140.026750000
 21
97.314000000
 31
0.000000000
  0
LINE
  5
AED
330
A02
100
AcDbEntity
  8
View
100
AcDbLine
 10
139.976750000
 20
97.314000000
 30
0.000000000
 11
140.026750000
 21
97.314000000
 31
0.000000000
  0
LINE
  5
AEE
330
A02
100
AcDbEntity
  8
View
100
AcDbLine
 10
157.006750000
 20
95.414000000
 30
0.000000000
 11
157.056750000
 21
95.414000000
 31
0.000000000
  0
LINE
  5
AEF
330
A02
100
AcDbEntity
  8
View
100
AcDbLine
 10
155.026750000
 20
95.414000000
 30
0.000000000
 11
157.006750000
 21
95.414000000
 31
0.000000000
  0
LINE
  5
AF0
330
A02
100
AcDbEntity
  8
View
100
AcDbLine
 10
154.976750000
 20
95.414000000
 30
0.000000000
 11
155.026750000
 21
95.414000000
 31
0.000000000
  0
LINE
  5
AF1
330
A02
100
AcDbEntity
  8
View
100
AcDbLine
 10
159.016750000
 20
95.726333845
 30
0.000000000
 11
158.200839040
 21
98.571753511
 31
0.000000000
  0
LINE
  5
AF2
330
A02
100
AcDbEntity
  8
View
100
AcDbLine
 10
159.016750000
 20
93.426000000
 30
0.000000000
 11
159.016750000
 21
95.726333845
 31
0.000000000
  0
SPLINE
  5
AF3
330
A02
100
AcDbEntity
  8
View
100
AcDbSpline
210
0
220
0
230
1
 70
8
 71
3
 72
8
 73
4
 74
0
 40
0.000000000
 40
0.000000000
 40
0.000000000
 40
0.000000000
 40
1.570796327
 40
1.570796327
 40
1.570796327
 40
1.570796327
 10
159.016750000
 20
93.226000000
 30
0.000000000
 10
159.016750000
 20
93.223759218
 30
0.000000000
 10
159.016750000
 20
93.319094585
 30
0.000000000
 10
159.016750000
 20
93.426000000
 30
0.000000000
  0
LINE
  5
AF4
330
A02
100
AcDbEntity
  8
View
100
AcDbLine
 10
159.016750000
 20
92.416000000
 30
0.000000000
 11
159.016750000
 21
93.226000000
 31
0.000000000
  0
LINE
  5
AF5
330
A02
100
AcDbEntity
  8
View
100
AcDbLine
 10
159.016750000
 20
93.226000000
 30
0.000000000
 11
157.413750000
 21
93.226000000
 31
0.000000000
  0
LINE
  5
AF6
330
A02
100
AcDbEntity
  8
View
100
AcDbLine
 10
157.413750000
 20
93.226000000
 30
0.000000000
 11
157.413750000
 21
92.416000000
 31
0.000000000
  0
LINE
  5
AF7
330
A02
100
AcDbEntity
  8
View
100
AcDbLine
 10
159.016750000
 20
92.416000000
 30
0.000000000
 11
157.413750000
 21
92.416000000
 31
0.000000000
  0
SPLINE
  5
AF8
330
A02
100
AcDbEntity
  8
View
100
AcDbSpline
210
0
220
0
230
1
 70
8
 71
3
 72
8
 73
4
 74
0
 40
0.000000000
 40
0.000000000
 40
0.000000000
 40
0.000000000
 40
0.911197347
 40
0.911197347
 40
0.911197347
 40
0.911197347
 10
157.413750000
 20
92.416000000
 30
0.000000000
 10
156.546979319
 20
92.416000000
 30
0.000000000
 10
155.486520681
 20
92.416000000
 30
0.000000000
 10
154.619750000
 20
92.416000000
 30
0.000000000
  0
LINE
  5
AF9
330
A02
100
AcDbEntity
  8
View
100
AcDbLine
 10
153.016750000
 20
92.416000000
 30
0.000000000
 11
154.619750000
 21
92.416000000
 31
0.000000000
  0
LINE
  5
AFA
330
A02
100
AcDbEntity
  8
View
100
AcDbLine
 10
153.016750000
 20
93.226000000
 30
0.000000000
 11
154.619750000
 21
93.226000000
 31
0.000000000
  0
LINE
  5
AFB
330
A02
100
AcDbEntity
  8
View
100
AcDbLine
 10
153.016750000
 20
92.416000000
 30
0.000000000
 11
153.016750000
 21
93.226000000
 31
0.000000000
  0
SPLINE
  5
AFC
330
A02
100
AcDbEntity
  8
View
100
AcDbSpline
210
0
220
0
230
1
 70
8
 71
3
 72
8
 73
4
 74
0
 40
0.000000000
 40
0.000000000
 40
0.000000000
 40
0.000000000
 40
1.570796327
 40
1.570796327
 40
1.570796327
 40
1.570796327
 10
153.016750000
 20
93.226000000
 30
0.000000000
 10
153.016750000
 20
93.223759218
 30
0.000000000
 10
153.016750000
 20
93.319094585
 30
0.000000000
 10
153.016750000
 20
93.426000000
 30
0.000000000
  0
LINE
  5
AFD
330
A02
100
AcDbEntity
  8
View
100
AcDbLine
 10
153.016750000
 20
93.426000000
 30
0.000000000
 11
153.016750000
 21
95.726333845
 31
0.000000000
  0
LINE
  5
AFE
330
A02
100
AcDbEntity
  8
View
100
AcDbLine
 10
153.016750000
 20
95.726333845
 30
0.000000000
 11
153.832660960
 21
98.571753511
 31
0.000000000
  0
ARC
  5
AFF
330
A02
100
AcDbEntity
  8
View
100
AcDbCircle
 10
154.592057700
 20
98.354000000
 30
0.000000000
 40
0.790000000
100
AcDbArc
 50
90.000000000
 51
164.000000000
  0
LINE
  5
B00
330
A02
100
AcDbEntity
  8
View
100
AcDbLine
 10
157.441442300
 20
99.144000000
 30
0.000000000
 11
154.592057700
 21
99.144000000
 31
0.000000000
  0
ARC
  5
B01
330
A02
100
AcDbEntity
  8
View
100
AcDbCircle
 10
157.441442300
 20
98.354000000
 30
0.000000000
 40
0.790000000
100
AcDbArc
 50
16.000000000
 51
90.000000000
  0
LINE
  5
B02
330
A02
100
AcDbEntity
  8
View
100
AcDbLine
 10
154.976750000
 20
97.444000000
 30
0.000000000
 11
154.976750000
 21
95.364000000
 31
0.000000000
  0
LINE
  5
B03
330
A02
100
AcDbEntity
  8
View
100
AcDbLine
 10
157.056750000
 20
97.444000000
 30
0.000000000
 11
154.976750000
 21
97.444000000
 31
0.000000000
  0
LINE
  5
B04
330
A02
100
AcDbEntity
  8
View
100
AcDbLine
 10
157.056750000
 20
95.364000000
 30
0.000000000
 11
157.056750000
 21
97.444000000
 31
0.000000000
  0
LINE
  5
B05
330
A02
100
AcDbEntity
  8
View
100
AcDbLine
 10
154.976750000
 20
95.364000000
 30
0.000000000
 11
157.056750000
 21
95.364000000
 31
0.000000000
  0
SPLINE
  5
B06
330
A02
100
AcDbEntity
  8
View
100
AcDbSpline
210
0
220
0
230
1
 70
8
 71
3
 72
8
 73
4
 74
0
 40
0.000000000
 40
0.000000000
 40
0.000000000
 40
0.000000000
 40
0.911197347
 40
0.911197347
 40
0.911197347
 40
0.911197347
 10
154.619750000
 20
93.226000000
 30
0.000000000
 10
155.486520681
 20
93.226000000
 30
0.000000000
 10
156.546979319
 20
93.226000000
 30
0.000000000
 10
157.413750000
 20
93.226000000
 30
0.000000000
  0
LINE
  5
B07
330
A02
100
AcDbEntity
  8
View
100
AcDbLine
 10
157.413750000
 20
93.226000000
 30
0.000000000
 11
157.413750000
 21
92.416000000
 31
0.000000000
  0
LINE
  5
B08
330
A02
100
AcDbEntity
  8
View
100
AcDbLine
 10
154.619750000
 20
93.226000000
 30
0.000000000
 11
154.619750000
 21
92.416000000
 31
0.000000000
  0
LINE
  5
B09
330
A02
100
AcDbEntity
  8
View
100
AcDbLine
 10
157.006750000
 20
97.314000000
 30
0.000000000
 11
157.056750000
 21
97.314000000
 31
0.000000000
  0
LINE
  5
B0A
330
A02
100
AcDbEntity
  8
View
100
AcDbLine
 10
157.006750000
 20
95.414000000
 30
0.000000000
 11
157.006750000
 21
97.314000000
 31
0.000000000
  0
LINE
  5
B0B
330
A02
100
AcDbEntity
  8
View
100
AcDbLine
 10
155.026750000
 20
97.314000000
 30
0.000000000
 11
157.006750000
 21
97.314000000
 31
0.000000000
  0
LINE
  5
B0C
330
A02
100
AcDbEntity
  8
View
100
AcDbLine
 10
155.026750000
 20
95.414000000
 30
0.000000000
 11
155.026750000
 21
97.314000000
 31
0.000000000
  0
LINE
  5
B0D
330
A02
100
AcDbEntity
  8
View
100
AcDbLine
 10
154.976750000
 20
97.314000000
 30
0.000000000
 11
155.026750000
 21
97.314000000
 31
0.000000000
  0
LINE
  5
B0E
330
A02
100
AcDbEntity
  8
View
100
AcDbLine
 10
136.960000000
 20
91.280000000
 30
0.000000000
 11
136.960000000
 21
90.260000000
 31
0.000000000
  0
LINE
  5
B0F
330
A02
100
AcDbEntity
  8
View
100
AcDbLine
 10
143.010000000
 20
91.280000000
 30
0.000000000
 11
136.960000000
 21
91.280000000
 31
0.000000000
  0
LINE
  5
B10
330
A02
100
AcDbEntity
  8
View
100
AcDbLine
 10
143.010000000
 20
90.260000000
 30
0.000000000
 11
143.010000000
 21
91.280000000
 31
0.000000000
  0
LINE
  5
B11
330
A02
100
AcDbEntity
  8
View
100
AcDbLine
 10
136.960000000
 20
90.260000000
 30
0.000000000
 11
143.010000000
 21
90.260000000
 31
0.000000000
  0
LINE
  5
B12
330
A02
100
AcDbEntity
  8
View
100
AcDbLine
 10
139.420000000
 20
103.575800000
 30
0.000000000
 11
139.420000000
 21
102.555800000
 31
0.000000000
  0
LINE
  5
B13
330
A02
100
AcDbEntity
  8
View
100
AcDbLine
 10
143.433200000
 20
103.575800000
 30
0.000000000
 11
139.420000000
 21
103.575800000
 31
0.000000000
  0
LINE
  5
B14
330
A02
100
AcDbEntity
  8
View
100
AcDbLine
 10
143.433200000
 20
102.555800000
 30
0.000000000
 11
143.433200000
 21
103.575800000
 31
0.000000000
  0
LINE
  5
B15
330
A02
100
AcDbEntity
  8
View
100
AcDbLine
 10
139.420000000
 20
102.555800000
 30
0.000000000
 11
143.433200000
 21
102.555800000
 31
0.000000000
  0
LINE
  5
B16
330
A02
100
AcDbEntity
  8
View
100
AcDbLine
 10
146.023224058
 20
109.825388112
 30
0.000000000
 11
145.121632398
 21
112.969611888
 31
0.000000000
  0
ARC
  5
B17
330
A02
100
AcDbEntity
  8
View
100
AcDbCircle
 10
144.877471927
 20
112.899600000
 30
0.000000000
 40
0.254000000
100
AcDbArc
 50
16.000000000
 51
90.000000000
  0
LINE
  5
B18
330
A02
100
AcDbEntity
  8
View
100
AcDbLine
 10
144.877471927
 20
113.153600000
 30
0.000000000
 11
138.975000000
 21
113.153600000
 31
0.000000000
  0
LINE
  5
B19
330
A02
100
AcDbEntity
  8
View
100
AcDbLine
 10
151.878367602
 20
112.969611888
 30
0.000000000
 11
150.976775942
 21
109.825388112
 31
0.000000000
  0
ARC
  5
B1A
330
A02
100
AcDbEntity
  8
View
100
AcDbCircle
 10
150.732615471
 20
109.895400000
 30
0.000000000
 40
0.254000000
100
AcDbArc
 50
-90.000000000
 51
-16.000000000
  0
LINE
  5
B1B
330
A02
100
AcDbEntity
  8
View
100
AcDbLine
 10
150.732615471
 20
109.641400000
 30
0.000000000
 11
146.267384529
 21
109.641400000
 31
0.000000000
  0
ARC
  5
B1C
330
A02
100
AcDbEntity
  8
View
100
AcDbCircle
 10
146.267384529
 20
109.895400000
 30
0.000000000
 40
0.254000000
100
AcDbArc
 50
-164.000000000
 51
-90.000000000
  0
ARC
  5
B1D
330
A02
100
AcDbEntity
  8
View
100
AcDbCircle
 10
138.975000000
 20
112.899600000
 30
0.000000000
 40
0.254000000
100
AcDbArc
 50
90.000000000
 51
180.000000000
  0
LINE
  5
B1E
330
A02
100
AcDbEntity
  8
View
100
AcDbLine
 10
138.721000000
 20
112.899600000
 30
0.000000000
 11
138.721000000
 21
111.907600000
 31
0.000000000
  0
ARC
  5
B1F
330
A02
100
AcDbEntity
  8
View
100
AcDbCircle
 10
138.975000000
 20
111.907600000
 30
0.000000000
 40
0.254000000
100
AcDbArc
 50
180.000000000
 51
-90.000000000
  0
LINE
  5
B20
330
A02
100
AcDbEntity
  8
View
100
AcDbLine
 10
138.975000000
 20
111.653600000
 30
0.000000000
 11
143.748597271
 21
111.653600000
 31
0.000000000
  0
ARC
  5
B21
330
A02
100
AcDbEntity
  8
View
100
AcDbCircle
 10
143.748597271
 20
111.399600000
 30
0.000000000
 40
0.254000000
100
AcDbArc
 50
16.000000000
 51
90.000000000
  0
LINE
  5
B22
330
A02
100
AcDbEntity
  8
View
100
AcDbLine
 10
143.992757742
 20
111.469611888
 30
0.000000000
 11
144.894349402
 21
108.325388112
 31
0.000000000
  0
ARC
  5
B23
330
A02
100
AcDbEntity
  8
View
100
AcDbCircle
 10
145.138509873
 20
108.395400000
 30
0.000000000
 40
0.254000000
100
AcDbArc
 50
-164.000000000
 51
-90.000000000
  0
LINE
  5
B24
330
A02
100
AcDbEntity
  8
View
100
AcDbLine
 10
145.138509873
 20
108.141400000
 30
0.000000000
 11
151.861490127
 21
108.141400000
 31
0.000000000
  0
ARC
  5
B25
330
A02
100
AcDbEntity
  8
View
100
AcDbCircle
 10
151.861490127
 20
108.395400000
 30
0.000000000
 40
0.254000000
100
AcDbArc
 50
-90.000000000
 51
-16.000000000
  0
LINE
  5
B26
330
A02
100
AcDbEntity
  8
View
100
AcDbLine
 10
152.105650598
 20
108.325388112
 30
0.000000000
 11
153.007242258
 21
111.469611888
 31
0.000000000
  0
ARC
  5
B27
330
A02
100
AcDbEntity
  8
View
100
AcDbCircle
 10
153.251402729
 20
111.399600000
 30
0.000000000
 40
0.254000000
100
AcDbArc
 50
90.000000000
 51
164.000000000
  0
LINE
  5
B28
330
A02
100
AcDbEntity
  8
View
100
AcDbLine
 10
153.251402729
 20
111.653600000
 30
0.000000000
 11
158.025000000
 21
111.653600000
 31
0.000000000
  0
ARC
  5
B29
330
A02
100
AcDbEntity
  8
View
100
AcDbCircle
 10
158.025000000
 20
111.907600000
 30
0.000000000
 40
0.254000000
100
AcDbArc
 50
-90.000000000
 51
0.000000000
  0
LINE
  5
B2A
330
A02
100
AcDbEntity
  8
View
100
AcDbLine
 10
158.279000000
 20
111.907600000
 30
0.000000000
 11
158.279000000
 21
112.899600000
 31
0.000000000
  0
ARC
  5
B2B
330
A02
100
AcDbEntity
  8
View
100
AcDbCircle
 10
158.025000000
 20
112.899600000
 30
0.000000000
 40
0.254000000
100
AcDbArc
 50
0.000000000
 51
90.000000000
  0
LINE
  5
B2C
330
A02
100
AcDbEntity
  8
View
100
AcDbLine
 10
158.025000000
 20
113.153600000
 30
0.000000000
 11
152.122528073
 21
113.153600000
 31
0.000000000
  0
ARC
  5
B2D
330
A02
100
AcDbEntity
  8
View
100
AcDbCircle
 10
152.122528073
 20
112.899600000
 30
0.000000000
 40
0.254000000
100
AcDbArc
 50
90.000000000
 51
164.000000000
  0
LINE
  5
B2E
330
A02
100
AcDbEntity
  8
View
100
AcDbLine
 10
146.005351377
 20
103.370117704
 30
0.000000000
 11
150.994648623
 21
103.370117704
 31
0.000000000
  0
LINE
  5
B2F
330
A02
100
AcDbEntity
  8
View
100
AcDbLine
 10
146.005351377
 20
103.600000000
 30
0.000000000
 11
146.005351377
 21
103.370117704
 31
0.000000000
  0
LINE
  5
B30
330
A02
100
AcDbEntity
  8
View
100
AcDbLine
 10
150.994648623
 20
103.600000000
 30
0.000000000
 11
146.005351377
 21
103.600000000
 31
0.000000000
  0
LINE
  5
B31
330
A02
100
AcDbEntity
  8
View
100
AcDbLine
 10
150.994648623
 20
103.370117704
 30
0.000000000
 11
150.994648623
 21
103.600000000
 31
0.000000000
  0
LINE
  5
B32
330
A02
100
AcDbEntity
  8
View
100
AcDbLine
 10
147.875159064
 20
104.210000000
 30
0.000000000
 11
147.875159064
 21
107.102435876
 31
0.000000000
  0
LINE
  5
B33
330
A02
100
AcDbEntity
  8
View
100
AcDbLine
 10
147.565255220
 20
104.210000000
 30
0.000000000
 11
147.875159064
 21
104.210000000
 31
0.000000000
  0
LINE
  5
B34
330
A02
100
AcDbEntity
  8
View
100
AcDbLine
 10
147.565255220
 20
106.610106424
 30
0.000000000
 11
147.565255220
 21
104.210000000
 31
0.000000000
  0
LINE
  5
B35
330
A02
100
AcDbEntity
  8
View
100
AcDbLine
 10
147.255351377
 20
106.179317981
 30
0.000000000
 11
147.565255220
 21
106.610106424
 31
0.000000000
  0
LINE
  5
B36
330
A02
100
AcDbEntity
  8
View
100
AcDbLine
 10
147.255351377
 20
106.671647605
 30
0.000000000
 11
147.255351377
 21
106.179317981
 31
0.000000000
  0
LINE
  5
B37
330
A02
100
AcDbEntity
  8
View
100
AcDbLine
 10
147.565255220
 20
107.102435876
 30
0.000000000
 11
147.255351377
 21
106.671647605
 31
0.000000000
  0
LINE
  5
B38
330
A02
100
AcDbEntity
  8
View
100
AcDbLine
 10
147.875159064
 20
107.102435876
 30
0.000000000
 11
147.565255220
 21
107.102435876
 31
0.000000000
  0
LINE
  5
B39
330
A02
100
AcDbEntity
  8
View
100
AcDbLine
 10
148.288364165
 20
105.933153255
 30
0.000000000
 11
148.288364165
 21
105.379282621
 31
0.000000000
  0
LINE
  5
B3A
330
A02
100
AcDbEntity
  8
View
100
AcDbLine
 10
148.340014830
 20
106.240859162
 30
0.000000000
 11
148.288364165
 21
105.933153255
 31
0.000000000
  0
LINE
  5
B3B
330
A02
100
AcDbEntity
  8
View
100
AcDbLine
 10
148.391665495
 20
106.425482879
 30
0.000000000
 11
148.340014830
 21
106.240859162
 31
0.000000000
  0
LINE
  5
B3C
330
A02
100
AcDbEntity
  8
View
100
AcDbLine
 10
148.494966752
 20
106.671647605
 30
0.000000000
 11
148.391665495
 21
106.425482879
 31
0.000000000
  0
LINE
  5
B3D
330
A02
100
AcDbEntity
  8
View
100
AcDbLine
 10
148.649918674
 20
106.856271150
 30
0.000000000
 11
148.494966752
 21
106.671647605
 31
0.000000000
  0
LINE
  5
B3E
330
A02
100
AcDbEntity
  8
View
100
AcDbLine
 10
148.908171926
 20
107.040894694
 30
0.000000000
 11
148.649918674
 21
106.856271150
 31
0.000000000
  0
LINE
  5
B3F
330
A02
100
AcDbEntity
  8
View
100
AcDbLine
 10
149.218075770
 20
107.102435876
 30
0.000000000
 11
148.908171926
 21
107.040894694
 31
0.000000000
  0
LINE
  5
B40
330
A02
100
AcDbEntity
  8
View
100
AcDbLine
 10
149.527979614
 20
107.040894694
 30
0.000000000
 11
149.218075770
 21
107.102435876
 31
0.000000000
  0
LINE
  5
B41
330
A02
100
AcDbEntity
  8
View
100
AcDbLine
 10
149.786232866
 20
106.856271150
 30
0.000000000
 11
149.527979614
 21
107.040894694
 31
0.000000000
  0
LINE
  5
B42
330
A02
100
AcDbEntity
  8
View
100
AcDbLine
 10
149.941184788
 20
106.671647605
 30
0.000000000
 11
149.786232866
 21
106.856271150
 31
0.000000000
  0
LINE
  5
B43
330
A02
100
AcDbEntity
  8
View
100
AcDbLine
 10
150.044485971
 20
106.425482879
 30
0.000000000
 11
149.941184788
 21
106.671647605
 31
0.000000000
  0
LINE
  5
B44
330
A02
100
AcDbEntity
  8
View
100
AcDbLine
 10
150.096136710
 20
106.240859162
 30
0.000000000
 11
150.044485971
 21
106.425482879
 31
0.000000000
  0
LINE
  5
B45
330
A02
100
AcDbEntity
  8
View
100
AcDbLine
 10
150.147787154
 20
105.933153255
 30
0.000000000
 11
150.096136710
 21
106.240859162
 31
0.000000000
  0
LINE
  5
B46
330
A02
100
AcDbEntity
  8
View
100
AcDbLine
 10
150.147787154
 20
105.379282621
 30
0.000000000
 11
150.147787154
 21
105.933153255
 31
0.000000000
  0
LINE
  5
B47
330
A02
100
AcDbEntity
  8
View
100
AcDbLine
 10
150.096136710
 20
105.071576627
 30
0.000000000
 11
150.147787154
 21
105.379282621
 31
0.000000000
  0
LINE
  5
B48
330
A02
100
AcDbEntity
  8
View
100
AcDbLine
 10
150.044485971
 20
104.886953083
 30
0.000000000
 11
150.096136710
 21
105.071576627
 31
0.000000000
  0
LINE
  5
B49
330
A02
100
AcDbEntity
  8
View
100
AcDbLine
 10
149.941184788
 20
104.640788314
 30
0.000000000
 11
150.044485971
 21
104.886953083
 31
0.000000000
  0
LINE
  5
B4A
330
A02
100
AcDbEntity
  8
View
100
AcDbLine
 10
149.786232866
 20
104.456164748
 30
0.000000000
 11
149.941184788
 21
104.640788314
 31
0.000000000
  0
LINE
  5
B4B
330
A02
100
AcDbEntity
  8
View
100
AcDbLine
 10
149.527979614
 20
104.271541187
 30
0.000000000
 11
149.786232866
 21
104.456164748
 31
0.000000000
  0
LINE
  5
B4C
330
A02
100
AcDbEntity
  8
View
100
AcDbLine
 10
149.218075770
 20
104.210000000
 30
0.000000000
 11
149.527979614
 21
104.271541187
 31
0.000000000
  0
LINE
  5
B4D
330
A02
100
AcDbEntity
  8
View
100
AcDbLine
 10
148.908171926
 20
104.271541187
 30
0.000000000
 11
149.218075770
 21
104.210000000
 31
0.000000000
  0
LINE
  5
B4E
330
A02
100
AcDbEntity
  8
View
100
AcDbLine
 10
148.649918674
 20
104.456164748
 30
0.000000000
 11
148.908171926
 21
104.271541187
 31
0.000000000
  0
LINE
  5
B4F
330
A02
100
AcDbEntity
  8
View
100
AcDbLine
 10
148.494966752
 20
104.640788314
 30
0.000000000
 11
148.649918674
 21
104.456164748
 31
0.000000000
  0
LINE
  5
B50
330
A02
100
AcDbEntity
  8
View
100
AcDbLine
 10
148.391665495
 20
104.886953083
 30
0.000000000
 11
148.494966752
 21
104.640788314
 31
0.000000000
  0
LINE
  5
B51
330
A02
100
AcDbEntity
  8
View
100
AcDbLine
 10
148.340014830
 20
105.071576627
 30
0.000000000
 11
148.391665495
 21
104.886953083
 31
0.000000000
  0
LINE
  5
B52
330
A02
100
AcDbEntity
  8
View
100
AcDbLine
 10
148.288364165
 20
105.379282621
 30
0.000000000
 11
148.340014830
 21
105.071576627
 31
0.000000000
  0
LINE
  5
B53
330
A02
100
AcDbEntity
  8
View
100
AcDbLine
 10
148.598268082
 20
106.240859162
 30
0.000000000
 11
148.804870596
 21
106.610106424
 31
0.000000000
  0
LINE
  5
B54
330
A02
100
AcDbEntity
  8
View
100
AcDbLine
 10
148.804870596
 20
106.610106424
 30
0.000000000
 11
148.959822517
 21
106.733188787
 31
0.000000000
  0
LINE
  5
B55
330
A02
100
AcDbEntity
  8
View
100
AcDbLine
 10
148.959822517
 20
106.733188787
 30
0.000000000
 11
149.218075770
 21
106.794729968
 31
0.000000000
  0
LINE
  5
B56
330
A02
100
AcDbEntity
  8
View
100
AcDbLine
 10
149.218075770
 20
106.794729968
 30
0.000000000
 11
149.476328875
 21
106.733188787
 31
0.000000000
  0
LINE
  5
B57
330
A02
100
AcDbEntity
  8
View
100
AcDbLine
 10
149.476328875
 20
106.733188787
 30
0.000000000
 11
149.631280796
 21
106.610106424
 31
0.000000000
  0
LINE
  5
B58
330
A02
100
AcDbEntity
  8
View
100
AcDbLine
 10
149.631280796
 20
106.610106424
 30
0.000000000
 11
149.837883310
 21
106.240859162
 31
0.000000000
  0
LINE
  5
B59
330
A02
100
AcDbEntity
  8
View
100
AcDbLine
 10
149.837883310
 20
106.240859162
 30
0.000000000
 11
149.889534049
 21
105.871612073
 31
0.000000000
  0
LINE
  5
B5A
330
A02
100
AcDbEntity
  8
View
100
AcDbLine
 10
149.889534049
 20
105.871612073
 30
0.000000000
 11
149.889534049
 21
105.440823803
 31
0.000000000
  0
LINE
  5
B5B
330
A02
100
AcDbEntity
  8
View
100
AcDbLine
 10
149.889534049
 20
105.440823803
 30
0.000000000
 11
149.837883310
 21
105.071576627
 31
0.000000000
  0
LINE
  5
B5C
330
A02
100
AcDbEntity
  8
View
100
AcDbLine
 10
149.837883310
 20
105.071576627
 30
0.000000000
 11
149.631280796
 21
104.702329495
 31
0.000000000
  0
LINE
  5
B5D
330
A02
100
AcDbEntity
  8
View
100
AcDbLine
 10
149.631280796
 20
104.702329495
 30
0.000000000
 11
149.476328875
 21
104.579247132
 31
0.000000000
  0
LINE
  5
B5E
330
A02
100
AcDbEntity
  8
View
100
AcDbLine
 10
149.476328875
 20
104.579247132
 30
0.000000000
 11
149.218075770
 21
104.517705951
 31
0.000000000
  0
LINE
  5
B5F
330
A02
100
AcDbEntity
  8
View
100
AcDbLine
 10
149.218075770
 20
104.517705951
 30
0.000000000
 11
148.959822517
 21
104.579247132
 31
0.000000000
  0
LINE
  5
B60
330
A02
100
AcDbEntity
  8
View
100
AcDbLine
 10
148.959822517
 20
104.579247132
 30
0.000000000
 11
148.804870596
 21
104.702329495
 31
0.000000000
  0
LINE
  5
B61
330
A02
100
AcDbEntity
  8
View
100
AcDbLine
 10
148.804870596
 20
104.702329495
 30
0.000000000
 11
148.598268082
 21
105.071576627
 31
0.000000000
  0
LINE
  5
B62
330
A02
100
AcDbEntity
  8
View
100
AcDbLine
 10
148.598268082
 20
105.071576627
 30
0.000000000
 11
148.546617343
 21
105.440823803
 31
0.000000000
  0
LINE
  5
B63
330
A02
100
AcDbEntity
  8
View
100
AcDbLine
 10
148.546617343
 20
105.440823803
 30
0.000000000
 11
148.546617343
 21
105.871612073
 31
0.000000000
  0
LINE
  5
B64
330
A02
100
AcDbEntity
  8
View
100
AcDbLine
 10
148.546617343
 20
105.871612073
 30
0.000000000
 11
148.598268082
 21
106.240859162
 31
0.000000000
  0
LINE
  5
B65
330
A02
100
AcDbEntity
  8
View
100
AcDbLine
 10
146.100000000
 20
100.532092363
 30
0.000000000
 11
146.100000000
 21
100.234530565
 31
0.000000000
  0
LINE
  5
B66
330
A02
100
AcDbEntity
  8
View
100
AcDbLine
 10
147.192248475
 20
102.019901272
 30
0.000000000
 11
146.100000000
 21
100.532092363
 31
0.000000000
  0
LINE
  5
B67
330
A02
100
AcDbEntity
  8
View
100
AcDbLine
 10
147.270266263
 20
102.257950677
 30
0.000000000
 11
147.192248475
 21
102.019901272
 31
0.000000000
  0
LINE
  5
B68
330
A02
100
AcDbEntity
  8
View
100
AcDbLine
 10
147.270266263
 20
102.376975546
 30
0.000000000
 11
147.270266263
 21
102.257950677
 31
0.000000000
  0
LINE
  5
B69
330
A02
100
AcDbEntity
  8
View
100
AcDbLine
 10
147.192248475
 20
102.555512600
 30
0.000000000
 11
147.270266263
 21
102.376975546
 31
0.000000000
  0
LINE
  5
B6A
330
A02
100
AcDbEntity
  8
View
100
AcDbLine
 10
147.075221849
 20
102.674537303
 30
0.000000000
 11
147.192248475
 21
102.555512600
 31
0.000000000
  0
LINE
  5
B6B
330
A02
100
AcDbEntity
  8
View
100
AcDbLine
 10
146.880177490
 20
102.734049655
 30
0.000000000
 11
147.075221849
 21
102.674537303
 31
0.000000000
  0
LINE
  5
B6C
330
A02
100
AcDbEntity
  8
View
100
AcDbLine
 10
146.724142026
 20
102.734049655
 30
0.000000000
 11
146.880177490
 21
102.734049655
 31
0.000000000
  0
LINE
  5
B6D
330
A02
100
AcDbEntity
  8
View
100
AcDbLine
 10
146.529097639
 20
102.674537303
 30
0.000000000
 11
146.724142026
 21
102.734049655
 31
0.000000000
  0
LINE
  5
B6E
330
A02
100
AcDbEntity
  8
View
100
AcDbLine
 10
146.412071013
 20
102.555512600
 30
0.000000000
 11
146.529097639
 21
102.674537303
 31
0.000000000
  0
LINE
  5
B6F
330
A02
100
AcDbEntity
  8
View
100
AcDbLine
 10
146.334053253
 20
102.376975546
 30
0.000000000
 11
146.412071013
 21
102.555512600
 31
0.000000000
  0
LINE
  5
B70
330
A02
100
AcDbEntity
  8
View
100
AcDbLine
 10
146.139008877
 20
102.376975546
 30
0.000000000
 11
146.334053253
 21
102.376975546
 31
0.000000000
  0
LINE
  5
B71
330
A02
100
AcDbEntity
  8
View
100
AcDbLine
 10
146.178017753
 20
102.615024952
 30
0.000000000
 11
146.139008877
 21
102.376975546
 31
0.000000000
  0
LINE
  5
B72
330
A02
100
AcDbEntity
  8
View
100
AcDbLine
 10
146.334053253
 20
102.853074357
 30
0.000000000
 11
146.178017753
 21
102.615024952
 31
0.000000000
  0
LINE
  5
B73
330
A02
100
AcDbEntity
  8
View
100
AcDbLine
 10
146.490088745
 20
102.972099060
 30
0.000000000
 11
146.334053253
 21
102.853074357
 31
0.000000000
  0
LINE
  5
B74
330
A02
100
AcDbEntity
  8
View
100
AcDbLine
 10
146.763150864
 20
103.031611411
 30
0.000000000
 11
146.490088745
 21
102.972099060
 31
0.000000000
  0
LINE
  5
B75
330
A02
100
AcDbEntity
  8
View
100
AcDbLine
 10
146.919186384
 20
103.031611411
 30
0.000000000
 11
146.763150864
 21
103.031611411
 31
0.000000000
  0
LINE
  5
B76
330
A02
100
AcDbEntity
  8
View
100
AcDbLine
 10
147.153239637
 20
102.972099060
 30
0.000000000
 11
146.919186384
 21
103.031611411
 31
0.000000000
  0
LINE
  5
B77
330
A02
100
AcDbEntity
  8
View
100
AcDbLine
 10
147.309275102
 20
102.853074357
 30
0.000000000
 11
147.153239637
 21
102.972099060
 31
0.000000000
  0
LINE
  5
B78
330
A02
100
AcDbEntity
  8
View
100
AcDbLine
 10
147.465310678
 20
102.615024952
 30
0.000000000
 11
147.309275102
 21
102.853074357
 31
0.000000000
  0
LINE
  5
B79
330
A02
100
AcDbEntity
  8
View
100
AcDbLine
 10
147.504319516
 20
102.376975546
 30
0.000000000
 11
147.465310678
 21
102.615024952
 31
0.000000000
  0
LINE
  5
B7A
330
A02
100
AcDbEntity
  8
View
100
AcDbLine
 10
147.504319516
 20
102.257950677
 30
0.000000000
 11
147.504319516
 21
102.376975546
 31
0.000000000
  0
LINE
  5
B7B
330
A02
100
AcDbEntity
  8
View
100
AcDbLine
 10
147.465310678
 20
102.019901272
 30
0.000000000
 11
147.504319516
 21
102.257950677
 31
0.000000000
  0
LINE
  5
B7C
330
A02
100
AcDbEntity
  8
View
100
AcDbLine
 10
147.387292890
 20
101.841364218
 30
0.000000000
 11
147.465310678
 21
102.019901272
 31
0.000000000
  0
LINE
  5
B7D
330
A02
100
AcDbEntity
  8
View
100
AcDbLine
 10
146.412071013
 20
100.532092363
 30
0.000000000
 11
147.387292890
 21
101.841364218
 31
0.000000000
  0
LINE
  5
B7E
330
A02
100
AcDbEntity
  8
View
100
AcDbLine
 10
147.504319516
 20
100.532092363
 30
0.000000000
 11
146.412071013
 21
100.532092363
 31
0.000000000
  0
LINE
  5
B7F
330
A02
100
AcDbEntity
  8
View
100
AcDbLine
 10
147.504319516
 20
100.234530565
 30
0.000000000
 11
147.504319516
 21
100.532092363
 31
0.000000000
  0
LINE
  5
B80
330
A02
100
AcDbEntity
  8
View
100
AcDbLine
 10
146.100000000
 20
100.234530565
 30
0.000000000
 11
147.504319516
 21
100.234530565
 31
0.000000000
  0
LINE
  5
B81
330
A02
100
AcDbEntity
  8
View
100
AcDbLine
 10
148.089452648
 20
101.484290110
 30
0.000000000
 11
148.245488224
 21
101.662827164
 31
0.000000000
  0
LINE
  5
B82
330
A02
100
AcDbEntity
  8
View
100
AcDbLine
 10
147.816390557
 20
101.484290110
 30
0.000000000
 11
148.089452648
 21
101.484290110
 31
0.000000000
  0
LINE
  5
B83
330
A02
100
AcDbEntity
  8
View
100
AcDbLine
 10
147.816390557
 20
103.031611411
 30
0.000000000
 11
147.816390557
 21
101.484290110
 31
0.000000000
  0
LINE
  5
B84
330
A02
100
AcDbEntity
  8
View
100
AcDbLine
 10
149.142692285
 20
103.031611411
 30
0.000000000
 11
147.816390557
 21
103.031611411
 31
0.000000000
  0
LINE
  5
B85
330
A02
100
AcDbEntity
  8
View
100
AcDbLine
 10
149.142692285
 20
102.734049655
 30
0.000000000
 11
149.142692285
 21
103.031611411
 31
0.000000000
  0
LINE
  5
B86
330
A02
100
AcDbEntity
  8
View
100
AcDbLine
 10
148.011434971
 20
102.734049655
 30
0.000000000
 11
149.142692285
 21
102.734049655
 31
0.000000000
  0
LINE
  5
B87
330
A02
100
AcDbEntity
  8
View
100
AcDbLine
 10
148.011434971
 20
101.781851866
 30
0.000000000
 11
148.011434971
 21
102.734049655
 31
0.000000000
  0
LINE
  5
B88
330
A02
100
AcDbEntity
  8
View
100
AcDbLine
 10
148.206479274
 20
101.960388920
 30
0.000000000
 11
148.011434971
 21
101.781851866
 31
0.000000000
  0
LINE
  5
B89
330
A02
100
AcDbEntity
  8
View
100
AcDbLine
 10
148.401523577
 20
102.019901272
 30
0.000000000
 11
148.206479274
 21
101.960388920
 31
0.000000000
  0
LINE
  5
B8A
330
A02
100
AcDbEntity
  8
View
100
AcDbLine
 10
148.635576830
 20
102.019901272
 30
0.000000000
 11
148.401523577
 21
102.019901272
 31
0.000000000
  0
LINE
  5
B8B
330
A02
100
AcDbEntity
  8
View
100
AcDbLine
 10
148.830621356
 20
101.960388920
 30
0.000000000
 11
148.635576830
 21
102.019901272
 31
0.000000000
  0
LINE
  5
B8C
330
A02
100
AcDbEntity
  8
View
100
AcDbLine
 10
149.025665658
 20
101.781851866
 30
0.000000000
 11
148.830621356
 21
101.960388920
 31
0.000000000
  0
LINE
  5
B8D
330
A02
100
AcDbEntity
  8
View
100
AcDbLine
 10
149.142692285
 20
101.543802461
 30
0.000000000
 11
149.025665658
 21
101.781851866
 31
0.000000000
  0
LINE
  5
B8E
330
A02
100
AcDbEntity
  8
View
100
AcDbLine
 10
149.220709961
 20
101.246240621
 30
0.000000000
 11
149.142692285
 21
101.543802461
 31
0.000000000
  0
LINE
  5
B8F
330
A02
100
AcDbEntity
  8
View
100
AcDbLine
 10
149.220709961
 20
101.008191215
 30
0.000000000
 11
149.220709961
 21
101.246240621
 31
0.000000000
  0
LINE
  5
B90
330
A02
100
AcDbEntity
  8
View
100
AcDbLine
 10
149.142692285
 20
100.710629417
 30
0.000000000
 11
149.220709961
 21
101.008191215
 31
0.000000000
  0
LINE
  5
B91
330
A02
100
AcDbEntity
  8
View
100
AcDbLine
 10
149.025665658
 20
100.472579991
 30
0.000000000
 11
149.142692285
 21
100.710629417
 31
0.000000000
  0
LINE
  5
B92
330
A02
100
AcDbEntity
  8
View
100
AcDbLine
 10
148.830621356
 20
100.294042921
 30
0.000000000
 11
149.025665658
 21
100.472579991
 31
0.000000000
  0
LINE
  5
B93
330
A02
100
AcDbEntity
  8
View
100
AcDbLine
 10
148.635576830
 20
100.234530565
 30
0.000000000
 11
148.830621356
 21
100.294042921
 31
0.000000000
  0
LINE
  5
B94
330
A02
100
AcDbEntity
  8
View
100
AcDbLine
 10
148.401523577
 20
100.234530565
 30
0.000000000
 11
148.635576830
 21
100.234530565
 31
0.000000000
  0
LINE
  5
B95
330
A02
100
AcDbEntity
  8
View
100
AcDbLine
 10
148.206479274
 20
100.294042921
 30
0.000000000
 11
148.401523577
 21
100.234530565
 31
0.000000000
  0
LINE
  5
B96
330
A02
100
AcDbEntity
  8
View
100
AcDbLine
 10
148.011434971
 20
100.472579991
 30
0.000000000
 11
148.206479274
 21
100.294042921
 31
0.000000000
  0
LINE
  5
B97
330
A02
100
AcDbEntity
  8
View
100
AcDbLine
 10
147.894408233
 20
100.710629417
 30
0.000000000
 11
148.011434971
 21
100.472579991
 31
0.000000000
  0
LINE
  5
B98
330
A02
100
AcDbEntity
  8
View
100
AcDbLine
 10
147.816390557
 20
100.948678864
 30
0.000000000
 11
147.894408233
 21
100.710629417
 31
0.000000000
  0
LINE
  5
B99
330
A02
100
AcDbEntity
  8
View
100
AcDbLine
 10
148.050443698
 20
100.948678864
 30
0.000000000
 11
147.816390557
 21
100.948678864
 31
0.000000000
  0
LINE
  5
B9A
330
A02
100
AcDbEntity
  8
View
100
AcDbLine
 10
148.128461598
 20
100.710629417
 30
0.000000000
 11
148.050443698
 21
100.948678864
 31
0.000000000
  0
LINE
  5
B9B
330
A02
100
AcDbEntity
  8
View
100
AcDbLine
 10
148.245488224
 20
100.591604714
 30
0.000000000
 11
148.128461598
 21
100.710629417
 31
0.000000000
  0
LINE
  5
B9C
330
A02
100
AcDbEntity
  8
View
100
AcDbLine
 10
148.401523577
 20
100.532092363
 30
0.000000000
 11
148.245488224
 21
100.591604714
 31
0.000000000
  0
LINE
  5
B9D
330
A02
100
AcDbEntity
  8
View
100
AcDbLine
 10
148.635576830
 20
100.532092363
 30
0.000000000
 11
148.401523577
 21
100.532092363
 31
0.000000000
  0
LINE
  5
B9E
330
A02
100
AcDbEntity
  8
View
100
AcDbLine
 10
148.791612406
 20
100.591604714
 30
0.000000000
 11
148.635576830
 21
100.532092363
 31
0.000000000
  0
LINE
  5
B9F
330
A02
100
AcDbEntity
  8
View
100
AcDbLine
 10
148.908639032
 20
100.710629417
 30
0.000000000
 11
148.791612406
 21
100.591604714
 31
0.000000000
  0
LINE
  5
BA0
330
A02
100
AcDbEntity
  8
View
100
AcDbLine
 10
148.986656709
 20
100.889166513
 30
0.000000000
 11
148.908639032
 21
100.710629417
 31
0.000000000
  0
LINE
  5
BA1
330
A02
100
AcDbEntity
  8
View
100
AcDbLine
 10
149.025665658
 20
101.067703567
 30
0.000000000
 11
148.986656709
 21
100.889166513
 31
0.000000000
  0
LINE
  5
BA2
330
A02
100
AcDbEntity
  8
View
100
AcDbLine
 10
149.025665658
 20
101.186728269
 30
0.000000000
 11
149.025665658
 21
101.067703567
 31
0.000000000
  0
LINE
  5
BA3
330
A02
100
AcDbEntity
  8
View
100
AcDbLine
 10
148.986656709
 20
101.365265407
 30
0.000000000
 11
149.025665658
 21
101.186728269
 31
0.000000000
  0
LINE
  5
BA4
330
A02
100
AcDbEntity
  8
View
100
AcDbLine
 10
148.908639032
 20
101.543802461
 30
0.000000000
 11
148.986656709
 21
101.365265407
 31
0.000000000
  0
LINE
  5
BA5
330
A02
100
AcDbEntity
  8
View
100
AcDbLine
 10
148.791612406
 20
101.662827164
 30
0.000000000
 11
148.908639032
 21
101.543802461
 31
0.000000000
  0
LINE
  5
BA6
330
A02
100
AcDbEntity
  8
View
100
AcDbLine
 10
148.635576830
 20
101.722339515
 30
0.000000000
 11
148.791612406
 21
101.662827164
 31
0.000000000
  0
LINE
  5
BA7
330
A02
100
AcDbEntity
  8
View
100
AcDbLine
 10
148.401523577
 20
101.722339515
 30
0.000000000
 11
148.635576830
 21
101.722339515
 31
0.000000000
  0
LINE
  5
BA8
330
A02
100
AcDbEntity
  8
View
100
AcDbLine
 10
148.245488224
 20
101.662827164
 30
0.000000000
 11
148.401523577
 21
101.722339515
 31
0.000000000
  0
LINE
  5
BA9
330
A02
100
AcDbEntity
  8
View
100
AcDbLine
 10
149.532781114
 20
101.900876569
 30
0.000000000
 11
149.532781114
 21
101.365265407
 31
0.000000000
  0
LINE
  5
BAA
330
A02
100
AcDbEntity
  8
View
100
AcDbLine
 10
149.571789840
 20
102.198438326
 30
0.000000000
 11
149.532781114
 21
101.900876569
 31
0.000000000
  0
LINE
  5
BAB
330
A02
100
AcDbEntity
  8
View
100
AcDbLine
 10
149.610798790
 20
102.376975546
 30
0.000000000
 11
149.571789840
 21
102.198438326
 31
0.000000000
  0
LINE
  5
BAC
330
A02
100
AcDbEntity
  8
View
100
AcDbLine
 10
149.688816467
 20
102.615024952
 30
0.000000000
 11
149.610798790
 21
102.376975546
 31
0.000000000
  0
LINE
  5
BAD
330
A02
100
AcDbEntity
  8
View
100
AcDbLine
 10
149.805843093
 20
102.793562006
 30
0.000000000
 11
149.688816467
 21
102.615024952
 31
0.000000000
  0
LINE
  5
BAE
330
A02
100
AcDbEntity
  8
View
100
AcDbLine
 10
150.000887396
 20
102.972099060
 30
0.000000000
 11
149.805843093
 21
102.793562006
 31
0.000000000
  0
LINE
  5
BAF
330
A02
100
AcDbEntity
  8
View
100
AcDbLine
 10
150.234940648
 20
103.031611411
 30
0.000000000
 11
150.000887396
 21
102.972099060
 31
0.000000000
  0
LINE
  5
BB0
330
A02
100
AcDbEntity
  8
View
100
AcDbLine
 10
150.468993901
 20
102.972099060
 30
0.000000000
 11
150.234940648
 21
103.031611411
 31
0.000000000
  0
LINE
  5
BB1
330
A02
100
AcDbEntity
  8
View
100
AcDbLine
 10
150.664038427
 20
102.793562006
 30
0.000000000
 11
150.468993901
 21
102.972099060
 31
0.000000000
  0
LINE
  5
BB2
330
A02
100
AcDbEntity
  8
View
100
AcDbLine
 10
150.781065053
 20
102.615024952
 30
0.000000000
 11
150.664038427
 21
102.793562006
 31
0.000000000
  0
LINE
  5
BB3
330
A02
100
AcDbEntity
  8
View
100
AcDbLine
 10
150.859082953
 20
102.376975546
 30
0.000000000
 11
150.781065053
 21
102.615024952
 31
0.000000000
  0
LINE
  5
BB4
330
A02
100
AcDbEntity
  8
View
100
AcDbLine
 10
150.898091680
 20
102.198438326
 30
0.000000000
 11
150.859082953
 21
102.376975546
 31
0.000000000
  0
LINE
  5
BB5
330
A02
100
AcDbEntity
  8
View
100
AcDbLine
 10
150.937100406
 20
101.900876569
 30
0.000000000
 11
150.898091680
 21
102.198438326
 31
0.000000000
  0
LINE
  5
BB6
330
A02
100
AcDbEntity
  8
View
100
AcDbLine
 10
150.937100406
 20
101.365265407
 30
0.000000000
 11
150.937100406
 21
101.900876569
 31
0.000000000
  0
LINE
  5
BB7
330
A02
100
AcDbEntity
  8
View
100
AcDbLine
 10
150.898091680
 20
101.067703567
 30
0.000000000
 11
150.937100406
 21
101.365265407
 31
0.000000000
  0
LINE
  5
BB8
330
A02
100
AcDbEntity
  8
View
100
AcDbLine
 10
150.859082953
 20
100.889166513
 30
0.000000000
 11
150.898091680
 21
101.067703567
 31
0.000000000
  0
LINE
  5
BB9
330
A02
100
AcDbEntity
  8
View
100
AcDbLine
 10
150.781065053
 20
100.651117066
 30
0.000000000
 11
150.859082953
 21
100.889166513
 31
0.000000000
  0
LINE
  5
BBA
330
A02
100
AcDbEntity
  8
View
100
AcDbLine
 10
150.664038427
 20
100.472579991
 30
0.000000000
 11
150.781065053
 21
100.651117066
 31
0.000000000
  0
LINE
  5
BBB
330
A02
100
AcDbEntity
  8
View
100
AcDbLine
 10
150.468993901
 20
100.294042921
 30
0.000000000
 11
150.664038427
 21
100.472579991
 31
0.000000000
  0
LINE
  5
BBC
330
A02
100
AcDbEntity
  8
View
100
AcDbLine
 10
150.234940648
 20
100.234530565
 30
0.000000000
 11
150.468993901
 21
100.294042921
 31
0.000000000
  0
LINE
  5
BBD
330
A02
100
AcDbEntity
  8
View
100
AcDbLine
 10
150.000887396
 20
100.294042921
 30
0.000000000
 11
150.234940648
 21
100.234530565
 31
0.000000000
  0
LINE
  5
BBE
330
A02
100
AcDbEntity
  8
View
100
AcDbLine
 10
149.805843093
 20
100.472579991
 30
0.000000000
 11
150.000887396
 21
100.294042921
 31
0.000000000
  0
LINE
  5
BBF
330
A02
100
AcDbEntity
  8
View
100
AcDbLine
 10
149.688816467
 20
100.651117066
 30
0.000000000
 11
149.805843093
 21
100.472579991
 31
0.000000000
  0
LINE
  5
BC0
330
A02
100
AcDbEntity
  8
View
100
AcDbLine
 10
149.610798790
 20
100.889166513
 30
0.000000000
 11
149.688816467
 21
100.651117066
 31
0.000000000
  0
LINE
  5
BC1
330
A02
100
AcDbEntity
  8
View
100
AcDbLine
 10
149.571789840
 20
101.067703567
 30
0.000000000
 11
149.610798790
 21
100.889166513
 31
0.000000000
  0
LINE
  5
BC2
330
A02
100
AcDbEntity
  8
View
100
AcDbLine
 10
149.532781114
 20
101.365265407
 30
0.000000000
 11
149.571789840
 21
101.067703567
 31
0.000000000
  0
LINE
  5
BC3
330
A02
100
AcDbEntity
  8
View
100
AcDbLine
 10
149.766834366
 20
102.198438326
 30
0.000000000
 11
149.922869942
 21
102.555512600
 31
0.000000000
  0
LINE
  5
BC4
330
A02
100
AcDbEntity
  8
View
100
AcDbLine
 10
149.922869942
 20
102.555512600
 30
0.000000000
 11
150.039896569
 21
102.674537303
 31
0.000000000
  0
LINE
  5
BC5
330
A02
100
AcDbEntity
  8
View
100
AcDbLine
 10
150.039896569
 20
102.674537303
 30
0.000000000
 11
150.234940648
 21
102.734049655
 31
0.000000000
  0
LINE
  5
BC6
330
A02
100
AcDbEntity
  8
View
100
AcDbLine
 10
150.234940648
 20
102.734049655
 30
0.000000000
 11
150.429985174
 21
102.674537303
 31
0.000000000
  0
LINE
  5
BC7
330
A02
100
AcDbEntity
  8
View
100
AcDbLine
 10
150.429985174
 20
102.674537303
 30
0.000000000
 11
150.547011801
 21
102.555512600
 31
0.000000000
  0
LINE
  5
BC8
330
A02
100
AcDbEntity
  8
View
100
AcDbLine
 10
150.547011801
 20
102.555512600
 30
0.000000000
 11
150.703047154
 21
102.198438326
 31
0.000000000
  0
LINE
  5
BC9
330
A02
100
AcDbEntity
  8
View
100
AcDbLine
 10
150.703047154
 20
102.198438326
 30
0.000000000
 11
150.742056327
 21
101.841364218
 31
0.000000000
  0
LINE
  5
BCA
330
A02
100
AcDbEntity
  8
View
100
AcDbLine
 10
150.742056327
 20
101.841364218
 30
0.000000000
 11
150.742056327
 21
101.424777758
 31
0.000000000
  0
LINE
  5
BCB
330
A02
100
AcDbEntity
  8
View
100
AcDbLine
 10
150.742056327
 20
101.424777758
 30
0.000000000
 11
150.703047154
 21
101.067703567
 31
0.000000000
  0
LINE
  5
BCC
330
A02
100
AcDbEntity
  8
View
100
AcDbLine
 10
150.703047154
 20
101.067703567
 30
0.000000000
 11
150.547011801
 21
100.710629417
 31
0.000000000
  0
LINE
  5
BCD
330
A02
100
AcDbEntity
  8
View
100
AcDbLine
 10
150.547011801
 20
100.710629417
 30
0.000000000
 11
150.429985174
 21
100.591604714
 31
0.000000000
  0
LINE
  5
BCE
330
A02
100
AcDbEntity
  8
View
100
AcDbLine
 10
150.429985174
 20
100.591604714
 30
0.000000000
 11
150.234940648
 21
100.532092363
 31
0.000000000
  0
LINE
  5
BCF
330
A02
100
AcDbEntity
  8
View
100
AcDbLine
 10
150.234940648
 20
100.532092363
 30
0.000000000
 11
150.039896569
 21
100.591604714
 31
0.000000000
  0
LINE
  5
BD0
330
A02
100
AcDbEntity
  8
View
100
AcDbLine
 10
150.039896569
 20
100.591604714
 30
0.000000000
 11
149.922869942
 21
100.710629417
 31
0.000000000
  0
LINE
  5
BD1
330
A02
100
AcDbEntity
  8
View
100
AcDbLine
 10
149.922869942
 20
100.710629417
 30
0.000000000
 11
149.766834366
 21
101.067703567
 31
0.000000000
  0
LINE
  5
BD2
330
A02
100
AcDbEntity
  8
View
100
AcDbLine
 10
149.766834366
 20
101.067703567
 30
0.000000000
 11
149.727825416
 21
101.424777758
 31
0.000000000
  0
LINE
  5
BD3
330
A02
100
AcDbEntity
  8
View
100
AcDbLine
 10
149.727825416
 20
101.424777758
 30
0.000000000
 11
149.727825416
 21
101.841364218
 31
0.000000000
  0
LINE
  5
BD4
330
A02
100
AcDbEntity
  8
View
100
AcDbLine
 10
149.727825416
 20
101.841364218
 30
0.000000000
 11
149.766834366
 21
102.198438326
 31
0.000000000
  0
LINE
  5
BD5
330
A02
100
AcDbEntity
  8
View
100
AcDbLine
 10
151.561031076
 20
103.432349165
 30
0.000000000
 11
151.760178434
 21
103.464044585
 31
0.000000000
  0
LINE
  5
BD6
330
A02
100
AcDbEntity
  8
View
100
AcDbLine
 10
151.494648623
 20
103.464044585
 30
0.000000000
 11
151.561031076
 21
103.432349165
 31
0.000000000
  0
LINE
  5
BD7
330
A02
100
AcDbEntity
  8
View
100
AcDbLine
 10
151.760178434
 20
103.495740004
 30
0.000000000
 11
151.494648623
 21
103.464044585
 31
0.000000000
  0
LINE
  5
BD8
330
A02
100
AcDbEntity
  8
View
100
AcDbLine
 10
152.291238032
 20
103.432349165
 30
0.000000000
 11
151.760178434
 21
103.495740004
 31
0.000000000
  0
LINE
  5
BD9
330
A02
100
AcDbEntity
  8
View
100
AcDbLine
 10
152.556767866
 20
103.464044585
 30
0.000000000
 11
152.291238032
 21
103.432349165
 31
0.000000000
  0
LINE
  5
BDA
330
A02
100
AcDbEntity
  8
View
100
AcDbLine
 10
152.623150253
 20
103.432349165
 30
0.000000000
 11
152.556767866
 21
103.464044585
 31
0.000000000
  0
LINE
  5
BDB
330
A02
100
AcDbEntity
  8
View
100
AcDbLine
 10
152.291238032
 20
103.400653745
 30
0.000000000
 11
152.623150253
 21
103.432349165
 31
0.000000000
  0
LINE
  5
BDC
330
A02
100
AcDbEntity
  8
View
100
AcDbLine
 10
151.760178434
 20
103.464044585
 30
0.000000000
 11
152.291238032
 21
103.400653745
 31
0.000000000
  0
LINE
  5
BDD
330
A02
100
AcDbEntity
  8
View
100
AcDbLine
 10
144.497700000
 20
105.717800000
 30
0.000000000
 11
138.497700000
 21
105.717800000
 31
0.000000000
  0
LINE
  5
BDE
330
A02
100
AcDbEntity
  8
View
100
AcDbLine
 10
145.500000000
 20
115.580000000
 30
0.000000000
 11
151.500000000
 21
115.580000000
 31
0.000000000
  0
LINE
  5
BDF
330
A02
100
AcDbEntity
  8
View
100
AcDbLine
 10
158.497700000
 20
105.717800000
 30
0.000000000
 11
152.497700000
 21
105.717800000
 31
0.000000000
  0
LINE
  5
BE0
330
A02
100
AcDbEntity
  8
View
100
AcDbLine
 10
144.016750000
 20
93.426000000
 30
0.000000000
 11
138.016750000
 21
93.426000000
 31
0.000000000
  0
LINE
  5
BE1
330
A02
100
AcDbEntity
  8
View
100
AcDbLine
 10
159.016750000
 20
93.426000000
 30
0.000000000
 11
153.016750000
 21
93.426000000
 31
0.000000000
  0
ENDSEC
  0
SECTION
  2
OBJECTS
  0
DICTIONARY
  5
F000
330
0
100
AcDbDictionary
  3
ACAD_GROUP
350
F001
  0
DICTIONARY
  5
F001
330
F000
100
AcDbDictionary
  0
ENDSEC
  0
EOF