ISO-10303-21;
HEADER;
/****************************************************************
 * Generated by software with PDElib inside                    *
 * PDElib Version v51a, created Tue 11/30/2010                  *
 * ITI Transcendata (http://www.transcendata.com/)              *
 ****************************************************************/
FILE_DESCRIPTION((''),'2;1');
FILE_NAME('O:\\Internetdaten\\f.cool\\Kapitel A\\Transistorhaltefedern\\STEP\\THF_104.stp','2013-06-28T10:06:08',('Lochen'),(''),'Autodesk Inventor 2012','Autodesk Inventor 2012','');
FILE_SCHEMA(('AUTOMOTIVE_DESIGN { 1 0 10303 214 1 1 1 1 }'));
ENDSEC;
DATA;
#5=APPLICATION_CONTEXT('automotive design');
#6=APPLICATION_PROTOCOL_DEFINITION('International Standard','automotive_design',2001,#5);
#7=PRODUCT_CONTEXT('',#5,'mechanical');
#8=PRODUCT('THF_104','THF_104',$,(#7));
#9=PRODUCT_RELATED_PRODUCT_CATEGORY('part',$,(#8));
#10=PRODUCT_DEFINITION_FORMATION('',$,#8);
#11=PRODUCT_DEFINITION_CONTEXT('part definition',#5,'design');
#12=PRODUCT_DEFINITION('',$,#10,#11);
#18=(NAMED_UNIT(*)PLANE_ANGLE_UNIT()SI_UNIT($,.RADIAN.));
#19=DIMENSIONAL_EXPONENTS(0.0,0.0,0.0,0.0,0.0,0.0,0.0);
#20=PLANE_ANGLE_MEASURE_WITH_UNIT(PLANE_ANGLE_MEASURE(0.0174532925),#18);
#24=(CONVERSION_BASED_UNIT('DEGREE',#20)NAMED_UNIT(#19)PLANE_ANGLE_UNIT());
#28=(NAMED_UNIT(*)SI_UNIT($,.STERADIAN.)SOLID_ANGLE_UNIT());
#32=(LENGTH_UNIT()NAMED_UNIT(*)SI_UNIT(.MILLI.,.METRE.));
#34=UNCERTAINTY_MEASURE_WITH_UNIT(LENGTH_MEASURE(0.01),#32,'DISTANCE_ACCURACY_VALUE','');
#36=(GEOMETRIC_REPRESENTATION_CONTEXT(3)GLOBAL_UNCERTAINTY_ASSIGNED_CONTEXT((#34))GLOBAL_UNIT_ASSIGNED_CONTEXT((#24,#28,#32))REPRESENTATION_CONTEXT('None','None'));
#37=AXIS2_PLACEMENT_3D('',#38,#39,#40);
#38=CARTESIAN_POINT('',(0.0,0.0,0.0));
#39=DIRECTION('',(0.0,0.0,1.0));
#40=DIRECTION('',(1.0,0.0,0.0));
#41=SHAPE_REPRESENTATION('',(#37),#36);
#42=PRODUCT_DEFINITION_SHAPE('','',#12);
#43=SHAPE_DEFINITION_REPRESENTATION(#42,#41);
#49=(NAMED_UNIT(*)PLANE_ANGLE_UNIT()SI_UNIT($,.RADIAN.));
#50=DIMENSIONAL_EXPONENTS(0.0,0.0,0.0,0.0,0.0,0.0,0.0);
#51=PLANE_ANGLE_MEASURE_WITH_UNIT(PLANE_ANGLE_MEASURE(0.0174532925),#49);
#55=(CONVERSION_BASED_UNIT('DEGREE',#51)NAMED_UNIT(#50)PLANE_ANGLE_UNIT());
#59=(NAMED_UNIT(*)SI_UNIT($,.STERADIAN.)SOLID_ANGLE_UNIT());
#63=(LENGTH_UNIT()NAMED_UNIT(*)SI_UNIT(.MILLI.,.METRE.));
#65=UNCERTAINTY_MEASURE_WITH_UNIT(LENGTH_MEASURE(0.000001),#63,'DISTANCE_ACCURACY_VALUE','');
#67=(GEOMETRIC_REPRESENTATION_CONTEXT(3)GLOBAL_UNCERTAINTY_ASSIGNED_CONTEXT((#65))GLOBAL_UNIT_ASSIGNED_CONTEXT((#55,#59,#63))REPRESENTATION_CONTEXT('','3D'));
#68=CARTESIAN_POINT('',(17.487014717095903,-4.24761199898367,0.0));
#69=DIRECTION('',(-0.601815023152048,-0.798635510047293,0.0));
#70=DIRECTION('',(0.0,0.0,1.0));
#71=AXIS2_PLACEMENT_3D('',#68,#69,#70);
#72=PLANE('',#71);
#73=CARTESIAN_POINT('',(17.487014717095903,-4.24761199898367,4.0));
#74=VERTEX_POINT('',#73);
#75=CARTESIAN_POINT('',(15.661276013243901,-2.871819204266561,4.0));
#76=VERTEX_POINT('',#75);
#77=CARTESIAN_POINT('',(17.487014717095903,-4.24761199898367,4.0));
#78=DIRECTION('',(-0.798635510047291,0.601815023152051,0.0));
#79=VECTOR('',#78,2.286072533569024);
#80=LINE('',#77,#79);
#81=EDGE_CURVE('',#74,#76,#80,.T.);
#82=ORIENTED_EDGE('',*,*,#81,.T.);
#83=CARTESIAN_POINT('',(15.661276013243901,-2.871819204266561,0.0));
#84=VERTEX_POINT('',#83);
#85=CARTESIAN_POINT('',(15.661276013243901,-2.871819204266561,0.0));
#86=DIRECTION('',(0.0,0.0,1.0));
#87=VECTOR('',#86,4.0);
#88=LINE('',#85,#87);
#89=EDGE_CURVE('',#84,#76,#88,.T.);
#90=ORIENTED_EDGE('',*,*,#89,.F.);
#91=CARTESIAN_POINT('',(17.487014717095903,-4.24761199898367,0.0));
#92=VERTEX_POINT('',#91);
#93=CARTESIAN_POINT('',(15.661276013243901,-2.871819204266561,0.0));
#94=DIRECTION('',(0.798635510047291,-0.601815023152051,0.0));
#95=VECTOR('',#94,2.286072533569026);
#96=LINE('',#93,#95);
#97=EDGE_CURVE('',#84,#92,#96,.T.);
#98=ORIENTED_EDGE('',*,*,#97,.T.);
#99=CARTESIAN_POINT('',(17.487014717095903,-4.24761199898367,0.0));
#100=DIRECTION('',(0.0,0.0,1.0));
#101=VECTOR('',#100,4.0);
#102=LINE('',#99,#101);
#103=EDGE_CURVE('',#92,#74,#102,.T.);
#104=ORIENTED_EDGE('',*,*,#103,.T.);
#105=EDGE_LOOP('',(#82,#90,#98,#104));
#106=FACE_OUTER_BOUND('',#105,.T.);
#107=ADVANCED_FACE('',(#106),#72,.T.);
#108=CARTESIAN_POINT('',(15.661276013243901,-2.871819204266561,0.0));
#109=DIRECTION('',(-0.798635510045549,0.601815023154363,0.0));
#110=DIRECTION('',(0.0,0.0,1.0));
#111=AXIS2_PLACEMENT_3D('',#108,#109,#110);
#112=PLANE('',#111);
#113=CARTESIAN_POINT('',(15.962183524821096,-2.47250144924378,4.0));
#114=VERTEX_POINT('',#113);
#115=CARTESIAN_POINT('',(15.661276013243901,-2.871819204266561,4.0));
#116=DIRECTION('',(0.601815023154375,0.79863551004554,0.0));
#117=VECTOR('',#116,0.500000000000013);
#118=LINE('',#115,#117);
#119=EDGE_CURVE('',#76,#114,#118,.T.);
#120=ORIENTED_EDGE('',*,*,#119,.T.);
#121=CARTESIAN_POINT('',(15.962183524821096,-2.47250144924378,0.0));
#122=VERTEX_POINT('',#121);
#123=CARTESIAN_POINT('',(15.962183524821096,-2.47250144924378,0.0));
#124=DIRECTION('',(0.0,0.0,1.0));
#125=VECTOR('',#124,4.0);
#126=LINE('',#123,#125);
#127=EDGE_CURVE('',#122,#114,#126,.T.);
#128=ORIENTED_EDGE('',*,*,#127,.F.);
#129=CARTESIAN_POINT('',(15.962183524821096,-2.47250144924378,0.0));
#130=DIRECTION('',(-0.601815023154375,-0.79863551004554,0.0));
#131=VECTOR('',#130,0.500000000000013);
#132=LINE('',#129,#131);
#133=EDGE_CURVE('',#122,#84,#132,.T.);
#134=ORIENTED_EDGE('',*,*,#133,.T.);
#135=ORIENTED_EDGE('',*,*,#89,.T.);
#136=EDGE_LOOP('',(#120,#128,#134,#135));
#137=FACE_OUTER_BOUND('',#136,.T.);
#138=ADVANCED_FACE('',(#137),#112,.T.);
#139=CARTESIAN_POINT('',(15.962183524821096,-2.47250144924378,0.0));
#140=DIRECTION('',(0.601815023152051,0.798635510047291,0.0));
#141=DIRECTION('',(0.0,0.0,-1.0));
#142=AXIS2_PLACEMENT_3D('',#139,#140,#141);
#143=PLANE('',#142);
#144=CARTESIAN_POINT('',(17.787922228671899,-3.84829424396002,4.0));
#145=VERTEX_POINT('',#144);
#146=CARTESIAN_POINT('',(15.962183524821096,-2.47250144924378,4.0));
#147=DIRECTION('',(0.798635510047284,-0.60181502315206,0.0));
#148=VECTOR('',#147,2.286072533567545);
#149=LINE('',#146,#148);
#150=EDGE_CURVE('',#114,#145,#149,.T.);
#151=ORIENTED_EDGE('',*,*,#150,.T.);
#152=CARTESIAN_POINT('',(17.787922228671899,-3.84829424396002,0.0));
#153=VERTEX_POINT('',#152);
#154=CARTESIAN_POINT('',(17.787922228671899,-3.84829424396002,0.0));
#155=DIRECTION('',(0.0,0.0,1.0));
#156=VECTOR('',#155,4.0);
#157=LINE('',#154,#156);
#158=EDGE_CURVE('',#153,#145,#157,.T.);
#159=ORIENTED_EDGE('',*,*,#158,.F.);
#160=CARTESIAN_POINT('',(17.787922228671899,-3.84829424396002,0.0));
#161=DIRECTION('',(-0.798635510047284,0.60181502315206,0.0));
#162=VECTOR('',#161,2.286072533567545);
#163=LINE('',#160,#162);
#164=EDGE_CURVE('',#153,#122,#163,.T.);
#165=ORIENTED_EDGE('',*,*,#164,.T.);
#166=ORIENTED_EDGE('',*,*,#127,.T.);
#167=EDGE_LOOP('',(#151,#159,#165,#166));
#168=FACE_OUTER_BOUND('',#167,.T.);
#169=ADVANCED_FACE('',(#168),#143,.T.);
#170=CARTESIAN_POINT('',(18.149011242563198,-3.36911293793164,2.0));
#171=DIRECTION('',(0.0,0.0,1.0));
#172=DIRECTION('',(0.601815023152025,0.79863551004731,0.0));
#173=AXIS2_PLACEMENT_3D('',#170,#171,#172);
#174=CYLINDRICAL_SURFACE('',#173,0.599999999999979);
#175=CARTESIAN_POINT('',(18.744443075986698,-3.295214820594881,4.0));
#176=VERTEX_POINT('',#175);
#177=CARTESIAN_POINT('',(18.149011242563198,-3.36911293793164,4.0));
#178=DIRECTION('',(0.0,0.0,1.0));
#179=DIRECTION('',(0.601815023152039,0.7986355100473,0.0));
#180=AXIS2_PLACEMENT_3D('',#177,#178,#179);
#181=CIRCLE('',#180,0.599999999999996);
#182=EDGE_CURVE('',#145,#176,#181,.T.);
#183=ORIENTED_EDGE('',*,*,#182,.T.);
#184=CARTESIAN_POINT('',(18.744443075986698,-3.295214820594881,0.0));
#185=VERTEX_POINT('',#184);
#186=CARTESIAN_POINT('',(18.744443075986698,-3.295214820594881,0.0));
#187=DIRECTION('',(0.0,0.0,1.0));
#188=VECTOR('',#187,4.0);
#189=LINE('',#186,#188);
#190=EDGE_CURVE('',#185,#176,#189,.T.);
#191=ORIENTED_EDGE('',*,*,#190,.F.);
#192=CARTESIAN_POINT('',(18.149011242563198,-3.36911293793164,0.0));
#193=DIRECTION('',(0.0,0.0,-1.0));
#194=DIRECTION('',(0.601815023152039,0.7986355100473,0.0));
#195=AXIS2_PLACEMENT_3D('',#192,#193,#194);
#196=CIRCLE('',#195,0.599999999999996);
#197=EDGE_CURVE('',#185,#153,#196,.T.);
#198=ORIENTED_EDGE('',*,*,#197,.T.);
#199=ORIENTED_EDGE('',*,*,#158,.T.);
#200=EDGE_LOOP('',(#183,#191,#198,#199));
#201=FACE_OUTER_BOUND('',#200,.T.);
#202=ADVANCED_FACE('',(#201),#174,.F.);
#203=CARTESIAN_POINT('',(18.744443075986698,-3.295214820594881,0.0));
#204=DIRECTION('',(-0.992386389039179,-0.123163528894632,0.0));
#205=DIRECTION('',(0.0,0.0,1.0));
#206=AXIS2_PLACEMENT_3D('',#203,#204,#205);
#207=PLANE('',#206);
#208=CARTESIAN_POINT('',(18.385917576523401,-0.406406510342416,4.0));
#209=VERTEX_POINT('',#208);
#210=CARTESIAN_POINT('',(18.744443075986698,-3.295214820594881,4.0));
#211=DIRECTION('',(-0.123163528894638,0.992386389039179,0.0));
#212=VECTOR('',#211,2.910971313350426);
#213=LINE('',#210,#212);
#214=EDGE_CURVE('',#176,#209,#213,.T.);
#215=ORIENTED_EDGE('',*,*,#214,.T.);
#216=CARTESIAN_POINT('',(18.385917576523401,-0.406406510342416,0.0));
#217=VERTEX_POINT('',#216);
#218=CARTESIAN_POINT('',(18.385917576523401,-0.406406510342416,0.0));
#219=DIRECTION('',(0.0,0.0,1.0));
#220=VECTOR('',#219,4.0);
#221=LINE('',#218,#220);
#222=EDGE_CURVE('',#217,#209,#221,.T.);
#223=ORIENTED_EDGE('',*,*,#222,.F.);
#224=CARTESIAN_POINT('',(18.385917576523401,-0.406406510342416,0.0));
#225=DIRECTION('',(0.123163528894638,-0.992386389039179,0.0));
#226=VECTOR('',#225,2.910971313350426);
#227=LINE('',#224,#226);
#228=EDGE_CURVE('',#217,#185,#227,.T.);
#229=ORIENTED_EDGE('',*,*,#228,.T.);
#230=ORIENTED_EDGE('',*,*,#190,.T.);
#231=EDGE_LOOP('',(#215,#223,#229,#230));
#232=FACE_OUTER_BOUND('',#231,.T.);
#233=ADVANCED_FACE('',(#232),#207,.T.);
#234=CARTESIAN_POINT('',(15.111042492694102,-0.812846155694715,2.0));
#235=DIRECTION('',(0.0,0.0,1.0));
#236=DIRECTION('',(-0.992386389039179,-0.123163528894634,0.0));
#237=AXIS2_PLACEMENT_3D('',#234,#235,#236);
#238=CYLINDRICAL_SURFACE('',#237,3.300000000000013);
#239=CARTESIAN_POINT('',(15.274900333307901,2.48308324404512,4.0));
#240=VERTEX_POINT('',#239);
#241=CARTESIAN_POINT('',(15.1110424926941,-0.812846155694715,4.0));
#242=DIRECTION('',(0.0,0.0,1.0));
#243=DIRECTION('',(-0.992386389039179,-0.123163528894636,0.0));
#244=AXIS2_PLACEMENT_3D('',#241,#242,#243);
#245=CIRCLE('',#244,3.299999999999999);
#246=EDGE_CURVE('',#209,#240,#245,.T.);
#247=ORIENTED_EDGE('',*,*,#246,.T.);
#248=CARTESIAN_POINT('',(15.274900333307901,2.48308324404512,0.0));
#249=VERTEX_POINT('',#248);
#250=CARTESIAN_POINT('',(15.274900333307901,2.48308324404512,0.0));
#251=DIRECTION('',(0.0,0.0,1.0));
#252=VECTOR('',#251,4.0);
#253=LINE('',#250,#252);
#254=EDGE_CURVE('',#249,#240,#253,.T.);
#255=ORIENTED_EDGE('',*,*,#254,.F.);
#256=CARTESIAN_POINT('',(15.1110424926941,-0.812846155694715,0.0));
#257=DIRECTION('',(0.0,0.0,-1.0));
#258=DIRECTION('',(-0.992386389039179,-0.123163528894636,0.0));
#259=AXIS2_PLACEMENT_3D('',#256,#257,#258);
#260=CIRCLE('',#259,3.300000000000004);
#261=EDGE_CURVE('',#249,#217,#260,.T.);
#262=ORIENTED_EDGE('',*,*,#261,.T.);
#263=ORIENTED_EDGE('',*,*,#222,.T.);
#264=EDGE_LOOP('',(#247,#255,#262,#263));
#265=FACE_OUTER_BOUND('',#264,.T.);
#266=ADVANCED_FACE('',(#265),#238,.F.);
#267=CARTESIAN_POINT('',(15.274900333307901,2.48308324404512,0.0));
#268=DIRECTION('',(-0.049653891095073,-0.998766484769648,0.0));
#269=DIRECTION('',(0.0,0.0,-1.0));
#270=AXIS2_PLACEMENT_3D('',#267,#268,#269);
#271=PLANE('',#270);
#272=CARTESIAN_POINT('',(6.472340471049419,2.92070440517094,4.0));
#273=VERTEX_POINT('',#272);
#274=CARTESIAN_POINT('',(15.274900333307901,2.48308324404512,4.0));
#275=DIRECTION('',(-0.998766484769647,0.049653891095073,0.0));
#276=VECTOR('',#275,8.813431364077738);
#277=LINE('',#274,#276);
#278=EDGE_CURVE('',#240,#273,#277,.T.);
#279=ORIENTED_EDGE('',*,*,#278,.T.);
#280=CARTESIAN_POINT('',(6.472340471049419,2.92070440517094,0.0));
#281=VERTEX_POINT('',#280);
#282=CARTESIAN_POINT('',(6.472340471049419,2.92070440517094,0.0));
#283=DIRECTION('',(0.0,0.0,1.0));
#284=VECTOR('',#283,4.0);
#285=LINE('',#282,#284);
#286=EDGE_CURVE('',#281,#273,#285,.T.);
#287=ORIENTED_EDGE('',*,*,#286,.F.);
#288=CARTESIAN_POINT('',(6.472340471049419,2.92070440517094,0.0));
#289=DIRECTION('',(0.998766484769647,-0.049653891095073,0.0));
#290=VECTOR('',#289,8.813431364077738);
#291=LINE('',#288,#290);
#292=EDGE_CURVE('',#281,#249,#291,.T.);
#293=ORIENTED_EDGE('',*,*,#292,.T.);
#294=ORIENTED_EDGE('',*,*,#254,.T.);
#295=EDGE_LOOP('',(#279,#287,#293,#294));
#296=FACE_OUTER_BOUND('',#295,.T.);
#297=ADVANCED_FACE('',(#296),#271,.T.);
#298=CARTESIAN_POINT('',(6.39785963440681,1.42255467801647,2.0));
#299=DIRECTION('',(0.0,0.0,1.0));
#300=DIRECTION('',(-0.04965389109508,-0.998766484769647,0.0));
#301=AXIS2_PLACEMENT_3D('',#298,#299,#300);
#302=CYLINDRICAL_SURFACE('',#301,1.500000000000004);
#303=CARTESIAN_POINT('',(5.2463189664959,2.38377998466799,4.0));
#304=VERTEX_POINT('',#303);
#305=CARTESIAN_POINT('',(6.39785963440681,1.42255467801647,4.0));
#306=DIRECTION('',(0.0,0.0,1.0));
#307=DIRECTION('',(-0.049653891095076,-0.998766484769647,0.0));
#308=AXIS2_PLACEMENT_3D('',#305,#306,#307);
#309=CIRCLE('',#308,1.5);
#310=EDGE_CURVE('',#273,#304,#309,.T.);
#311=ORIENTED_EDGE('',*,*,#310,.T.);
#312=CARTESIAN_POINT('',(5.2463189664959,2.38377998466799,0.0));
#313=VERTEX_POINT('',#312);
#314=CARTESIAN_POINT('',(5.2463189664959,2.38377998466799,0.0));
#315=DIRECTION('',(0.0,0.0,1.0));
#316=VECTOR('',#315,4.0);
#317=LINE('',#314,#316);
#318=EDGE_CURVE('',#313,#304,#317,.T.);
#319=ORIENTED_EDGE('',*,*,#318,.F.);
#320=CARTESIAN_POINT('',(6.39785963440681,1.42255467801647,0.0));
#321=DIRECTION('',(0.0,0.0,-1.0));
#322=DIRECTION('',(-0.049653891095076,-0.998766484769647,0.0));
#323=AXIS2_PLACEMENT_3D('',#320,#321,#322);
#324=CIRCLE('',#323,1.500000000000001);
#325=EDGE_CURVE('',#313,#281,#324,.T.);
#326=ORIENTED_EDGE('',*,*,#325,.T.);
#327=ORIENTED_EDGE('',*,*,#286,.T.);
#328=EDGE_LOOP('',(#311,#319,#326,#327));
#329=FACE_OUTER_BOUND('',#328,.T.);
#330=ADVANCED_FACE('',(#329),#302,.F.);
#331=CARTESIAN_POINT('',(5.2463189664959,2.38377998466799,0.0));
#332=DIRECTION('',(0.767693778607263,-0.640816871101021,0.0));
#333=DIRECTION('',(0.0,0.0,-1.0));
#334=AXIS2_PLACEMENT_3D('',#331,#332,#333);
#335=PLANE('',#334);
#336=CARTESIAN_POINT('',(1.91923444651817,-1.60204217775255,4.0));
#337=VERTEX_POINT('',#336);
#338=CARTESIAN_POINT('',(5.2463189664959,2.38377998466799,4.0));
#339=DIRECTION('',(-0.640816871101021,-0.767693778607263,0.0));
#340=VECTOR('',#339,5.191942768705968);
#341=LINE('',#338,#340);
#342=EDGE_CURVE('',#304,#337,#341,.T.);
#343=ORIENTED_EDGE('',*,*,#342,.T.);
#344=CARTESIAN_POINT('',(1.91923444651817,-1.60204217775255,0.0));
#345=VERTEX_POINT('',#344);
#346=CARTESIAN_POINT('',(1.91923444651817,-1.60204217775255,0.0));
#347=DIRECTION('',(0.0,0.0,1.0));
#348=VECTOR('',#347,4.0);
#349=LINE('',#346,#348);
#350=EDGE_CURVE('',#345,#337,#349,.T.);
#351=ORIENTED_EDGE('',*,*,#350,.F.);
#352=CARTESIAN_POINT('',(1.91923444651817,-1.60204217775255,0.0));
#353=DIRECTION('',(0.640816871101021,0.767693778607263,0.0));
#354=VECTOR('',#353,5.191942768705968);
#355=LINE('',#352,#354);
#356=EDGE_CURVE('',#345,#313,#355,.T.);
#357=ORIENTED_EDGE('',*,*,#356,.T.);
#358=ORIENTED_EDGE('',*,*,#318,.T.);
#359=EDGE_LOOP('',(#343,#351,#357,#358));
#360=FACE_OUTER_BOUND('',#359,.T.);
#361=ADVANCED_FACE('',(#360),#335,.T.);
#362=CARTESIAN_POINT('',(0.0,0.0,0.0));
#363=DIRECTION('',(0.0,0.0,1.0));
#364=DIRECTION('',(-0.761359027284546,-0.648330495636546,0.0));
#365=AXIS2_PLACEMENT_3D('',#362,#363,#364);
#366=CYLINDRICAL_SURFACE('',#365,2.5);
#367=CARTESIAN_POINT('',(-1.90339756821137,-1.62082623909137,4.0));
#368=VERTEX_POINT('',#367);
#369=CARTESIAN_POINT('',(0.0,0.0,4.0));
#370=DIRECTION('',(0.0,0.0,-1.0));
#371=DIRECTION('',(-0.761359027284546,-0.648330495636546,0.0));
#372=AXIS2_PLACEMENT_3D('',#369,#370,#371);
#373=CIRCLE('',#372,2.500000000000002);
#374=EDGE_CURVE('',#337,#368,#373,.T.);
#375=ORIENTED_EDGE('',*,*,#374,.T.);
#376=CARTESIAN_POINT('',(-1.90339756821137,-1.62082623909137,0.0));
#377=VERTEX_POINT('',#376);
#378=CARTESIAN_POINT('',(-1.90339756821137,-1.62082623909137,0.0));
#379=DIRECTION('',(0.0,0.0,1.0));
#380=VECTOR('',#379,4.0);
#381=LINE('',#378,#380);
#382=EDGE_CURVE('',#377,#368,#381,.T.);
#383=ORIENTED_EDGE('',*,*,#382,.F.);
#384=CARTESIAN_POINT('',(0.0,0.0,0.0));
#385=DIRECTION('',(0.0,0.0,1.0));
#386=DIRECTION('',(-0.761359027284546,-0.648330495636546,0.0));
#387=AXIS2_PLACEMENT_3D('',#384,#385,#386);
#388=CIRCLE('',#387,2.5);
#389=EDGE_CURVE('',#377,#345,#388,.T.);
#390=ORIENTED_EDGE('',*,*,#389,.T.);
#391=ORIENTED_EDGE('',*,*,#350,.T.);
#392=EDGE_LOOP('',(#375,#383,#390,#391));
#393=FACE_OUTER_BOUND('',#392,.T.);
#394=ADVANCED_FACE('',(#393),#366,.T.);
#395=CARTESIAN_POINT('',(-1.90339756821137,-1.62082623909137,0.0));
#396=DIRECTION('',(-0.76135902728455,-0.648330495636541,0.0));
#397=DIRECTION('',(0.0,0.0,1.0));
#398=AXIS2_PLACEMENT_3D('',#395,#396,#397);
#399=PLANE('',#398);
#400=CARTESIAN_POINT('',(-5.270923066651622,2.33378634677984,4.0));
#401=VERTEX_POINT('',#400);
#402=CARTESIAN_POINT('',(-1.90339756821137,-1.62082623909137,4.0));
#403=DIRECTION('',(-0.648330495636542,0.76135902728455,0.0));
#404=VECTOR('',#403,5.194149467138604);
#405=LINE('',#402,#404);
#406=EDGE_CURVE('',#368,#401,#405,.T.);
#407=ORIENTED_EDGE('',*,*,#406,.T.);
#408=CARTESIAN_POINT('',(-5.270923066651622,2.33378634677984,0.0));
#409=VERTEX_POINT('',#408);
#410=CARTESIAN_POINT('',(-5.270923066651622,2.33378634677984,0.0));
#411=DIRECTION('',(0.0,0.0,1.0));
#412=VECTOR('',#411,4.0);
#413=LINE('',#410,#412);
#414=EDGE_CURVE('',#409,#401,#413,.T.);
#415=ORIENTED_EDGE('',*,*,#414,.F.);
#416=CARTESIAN_POINT('',(-5.270923066651622,2.33378634677984,0.0));
#417=DIRECTION('',(0.648330495636542,-0.76135902728455,0.0));
#418=VECTOR('',#417,5.194149467138604);
#419=LINE('',#416,#418);
#420=EDGE_CURVE('',#409,#377,#419,.T.);
#421=ORIENTED_EDGE('',*,*,#420,.T.);
#422=ORIENTED_EDGE('',*,*,#382,.T.);
#423=EDGE_LOOP('',(#407,#415,#421,#422));
#424=FACE_OUTER_BOUND('',#423,.T.);
#425=ADVANCED_FACE('',(#424),#399,.T.);
#426=CARTESIAN_POINT('',(-6.41296160757845,1.361290603325041,2.0));
#427=DIRECTION('',(0.0,0.0,1.0));
#428=DIRECTION('',(-0.76135902728455,-0.648330495636542,0.0));
#429=AXIS2_PLACEMENT_3D('',#426,#427,#428);
#430=CYLINDRICAL_SURFACE('',#429,1.499999999999993);
#431=CARTESIAN_POINT('',(-6.49614826586093,2.858982153639651,4.0));
#432=VERTEX_POINT('',#431);
#433=CARTESIAN_POINT('',(-6.41296160757845,1.36129060332504,4.0));
#434=DIRECTION('',(0.0,0.0,1.0));
#435=DIRECTION('',(-0.761359027284552,-0.648330495636539,0.0));
#436=AXIS2_PLACEMENT_3D('',#433,#434,#435);
#437=CIRCLE('',#436,1.5);
#438=EDGE_CURVE('',#401,#432,#437,.T.);
#439=ORIENTED_EDGE('',*,*,#438,.T.);
#440=CARTESIAN_POINT('',(-6.49614826586093,2.858982153639651,0.0));
#441=VERTEX_POINT('',#440);
#442=CARTESIAN_POINT('',(-6.49614826586093,2.858982153639651,0.0));
#443=DIRECTION('',(0.0,0.0,1.0));
#444=VECTOR('',#443,4.0);
#445=LINE('',#442,#444);
#446=EDGE_CURVE('',#441,#432,#445,.T.);
#447=ORIENTED_EDGE('',*,*,#446,.F.);
#448=CARTESIAN_POINT('',(-6.41296160757845,1.36129060332504,0.0));
#449=DIRECTION('',(0.0,0.0,-1.0));
#450=DIRECTION('',(-0.761359027284552,-0.648330495636539,0.0));
#451=AXIS2_PLACEMENT_3D('',#448,#449,#450);
#452=CIRCLE('',#451,1.499999999999998);
#453=EDGE_CURVE('',#441,#409,#452,.T.);
#454=ORIENTED_EDGE('',*,*,#453,.T.);
#455=ORIENTED_EDGE('',*,*,#414,.T.);
#456=EDGE_LOOP('',(#439,#447,#454,#455));
#457=FACE_OUTER_BOUND('',#456,.T.);
#458=ADVANCED_FACE('',(#457),#430,.F.);
#459=CARTESIAN_POINT('',(-6.49614826586093,2.858982153639651,0.0));
#460=DIRECTION('',(0.055457772188326,-0.998461033543076,0.0));
#461=DIRECTION('',(0.0,0.0,-1.0));
#462=AXIS2_PLACEMENT_3D('',#459,#460,#461);
#463=PLANE('',#462);
#464=CARTESIAN_POINT('',(-15.289069993985899,2.37059469164953,4.0));
#465=VERTEX_POINT('',#464);
#466=CARTESIAN_POINT('',(-6.49614826586093,2.858982153639651,4.0));
#467=DIRECTION('',(-0.998461033543076,-0.055457772188326,0.0));
#468=VECTOR('',#467,8.806474597133711);
#469=LINE('',#466,#468);
#470=EDGE_CURVE('',#432,#465,#469,.T.);
#471=ORIENTED_EDGE('',*,*,#470,.T.);
#472=CARTESIAN_POINT('',(-15.289069993985899,2.37059469164953,0.0));
#473=VERTEX_POINT('',#472);
#474=CARTESIAN_POINT('',(-15.289069993985899,2.37059469164953,0.0));
#475=DIRECTION('',(0.0,0.0,1.0));
#476=VECTOR('',#475,4.0);
#477=LINE('',#474,#476);
#478=EDGE_CURVE('',#473,#465,#477,.T.);
#479=ORIENTED_EDGE('',*,*,#478,.F.);
#480=CARTESIAN_POINT('',(-15.289069993985899,2.37059469164953,0.0));
#481=DIRECTION('',(0.998461033543076,0.055457772188326,0.0));
#482=VECTOR('',#481,8.806474597133711);
#483=LINE('',#480,#482);
#484=EDGE_CURVE('',#473,#441,#483,.T.);
#485=ORIENTED_EDGE('',*,*,#484,.T.);
#486=ORIENTED_EDGE('',*,*,#446,.T.);
#487=EDGE_LOOP('',(#471,#479,#485,#486));
#488=FACE_OUTER_BOUND('',#487,.T.);
#489=ADVANCED_FACE('',(#488),#463,.T.);
#490=CARTESIAN_POINT('',(-15.106059345764402,-0.924326719042634,2.0));
#491=DIRECTION('',(0.0,0.0,1.0));
#492=DIRECTION('',(0.055457772188334,-0.998461033543076,0.0));
#493=AXIS2_PLACEMENT_3D('',#490,#491,#492);
#494=CYLINDRICAL_SURFACE('',#493,3.300000000000017);
#495=CARTESIAN_POINT('',(-18.3828649890105,-0.533756909161645,4.0));
#496=VERTEX_POINT('',#495);
#497=CARTESIAN_POINT('',(-15.106059345764402,-0.924326719042634,4.0));
#498=DIRECTION('',(0.0,0.0,1.0));
#499=DIRECTION('',(0.055457772188329,-0.998461033543076,0.0));
#500=AXIS2_PLACEMENT_3D('',#497,#498,#499);
#501=CIRCLE('',#500,3.30000000000001);
#502=EDGE_CURVE('',#465,#496,#501,.T.);
#503=ORIENTED_EDGE('',*,*,#502,.T.);
#504=CARTESIAN_POINT('',(-18.3828649890105,-0.533756909161645,0.0));
#505=VERTEX_POINT('',#504);
#506=CARTESIAN_POINT('',(-18.3828649890105,-0.533756909161645,0.0));
#507=DIRECTION('',(0.0,0.0,1.0));
#508=VECTOR('',#507,4.0);
#509=LINE('',#506,#508);
#510=EDGE_CURVE('',#505,#496,#509,.T.);
#511=ORIENTED_EDGE('',*,*,#510,.F.);
#512=CARTESIAN_POINT('',(-15.106059345764402,-0.924326719042634,0.0));
#513=DIRECTION('',(0.0,0.0,-1.0));
#514=DIRECTION('',(0.055457772188329,-0.998461033543076,0.0));
#515=AXIS2_PLACEMENT_3D('',#512,#513,#514);
#516=CIRCLE('',#515,3.300000000000018);
#517=EDGE_CURVE('',#505,#473,#516,.T.);
#518=ORIENTED_EDGE('',*,*,#517,.T.);
#519=ORIENTED_EDGE('',*,*,#478,.T.);
#520=EDGE_LOOP('',(#503,#511,#518,#519));
#521=FACE_OUTER_BOUND('',#520,.T.);
#522=ADVANCED_FACE('',(#521),#494,.F.);
#523=CARTESIAN_POINT('',(-18.3828649890105,-0.533756909161645,0.0));
#524=DIRECTION('',(0.992971407044275,-0.11835448784272,0.0));
#525=DIRECTION('',(0.0,0.0,-1.0));
#526=AXIS2_PLACEMENT_3D('',#523,#524,#525);
#527=PLANE('',#526);
#528=CARTESIAN_POINT('',(-18.712302501393999,-3.29767432511374,4.0));
#529=VERTEX_POINT('',#528);
#530=CARTESIAN_POINT('',(-18.3828649890105,-0.533756909161645,4.0));
#531=DIRECTION('',(-0.118354487842729,-0.992971407044274,0.0));
#532=VECTOR('',#531,2.783481373526458);
#533=LINE('',#530,#532);
#534=EDGE_CURVE('',#496,#529,#533,.T.);
#535=ORIENTED_EDGE('',*,*,#534,.T.);
#536=CARTESIAN_POINT('',(-18.712302501393999,-3.29767432511374,0.0));
#537=VERTEX_POINT('',#536);
#538=CARTESIAN_POINT('',(-18.712302501393999,-3.29767432511374,0.0));
#539=DIRECTION('',(0.0,0.0,1.0));
#540=VECTOR('',#539,4.0);
#541=LINE('',#538,#540);
#542=EDGE_CURVE('',#537,#529,#541,.T.);
#543=ORIENTED_EDGE('',*,*,#542,.F.);
#544=CARTESIAN_POINT('',(-18.712302501393999,-3.29767432511374,0.0));
#545=DIRECTION('',(0.118354487842729,0.992971407044274,0.0));
#546=VECTOR('',#545,2.783481373526458);
#547=LINE('',#544,#546);
#548=EDGE_CURVE('',#537,#505,#547,.T.);
#549=ORIENTED_EDGE('',*,*,#548,.T.);
#550=ORIENTED_EDGE('',*,*,#510,.T.);
#551=EDGE_LOOP('',(#535,#543,#549,#550));
#552=FACE_OUTER_BOUND('',#551,.T.);
#553=ADVANCED_FACE('',(#552),#527,.T.);
#554=CARTESIAN_POINT('',(-18.116519657167398,-3.36868701781937,2.0));
#555=DIRECTION('',(0.0,0.0,1.0));
#556=DIRECTION('',(0.992971407044276,-0.118354487842711,0.0));
#557=AXIS2_PLACEMENT_3D('',#554,#555,#556);
#558=CYLINDRICAL_SURFACE('',#557,0.600000000000032);
#559=CARTESIAN_POINT('',(-17.7596259851166,-3.851001134189711,4.0));
#560=VERTEX_POINT('',#559);
#561=CARTESIAN_POINT('',(-18.116519657167398,-3.36868701781937,4.0));
#562=DIRECTION('',(0.0,0.0,1.0));
#563=DIRECTION('',(0.992971407044276,-0.118354487842715,0.0));
#564=AXIS2_PLACEMENT_3D('',#561,#562,#563);
#565=CIRCLE('',#564,0.600000000000003);
#566=EDGE_CURVE('',#529,#560,#565,.T.);
#567=ORIENTED_EDGE('',*,*,#566,.T.);
#568=CARTESIAN_POINT('',(-17.7596259851166,-3.851001134189711,0.0));
#569=VERTEX_POINT('',#568);
#570=CARTESIAN_POINT('',(-17.7596259851166,-3.851001134189711,0.0));
#571=DIRECTION('',(0.0,0.0,1.0));
#572=VECTOR('',#571,4.0);
#573=LINE('',#570,#572);
#574=EDGE_CURVE('',#569,#560,#573,.T.);
#575=ORIENTED_EDGE('',*,*,#574,.F.);
#576=CARTESIAN_POINT('',(-18.116519657167398,-3.36868701781937,0.0));
#577=DIRECTION('',(0.0,0.0,-1.0));
#578=DIRECTION('',(0.992971407044276,-0.118354487842715,0.0));
#579=AXIS2_PLACEMENT_3D('',#576,#577,#578);
#580=CIRCLE('',#579,0.600000000000003);
#581=EDGE_CURVE('',#569,#537,#580,.T.);
#582=ORIENTED_EDGE('',*,*,#581,.T.);
#583=ORIENTED_EDGE('',*,*,#542,.T.);
#584=EDGE_LOOP('',(#567,#575,#582,#583));
#585=FACE_OUTER_BOUND('',#584,.T.);
#586=ADVANCED_FACE('',(#585),#558,.F.);
#587=CARTESIAN_POINT('',(-17.7596259851166,-3.851001134189711,0.0));
#588=DIRECTION('',(-0.594822786751341,0.803856860617217,0.0));
#589=DIRECTION('',(0.0,0.0,1.0));
#590=AXIS2_PLACEMENT_3D('',#587,#588,#589);
#591=PLANE('',#590);
#592=CARTESIAN_POINT('',(-15.891450995150603,-2.468624360273121,4.0));
#593=VERTEX_POINT('',#592);
#594=CARTESIAN_POINT('',(-17.7596259851166,-3.851001134189711,4.0));
#595=DIRECTION('',(0.803856860617214,0.594822786751346,0.0));
#596=VECTOR('',#595,2.324014487519064);
#597=LINE('',#594,#596);
#598=EDGE_CURVE('',#560,#593,#597,.T.);
#599=ORIENTED_EDGE('',*,*,#598,.T.);
#600=CARTESIAN_POINT('',(-15.891450995150603,-2.468624360273121,0.0));
#601=VERTEX_POINT('',#600);
#602=CARTESIAN_POINT('',(-15.891450995150603,-2.468624360273121,0.0));
#603=DIRECTION('',(0.0,0.0,1.0));
#604=VECTOR('',#603,4.0);
#605=LINE('',#602,#604);
#606=EDGE_CURVE('',#601,#593,#605,.T.);
#607=ORIENTED_EDGE('',*,*,#606,.F.);
#608=CARTESIAN_POINT('',(-15.891450995150603,-2.468624360273121,0.0));
#609=DIRECTION('',(-0.803856860617214,-0.594822786751346,0.0));
#610=VECTOR('',#609,2.324014487519063);
#611=LINE('',#608,#610);
#612=EDGE_CURVE('',#601,#569,#611,.T.);
#613=ORIENTED_EDGE('',*,*,#612,.T.);
#614=ORIENTED_EDGE('',*,*,#574,.T.);
#615=EDGE_LOOP('',(#599,#607,#613,#614));
#616=FACE_OUTER_BOUND('',#615,.T.);
#617=ADVANCED_FACE('',(#616),#591,.T.);
#618=CARTESIAN_POINT('',(-15.891450995150603,-2.468624360273121,0.0));
#619=DIRECTION('',(0.803856860617213,0.594822786751347,0.0));
#620=DIRECTION('',(0.0,0.0,-1.0));
#621=AXIS2_PLACEMENT_3D('',#618,#619,#620);
#622=PLANE('',#621);
#623=CARTESIAN_POINT('',(-15.594039601774901,-2.87055279058172,4.0));
#624=VERTEX_POINT('',#623);
#625=CARTESIAN_POINT('',(-15.891450995150603,-2.468624360273121,4.0));
#626=DIRECTION('',(0.594822786751391,-0.803856860617181,0.0));
#627=VECTOR('',#626,0.500000000000011);
#628=LINE('',#625,#627);
#629=EDGE_CURVE('',#593,#624,#628,.T.);
#630=ORIENTED_EDGE('',*,*,#629,.T.);
#631=CARTESIAN_POINT('',(-15.594039601774901,-2.87055279058172,0.0));
#632=VERTEX_POINT('',#631);
#633=CARTESIAN_POINT('',(-15.594039601774901,-2.87055279058172,0.0));
#634=DIRECTION('',(0.0,0.0,1.0));
#635=VECTOR('',#634,4.0);
#636=LINE('',#633,#635);
#637=EDGE_CURVE('',#632,#624,#636,.T.);
#638=ORIENTED_EDGE('',*,*,#637,.F.);
#639=CARTESIAN_POINT('',(-15.594039601774901,-2.87055279058172,0.0));
#640=DIRECTION('',(-0.594822786751391,0.803856860617181,0.0));
#641=VECTOR('',#640,0.500000000000011);
#642=LINE('',#639,#641);
#643=EDGE_CURVE('',#632,#601,#642,.T.);
#644=ORIENTED_EDGE('',*,*,#643,.T.);
#645=ORIENTED_EDGE('',*,*,#606,.T.);
#646=EDGE_LOOP('',(#630,#638,#644,#645));
#647=FACE_OUTER_BOUND('',#646,.T.);
#648=ADVANCED_FACE('',(#647),#622,.T.);
#649=CARTESIAN_POINT('',(-15.594039601774901,-2.87055279058172,0.0));
#650=DIRECTION('',(0.594822786751343,-0.803856860617216,0.0));
#651=DIRECTION('',(0.0,0.0,-1.0));
#652=AXIS2_PLACEMENT_3D('',#649,#650,#651);
#653=PLANE('',#652);
#654=CARTESIAN_POINT('',(-17.462214591740903,-4.25292956449831,4.0));
#655=VERTEX_POINT('',#654);
#656=CARTESIAN_POINT('',(-15.594039601774901,-2.87055279058172,4.0));
#657=DIRECTION('',(-0.803856860617215,-0.594822786751345,0.0));
#658=VECTOR('',#657,2.324014487519067);
#659=LINE('',#656,#658);
#660=EDGE_CURVE('',#624,#655,#659,.T.);
#661=ORIENTED_EDGE('',*,*,#660,.T.);
#662=CARTESIAN_POINT('',(-17.462214591740903,-4.25292956449831,0.0));
#663=VERTEX_POINT('',#662);
#664=CARTESIAN_POINT('',(-17.462214591740903,-4.25292956449831,0.0));
#665=DIRECTION('',(0.0,0.0,1.0));
#666=VECTOR('',#665,4.0);
#667=LINE('',#664,#666);
#668=EDGE_CURVE('',#663,#655,#667,.T.);
#669=ORIENTED_EDGE('',*,*,#668,.F.);
#670=CARTESIAN_POINT('',(-17.462214591740903,-4.25292956449831,0.0));
#671=DIRECTION('',(0.803856860617214,0.594822786751345,0.0));
#672=VECTOR('',#671,2.324014487519066);
#673=LINE('',#670,#672);
#674=EDGE_CURVE('',#663,#632,#673,.T.);
#675=ORIENTED_EDGE('',*,*,#674,.T.);
#676=ORIENTED_EDGE('',*,*,#637,.T.);
#677=EDGE_LOOP('',(#661,#669,#675,#676));
#678=FACE_OUTER_BOUND('',#677,.T.);
#679=ADVANCED_FACE('',(#678),#653,.T.);
#680=CARTESIAN_POINT('',(-18.116519657167398,-3.36868701781937,0.0));
#681=DIRECTION('',(0.0,0.0,1.0));
#682=DIRECTION('',(-0.992971407044274,0.118354487842728,0.0));
#683=AXIS2_PLACEMENT_3D('',#680,#681,#682);
#684=CYLINDRICAL_SURFACE('',#683,1.1);
#685=CARTESIAN_POINT('',(-19.2087882049161,-3.23849708119237,4.0));
#686=VERTEX_POINT('',#685);
#687=CARTESIAN_POINT('',(-18.116519657167398,-3.36868701781937,4.0));
#688=DIRECTION('',(0.0,0.0,-1.0));
#689=DIRECTION('',(-0.992971407044274,0.118354487842728,0.0));
#690=AXIS2_PLACEMENT_3D('',#687,#688,#689);
#691=CIRCLE('',#690,1.100000000000001);
#692=EDGE_CURVE('',#655,#686,#691,.T.);
#693=ORIENTED_EDGE('',*,*,#692,.T.);
#694=CARTESIAN_POINT('',(-19.2087882049161,-3.23849708119237,0.0));
#695=VERTEX_POINT('',#694);
#696=CARTESIAN_POINT('',(-19.2087882049161,-3.23849708119237,0.0));
#697=DIRECTION('',(0.0,0.0,1.0));
#698=VECTOR('',#697,4.0);
#699=LINE('',#696,#698);
#700=EDGE_CURVE('',#695,#686,#699,.T.);
#701=ORIENTED_EDGE('',*,*,#700,.F.);
#702=CARTESIAN_POINT('',(-18.116519657167398,-3.36868701781937,0.0));
#703=DIRECTION('',(0.0,0.0,1.0));
#704=DIRECTION('',(-0.992971407044274,0.118354487842728,0.0));
#705=AXIS2_PLACEMENT_3D('',#702,#703,#704);
#706=CIRCLE('',#705,1.1);
#707=EDGE_CURVE('',#695,#663,#706,.T.);
#708=ORIENTED_EDGE('',*,*,#707,.T.);
#709=ORIENTED_EDGE('',*,*,#668,.T.);
#710=EDGE_LOOP('',(#693,#701,#708,#709));
#711=FACE_OUTER_BOUND('',#710,.T.);
#712=ADVANCED_FACE('',(#711),#684,.T.);
#713=CARTESIAN_POINT('',(-19.2087882049161,-3.23849708119237,0.0));
#714=DIRECTION('',(-0.992971407044275,0.11835448784272,0.0));
#715=DIRECTION('',(0.0,0.0,1.0));
#716=AXIS2_PLACEMENT_3D('',#713,#714,#715);
#717=PLANE('',#716);
#718=CARTESIAN_POINT('',(-18.879350692532601,-0.474579665240278,4.0));
#719=VERTEX_POINT('',#718);
#720=CARTESIAN_POINT('',(-19.2087882049161,-3.23849708119237,4.0));
#721=DIRECTION('',(0.118354487842729,0.992971407044274,0.0));
#722=VECTOR('',#721,2.783481373526455);
#723=LINE('',#720,#722);
#724=EDGE_CURVE('',#686,#719,#723,.T.);
#725=ORIENTED_EDGE('',*,*,#724,.T.);
#726=CARTESIAN_POINT('',(-18.879350692532601,-0.474579665240278,0.0));
#727=VERTEX_POINT('',#726);
#728=CARTESIAN_POINT('',(-18.879350692532601,-0.474579665240278,0.0));
#729=DIRECTION('',(0.0,0.0,1.0));
#730=VECTOR('',#729,4.0);
#731=LINE('',#728,#730);
#732=EDGE_CURVE('',#727,#719,#731,.T.);
#733=ORIENTED_EDGE('',*,*,#732,.F.);
#734=CARTESIAN_POINT('',(-18.879350692532601,-0.474579665240278,0.0));
#735=DIRECTION('',(-0.118354487842729,-0.992971407044274,0.0));
#736=VECTOR('',#735,2.783481373526455);
#737=LINE('',#734,#736);
#738=EDGE_CURVE('',#727,#695,#737,.T.);
#739=ORIENTED_EDGE('',*,*,#738,.T.);
#740=ORIENTED_EDGE('',*,*,#700,.T.);
#741=EDGE_LOOP('',(#725,#733,#739,#740));
#742=FACE_OUTER_BOUND('',#741,.T.);
#743=ADVANCED_FACE('',(#742),#717,.T.);
#744=CARTESIAN_POINT('',(-15.106059345764402,-0.924326719042625,0.0));
#745=DIRECTION('',(0.0,0.0,1.0));
#746=DIRECTION('',(-0.055457772188327,0.998461033543076,0.0));
#747=AXIS2_PLACEMENT_3D('',#744,#745,#746);
#748=CYLINDRICAL_SURFACE('',#747,3.8);
#749=CARTESIAN_POINT('',(-15.31679888008,2.86982520842107,4.0));
#750=VERTEX_POINT('',#749);
#751=CARTESIAN_POINT('',(-15.106059345764402,-0.924326719042625,4.0));
#752=DIRECTION('',(0.0,0.0,-1.0));
#753=DIRECTION('',(-0.055457772188327,0.998461033543076,0.0));
#754=AXIS2_PLACEMENT_3D('',#751,#752,#753);
#755=CIRCLE('',#754,3.800000000000006);
#756=EDGE_CURVE('',#719,#750,#755,.T.);
#757=ORIENTED_EDGE('',*,*,#756,.T.);
#758=CARTESIAN_POINT('',(-15.31679888008,2.86982520842107,0.0));
#759=VERTEX_POINT('',#758);
#760=CARTESIAN_POINT('',(-15.31679888008,2.86982520842107,0.0));
#761=DIRECTION('',(0.0,0.0,1.0));
#762=VECTOR('',#761,4.0);
#763=LINE('',#760,#762);
#764=EDGE_CURVE('',#759,#750,#763,.T.);
#765=ORIENTED_EDGE('',*,*,#764,.F.);
#766=CARTESIAN_POINT('',(-15.106059345764402,-0.924326719042625,0.0));
#767=DIRECTION('',(0.0,0.0,1.0));
#768=DIRECTION('',(-0.055457772188327,0.998461033543076,0.0));
#769=AXIS2_PLACEMENT_3D('',#766,#767,#768);
#770=CIRCLE('',#769,3.8);
#771=EDGE_CURVE('',#759,#727,#770,.T.);
#772=ORIENTED_EDGE('',*,*,#771,.T.);
#773=ORIENTED_EDGE('',*,*,#732,.T.);
#774=EDGE_LOOP('',(#757,#765,#772,#773));
#775=FACE_OUTER_BOUND('',#774,.T.);
#776=ADVANCED_FACE('',(#775),#748,.T.);
#777=CARTESIAN_POINT('',(-15.31679888008,2.86982520842107,0.0));
#778=DIRECTION('',(-0.055457772188326,0.998461033543076,0.0));
#779=DIRECTION('',(0.0,0.0,1.0));
#780=AXIS2_PLACEMENT_3D('',#777,#778,#779);
#781=PLANE('',#780);
#782=CARTESIAN_POINT('',(-6.52387715195511,3.358212670411191,4.0));
#783=VERTEX_POINT('',#782);
#784=CARTESIAN_POINT('',(-15.31679888008,2.86982520842107,4.0));
#785=DIRECTION('',(0.998461033543076,0.055457772188326,0.0));
#786=VECTOR('',#785,8.806474597133631);
#787=LINE('',#784,#786);
#788=EDGE_CURVE('',#750,#783,#787,.T.);
#789=ORIENTED_EDGE('',*,*,#788,.T.);
#790=CARTESIAN_POINT('',(-6.52387715195511,3.358212670411191,0.0));
#791=VERTEX_POINT('',#790);
#792=CARTESIAN_POINT('',(-6.52387715195511,3.358212670411191,0.0));
#793=DIRECTION('',(0.0,0.0,1.0));
#794=VECTOR('',#793,4.0);
#795=LINE('',#792,#794);
#796=EDGE_CURVE('',#791,#783,#795,.T.);
#797=ORIENTED_EDGE('',*,*,#796,.F.);
#798=CARTESIAN_POINT('',(-6.52387715195511,3.358212670411191,0.0));
#799=DIRECTION('',(-0.998461033543076,-0.055457772188326,0.0));
#800=VECTOR('',#799,8.806474597133629);
#801=LINE('',#798,#800);
#802=EDGE_CURVE('',#791,#759,#801,.T.);
#803=ORIENTED_EDGE('',*,*,#802,.T.);
#804=ORIENTED_EDGE('',*,*,#764,.T.);
#805=EDGE_LOOP('',(#789,#797,#803,#804));
#806=FACE_OUTER_BOUND('',#805,.T.);
#807=ADVANCED_FACE('',(#806),#781,.T.);
#808=CARTESIAN_POINT('',(-6.41296160757847,1.36129060332504,0.0));
#809=DIRECTION('',(0.0,0.0,1.0));
#810=DIRECTION('',(0.761359027284552,0.648330495636539,0.0));
#811=AXIS2_PLACEMENT_3D('',#808,#809,#810);
#812=CYLINDRICAL_SURFACE('',#811,2.0);
#813=CARTESIAN_POINT('',(-4.89024355300936,2.65795159459812,4.0));
#814=VERTEX_POINT('',#813);
#815=CARTESIAN_POINT('',(-6.41296160757847,1.36129060332504,4.0));
#816=DIRECTION('',(0.0,0.0,-1.0));
#817=DIRECTION('',(0.761359027284552,0.648330495636539,0.0));
#818=AXIS2_PLACEMENT_3D('',#815,#816,#817);
#819=CIRCLE('',#818,1.999999999999995);
#820=EDGE_CURVE('',#783,#814,#819,.T.);
#821=ORIENTED_EDGE('',*,*,#820,.T.);
#822=CARTESIAN_POINT('',(-4.89024355300936,2.65795159459812,0.0));
#823=VERTEX_POINT('',#822);
#824=CARTESIAN_POINT('',(-4.89024355300936,2.65795159459812,0.0));
#825=DIRECTION('',(0.0,0.0,1.0));
#826=VECTOR('',#825,4.0);
#827=LINE('',#824,#826);
#828=EDGE_CURVE('',#823,#814,#827,.T.);
#829=ORIENTED_EDGE('',*,*,#828,.F.);
#830=CARTESIAN_POINT('',(-6.41296160757847,1.36129060332504,0.0));
#831=DIRECTION('',(0.0,0.0,1.0));
#832=DIRECTION('',(0.761359027284552,0.648330495636539,0.0));
#833=AXIS2_PLACEMENT_3D('',#830,#831,#832);
#834=CIRCLE('',#833,2.0);
#835=EDGE_CURVE('',#823,#791,#834,.T.);
#836=ORIENTED_EDGE('',*,*,#835,.T.);
#837=ORIENTED_EDGE('',*,*,#796,.T.);
#838=EDGE_LOOP('',(#821,#829,#836,#837));
#839=FACE_OUTER_BOUND('',#838,.T.);
#840=ADVANCED_FACE('',(#839),#812,.T.);
#841=CARTESIAN_POINT('',(-4.89024355300936,2.65795159459812,0.0));
#842=DIRECTION('',(0.761359027284549,0.648330495636543,0.0));
#843=DIRECTION('',(0.0,0.0,-1.0));
#844=AXIS2_PLACEMENT_3D('',#841,#842,#843);
#845=PLANE('',#844);
#846=CARTESIAN_POINT('',(-1.5227180545691,-1.29666099127309,4.0));
#847=VERTEX_POINT('',#846);
#848=CARTESIAN_POINT('',(-4.89024355300936,2.65795159459812,4.0));
#849=DIRECTION('',(0.648330495636543,-0.761359027284549,0.0));
#850=VECTOR('',#849,5.19414946713861);
#851=LINE('',#848,#850);
#852=EDGE_CURVE('',#814,#847,#851,.T.);
#853=ORIENTED_EDGE('',*,*,#852,.T.);
#854=CARTESIAN_POINT('',(-1.5227180545691,-1.29666099127309,0.0));
#855=VERTEX_POINT('',#854);
#856=CARTESIAN_POINT('',(-1.5227180545691,-1.29666099127309,0.0));
#857=DIRECTION('',(0.0,0.0,1.0));
#858=VECTOR('',#857,4.0);
#859=LINE('',#856,#858);
#860=EDGE_CURVE('',#855,#847,#859,.T.);
#861=ORIENTED_EDGE('',*,*,#860,.F.);
#862=CARTESIAN_POINT('',(-1.5227180545691,-1.29666099127309,0.0));
#863=DIRECTION('',(-0.648330495636543,0.761359027284549,0.0));
#864=VECTOR('',#863,5.194149467138609);
#865=LINE('',#862,#864);
#866=EDGE_CURVE('',#855,#823,#865,.T.);
#867=ORIENTED_EDGE('',*,*,#866,.T.);
#868=ORIENTED_EDGE('',*,*,#828,.T.);
#869=EDGE_LOOP('',(#853,#861,#867,#868));
#870=FACE_OUTER_BOUND('',#869,.T.);
#871=ADVANCED_FACE('',(#870),#845,.T.);
#872=CARTESIAN_POINT('',(0.0,-4.440892E-015,2.0));
#873=DIRECTION('',(0.0,0.0,1.0));
#874=DIRECTION('',(0.761359027284548,0.648330495636544,0.0));
#875=AXIS2_PLACEMENT_3D('',#872,#873,#874);
#876=CYLINDRICAL_SURFACE('',#875,1.999999999999993);
#877=CARTESIAN_POINT('',(1.53538755721453,-1.28163374220205,4.0));
#878=VERTEX_POINT('',#877);
#879=CARTESIAN_POINT('',(0.0,-4.440892E-015,4.0));
#880=DIRECTION('',(0.0,0.0,1.0));
#881=DIRECTION('',(0.761359027284548,0.648330495636544,0.0));
#882=AXIS2_PLACEMENT_3D('',#879,#880,#881);
#883=CIRCLE('',#882,2.0);
#884=EDGE_CURVE('',#847,#878,#883,.T.);
#885=ORIENTED_EDGE('',*,*,#884,.T.);
#886=CARTESIAN_POINT('',(1.53538755721453,-1.28163374220205,0.0));
#887=VERTEX_POINT('',#886);
#888=CARTESIAN_POINT('',(1.53538755721453,-1.28163374220205,0.0));
#889=DIRECTION('',(0.0,0.0,1.0));
#890=VECTOR('',#889,4.0);
#891=LINE('',#888,#890);
#892=EDGE_CURVE('',#887,#878,#891,.T.);
#893=ORIENTED_EDGE('',*,*,#892,.F.);
#894=CARTESIAN_POINT('',(0.0,-4.440892E-015,0.0));
#895=DIRECTION('',(0.0,0.0,-1.0));
#896=DIRECTION('',(0.761359027284548,0.648330495636544,0.0));
#897=AXIS2_PLACEMENT_3D('',#894,#895,#896);
#898=CIRCLE('',#897,1.999999999999992);
#899=EDGE_CURVE('',#887,#855,#898,.T.);
#900=ORIENTED_EDGE('',*,*,#899,.T.);
#901=ORIENTED_EDGE('',*,*,#860,.T.);
#902=EDGE_LOOP('',(#885,#893,#900,#901));
#903=FACE_OUTER_BOUND('',#902,.T.);
#904=ADVANCED_FACE('',(#903),#876,.F.);
#905=CARTESIAN_POINT('',(1.53538755721453,-1.28163374220205,0.0));
#906=DIRECTION('',(-0.767693778607263,0.640816871101022,0.0));
#907=DIRECTION('',(0.0,0.0,1.0));
#908=AXIS2_PLACEMENT_3D('',#905,#906,#907);
#909=PLANE('',#908);
#910=CARTESIAN_POINT('',(4.862472077192289,2.704188420218531,4.0));
#911=VERTEX_POINT('',#910);
#912=CARTESIAN_POINT('',(1.53538755721453,-1.28163374220205,4.0));
#913=DIRECTION('',(0.64081687110102,0.767693778607264,0.0));
#914=VECTOR('',#913,5.191942768706018);
#915=LINE('',#912,#914);
#916=EDGE_CURVE('',#878,#911,#915,.T.);
#917=ORIENTED_EDGE('',*,*,#916,.T.);
#918=CARTESIAN_POINT('',(4.862472077192289,2.704188420218531,0.0));
#919=VERTEX_POINT('',#918);
#920=CARTESIAN_POINT('',(4.862472077192289,2.704188420218531,0.0));
#921=DIRECTION('',(0.0,0.0,1.0));
#922=VECTOR('',#921,4.0);
#923=LINE('',#920,#922);
#924=EDGE_CURVE('',#919,#911,#923,.T.);
#925=ORIENTED_EDGE('',*,*,#924,.F.);
#926=CARTESIAN_POINT('',(4.862472077192289,2.704188420218531,0.0));
#927=DIRECTION('',(-0.64081687110102,-0.767693778607264,0.0));
#928=VECTOR('',#927,5.191942768706018);
#929=LINE('',#926,#928);
#930=EDGE_CURVE('',#919,#887,#929,.T.);
#931=ORIENTED_EDGE('',*,*,#930,.T.);
#932=ORIENTED_EDGE('',*,*,#892,.T.);
#933=EDGE_LOOP('',(#917,#925,#931,#932));
#934=FACE_OUTER_BOUND('',#933,.T.);
#935=ADVANCED_FACE('',(#934),#909,.T.);
#936=CARTESIAN_POINT('',(6.39785963440681,1.42255467801647,0.0));
#937=DIRECTION('',(0.0,0.0,1.0));
#938=DIRECTION('',(0.049653891095076,0.998766484769648,0.0));
#939=AXIS2_PLACEMENT_3D('',#936,#937,#938);
#940=CYLINDRICAL_SURFACE('',#939,2.0);
#941=CARTESIAN_POINT('',(6.497167416596961,3.42008764755576,4.0));
#942=VERTEX_POINT('',#941);
#943=CARTESIAN_POINT('',(6.39785963440681,1.42255467801647,4.0));
#944=DIRECTION('',(0.0,0.0,-1.0));
#945=DIRECTION('',(0.049653891095076,0.998766484769647,0.0));
#946=AXIS2_PLACEMENT_3D('',#943,#944,#945);
#947=CIRCLE('',#946,1.999999999999998);
#948=EDGE_CURVE('',#911,#942,#947,.T.);
#949=ORIENTED_EDGE('',*,*,#948,.T.);
#950=CARTESIAN_POINT('',(6.497167416596961,3.42008764755576,0.0));
#951=VERTEX_POINT('',#950);
#952=CARTESIAN_POINT('',(6.497167416596961,3.42008764755576,0.0));
#953=DIRECTION('',(0.0,0.0,1.0));
#954=VECTOR('',#953,4.0);
#955=LINE('',#952,#954);
#956=EDGE_CURVE('',#951,#942,#955,.T.);
#957=ORIENTED_EDGE('',*,*,#956,.F.);
#958=CARTESIAN_POINT('',(6.39785963440681,1.42255467801647,0.0));
#959=DIRECTION('',(0.0,0.0,1.0));
#960=DIRECTION('',(0.049653891095076,0.998766484769648,0.0));
#961=AXIS2_PLACEMENT_3D('',#958,#959,#960);
#962=CIRCLE('',#961,2.0);
#963=EDGE_CURVE('',#951,#919,#962,.T.);
#964=ORIENTED_EDGE('',*,*,#963,.T.);
#965=ORIENTED_EDGE('',*,*,#924,.T.);
#966=EDGE_LOOP('',(#949,#957,#964,#965));
#967=FACE_OUTER_BOUND('',#966,.T.);
#968=ADVANCED_FACE('',(#967),#940,.T.);
#969=CARTESIAN_POINT('',(6.497167416596961,3.42008764755576,0.0));
#970=DIRECTION('',(0.049653891095074,0.998766484769648,0.0));
#971=DIRECTION('',(0.0,0.0,1.0));
#972=AXIS2_PLACEMENT_3D('',#969,#970,#971);
#973=PLANE('',#972);
#974=CARTESIAN_POINT('',(15.299727278855402,2.98246648642995,4.0));
#975=VERTEX_POINT('',#974);
#976=CARTESIAN_POINT('',(6.497167416596961,3.42008764755576,4.0));
#977=DIRECTION('',(0.998766484769647,-0.049653891095072,0.0));
#978=VECTOR('',#977,8.813431364077697);
#979=LINE('',#976,#978);
#980=EDGE_CURVE('',#942,#975,#979,.T.);
#981=ORIENTED_EDGE('',*,*,#980,.T.);
#982=CARTESIAN_POINT('',(15.299727278855402,2.98246648642995,0.0));
#983=VERTEX_POINT('',#982);
#984=CARTESIAN_POINT('',(15.299727278855402,2.98246648642995,0.0));
#985=DIRECTION('',(0.0,0.0,1.0));
#986=VECTOR('',#985,4.0);
#987=LINE('',#984,#986);
#988=EDGE_CURVE('',#983,#975,#987,.T.);
#989=ORIENTED_EDGE('',*,*,#988,.F.);
#990=CARTESIAN_POINT('',(15.299727278855402,2.98246648642995,0.0));
#991=DIRECTION('',(-0.998766484769647,0.049653891095072,0.0));
#992=VECTOR('',#991,8.813431364077697);
#993=LINE('',#990,#992);
#994=EDGE_CURVE('',#983,#951,#993,.T.);
#995=ORIENTED_EDGE('',*,*,#994,.T.);
#996=ORIENTED_EDGE('',*,*,#956,.T.);
#997=EDGE_LOOP('',(#981,#989,#995,#996));
#998=FACE_OUTER_BOUND('',#997,.T.);
#999=ADVANCED_FACE('',(#998),#973,.T.);
#1000=CARTESIAN_POINT('',(15.1110424926941,-0.812846155694715,0.0));
#1001=DIRECTION('',(0.0,0.0,1.0));
#1002=DIRECTION('',(0.992386389039179,0.123163528894638,0.0));
#1003=AXIS2_PLACEMENT_3D('',#1000,#1001,#1002);
#1004=CYLINDRICAL_SURFACE('',#1003,3.799999999999999);
#1005=CARTESIAN_POINT('',(18.882110771042999,-0.344824745895092,4.0));
#1006=VERTEX_POINT('',#1005);
#1007=CARTESIAN_POINT('',(15.1110424926941,-0.812846155694715,4.0));
#1008=DIRECTION('',(0.0,0.0,-1.0));
#1009=DIRECTION('',(0.992386389039178,0.123163528894638,0.0));
#1010=AXIS2_PLACEMENT_3D('',#1007,#1008,#1009);
#1011=CIRCLE('',#1010,3.800000000000003);
#1012=EDGE_CURVE('',#975,#1006,#1011,.T.);
#1013=ORIENTED_EDGE('',*,*,#1012,.T.);
#1014=CARTESIAN_POINT('',(18.882110771042999,-0.344824745895092,0.0));
#1015=VERTEX_POINT('',#1014);
#1016=CARTESIAN_POINT('',(18.882110771042999,-0.344824745895092,0.0));
#1017=DIRECTION('',(0.0,0.0,1.0));
#1018=VECTOR('',#1017,4.0);
#1019=LINE('',#1016,#1018);
#1020=EDGE_CURVE('',#1015,#1006,#1019,.T.);
#1021=ORIENTED_EDGE('',*,*,#1020,.F.);
#1022=CARTESIAN_POINT('',(15.1110424926941,-0.812846155694715,0.0));
#1023=DIRECTION('',(0.0,0.0,1.0));
#1024=DIRECTION('',(0.992386389039179,0.123163528894638,0.0));
#1025=AXIS2_PLACEMENT_3D('',#1022,#1023,#1024);
#1026=CIRCLE('',#1025,3.799999999999999);
#1027=EDGE_CURVE('',#1015,#983,#1026,.T.);
#1028=ORIENTED_EDGE('',*,*,#1027,.T.);
#1029=ORIENTED_EDGE('',*,*,#988,.T.);
#1030=EDGE_LOOP('',(#1013,#1021,#1028,#1029));
#1031=FACE_OUTER_BOUND('',#1030,.T.);
#1032=ADVANCED_FACE('',(#1031),#1004,.T.);
#1033=CARTESIAN_POINT('',(18.882110771042999,-0.344824745895092,0.0));
#1034=DIRECTION('',(0.992386389039179,0.123163528894632,0.0));
#1035=DIRECTION('',(0.0,0.0,-1.0));
#1036=AXIS2_PLACEMENT_3D('',#1033,#1034,#1035);
#1037=PLANE('',#1036);
#1038=CARTESIAN_POINT('',(19.2406362705063,-3.23363305614754,4.0));
#1039=VERTEX_POINT('',#1038);
#1040=CARTESIAN_POINT('',(18.882110771042999,-0.344824745895092,4.0));
#1041=DIRECTION('',(0.12316352889464,-0.992386389039178,0.0));
#1042=VECTOR('',#1041,2.910971313350411);
#1043=LINE('',#1040,#1042);
#1044=EDGE_CURVE('',#1006,#1039,#1043,.T.);
#1045=ORIENTED_EDGE('',*,*,#1044,.T.);
#1046=CARTESIAN_POINT('',(19.2406362705063,-3.23363305614754,0.0));
#1047=VERTEX_POINT('',#1046);
#1048=CARTESIAN_POINT('',(19.2406362705063,-3.23363305614754,0.0));
#1049=DIRECTION('',(0.0,0.0,1.0));
#1050=VECTOR('',#1049,4.0);
#1051=LINE('',#1048,#1050);
#1052=EDGE_CURVE('',#1047,#1039,#1051,.T.);
#1053=ORIENTED_EDGE('',*,*,#1052,.F.);
#1054=CARTESIAN_POINT('',(19.2406362705063,-3.23363305614754,0.0));
#1055=DIRECTION('',(-0.12316352889464,0.992386389039178,0.0));
#1056=VECTOR('',#1055,2.910971313350411);
#1057=LINE('',#1054,#1056);
#1058=EDGE_CURVE('',#1047,#1015,#1057,.T.);
#1059=ORIENTED_EDGE('',*,*,#1058,.T.);
#1060=ORIENTED_EDGE('',*,*,#1020,.T.);
#1061=EDGE_LOOP('',(#1045,#1053,#1059,#1060));
#1062=FACE_OUTER_BOUND('',#1061,.T.);
#1063=ADVANCED_FACE('',(#1062),#1037,.T.);
#1064=CARTESIAN_POINT('',(18.149011242563198,-3.369112937931651,0.0));
#1065=DIRECTION('',(0.0,0.0,1.0));
#1066=DIRECTION('',(-0.601815023152049,-0.798635510047292,0.0));
#1067=AXIS2_PLACEMENT_3D('',#1064,#1065,#1066);
#1068=CYLINDRICAL_SURFACE('',#1067,1.1);
#1069=CARTESIAN_POINT('',(18.149011242563198,-3.369112937931651,4.0));
#1070=DIRECTION('',(0.0,0.0,-1.0));
#1071=DIRECTION('',(-0.601815023152049,-0.798635510047292,0.0));
#1072=AXIS2_PLACEMENT_3D('',#1069,#1070,#1071);
#1073=CIRCLE('',#1072,1.099999999999998);
#1074=EDGE_CURVE('',#1039,#74,#1073,.T.);
#1075=ORIENTED_EDGE('',*,*,#1074,.T.);
#1076=ORIENTED_EDGE('',*,*,#103,.F.);
#1077=CARTESIAN_POINT('',(18.149011242563198,-3.369112937931651,0.0));
#1078=DIRECTION('',(0.0,0.0,1.0));
#1079=DIRECTION('',(-0.601815023152049,-0.798635510047292,0.0));
#1080=AXIS2_PLACEMENT_3D('',#1077,#1078,#1079);
#1081=CIRCLE('',#1080,1.1);
#1082=EDGE_CURVE('',#92,#1047,#1081,.T.);
#1083=ORIENTED_EDGE('',*,*,#1082,.T.);
#1084=ORIENTED_EDGE('',*,*,#1052,.T.);
#1085=EDGE_LOOP('',(#1075,#1076,#1083,#1084));
#1086=FACE_OUTER_BOUND('',#1085,.T.);
#1087=ADVANCED_FACE('',(#1086),#1068,.T.);
#1088=CARTESIAN_POINT('',(0.03550996365307,0.508276807003456,0.0));
#1089=DIRECTION('',(0.0,0.0,-1.0));
#1090=DIRECTION('',(-1.0,0.0,0.0));
#1091=AXIS2_PLACEMENT_3D('',#1088,#1089,#1090);
#1092=PLANE('',#1091);
#1093=ORIENTED_EDGE('',*,*,#1082,.F.);
#1094=ORIENTED_EDGE('',*,*,#97,.F.);
#1095=ORIENTED_EDGE('',*,*,#133,.F.);
#1096=ORIENTED_EDGE('',*,*,#164,.F.);
#1097=ORIENTED_EDGE('',*,*,#197,.F.);
#1098=ORIENTED_EDGE('',*,*,#228,.F.);
#1099=ORIENTED_EDGE('',*,*,#261,.F.);
#1100=ORIENTED_EDGE('',*,*,#292,.F.);
#1101=ORIENTED_EDGE('',*,*,#325,.F.);
#1102=ORIENTED_EDGE('',*,*,#356,.F.);
#1103=ORIENTED_EDGE('',*,*,#389,.F.);
#1104=ORIENTED_EDGE('',*,*,#420,.F.);
#1105=ORIENTED_EDGE('',*,*,#453,.F.);
#1106=ORIENTED_EDGE('',*,*,#484,.F.);
#1107=ORIENTED_EDGE('',*,*,#517,.F.);
#1108=ORIENTED_EDGE('',*,*,#548,.F.);
#1109=ORIENTED_EDGE('',*,*,#581,.F.);
#1110=ORIENTED_EDGE('',*,*,#612,.F.);
#1111=ORIENTED_EDGE('',*,*,#643,.F.);
#1112=ORIENTED_EDGE('',*,*,#674,.F.);
#1113=ORIENTED_EDGE('',*,*,#707,.F.);
#1114=ORIENTED_EDGE('',*,*,#738,.F.);
#1115=ORIENTED_EDGE('',*,*,#771,.F.);
#1116=ORIENTED_EDGE('',*,*,#802,.F.);
#1117=ORIENTED_EDGE('',*,*,#835,.F.);
#1118=ORIENTED_EDGE('',*,*,#866,.F.);
#1119=ORIENTED_EDGE('',*,*,#899,.F.);
#1120=ORIENTED_EDGE('',*,*,#930,.F.);
#1121=ORIENTED_EDGE('',*,*,#963,.F.);
#1122=ORIENTED_EDGE('',*,*,#994,.F.);
#1123=ORIENTED_EDGE('',*,*,#1027,.F.);
#1124=ORIENTED_EDGE('',*,*,#1058,.F.);
#1125=EDGE_LOOP('',(#1093,#1094,#1095,#1096,#1097,#1098,#1099,#1100,#1101,#1102,#1103,#1104,#1105,#1106,#1107,#1108,#1109,#1110,#1111,#1112,#1113,#1114,#1115,#1116,#1117,#1118,#1119,#1120,#1121,#1122,#1123,#1124));
#1126=FACE_OUTER_BOUND('',#1125,.T.);
#1127=ADVANCED_FACE('',(#1126),#1092,.T.);
#1128=CARTESIAN_POINT('',(0.035509963653071,0.508276807003456,4.0));
#1129=DIRECTION('',(0.0,0.0,1.0));
#1130=DIRECTION('',(1.0,0.0,0.0));
#1131=AXIS2_PLACEMENT_3D('',#1128,#1129,#1130);
#1132=PLANE('',#1131);
#1133=ORIENTED_EDGE('',*,*,#81,.F.);
#1134=ORIENTED_EDGE('',*,*,#1074,.F.);
#1135=ORIENTED_EDGE('',*,*,#1044,.F.);
#1136=ORIENTED_EDGE('',*,*,#1012,.F.);
#1137=ORIENTED_EDGE('',*,*,#980,.F.);
#1138=ORIENTED_EDGE('',*,*,#948,.F.);
#1139=ORIENTED_EDGE('',*,*,#916,.F.);
#1140=ORIENTED_EDGE('',*,*,#884,.F.);
#1141=ORIENTED_EDGE('',*,*,#852,.F.);
#1142=ORIENTED_EDGE('',*,*,#820,.F.);
#1143=ORIENTED_EDGE('',*,*,#788,.F.);
#1144=ORIENTED_EDGE('',*,*,#756,.F.);
#1145=ORIENTED_EDGE('',*,*,#724,.F.);
#1146=ORIENTED_EDGE('',*,*,#692,.F.);
#1147=ORIENTED_EDGE('',*,*,#660,.F.);
#1148=ORIENTED_EDGE('',*,*,#629,.F.);
#1149=ORIENTED_EDGE('',*,*,#598,.F.);
#1150=ORIENTED_EDGE('',*,*,#566,.F.);
#1151=ORIENTED_EDGE('',*,*,#534,.F.);
#1152=ORIENTED_EDGE('',*,*,#502,.F.);
#1153=ORIENTED_EDGE('',*,*,#470,.F.);
#1154=ORIENTED_EDGE('',*,*,#438,.F.);
#1155=ORIENTED_EDGE('',*,*,#406,.F.);
#1156=ORIENTED_EDGE('',*,*,#374,.F.);
#1157=ORIENTED_EDGE('',*,*,#342,.F.);
#1158=ORIENTED_EDGE('',*,*,#310,.F.);
#1159=ORIENTED_EDGE('',*,*,#278,.F.);
#1160=ORIENTED_EDGE('',*,*,#246,.F.);
#1161=ORIENTED_EDGE('',*,*,#214,.F.);
#1162=ORIENTED_EDGE('',*,*,#182,.F.);
#1163=ORIENTED_EDGE('',*,*,#150,.F.);
#1164=ORIENTED_EDGE('',*,*,#119,.F.);
#1165=EDGE_LOOP('',(#1133,#1134,#1135,#1136,#1137,#1138,#1139,#1140,#1141,#1142,#1143,#1144,#1145,#1146,#1147,#1148,#1149,#1150,#1151,#1152,#1153,#1154,#1155,#1156,#1157,#1158,#1159,#1160,#1161,#1162,#1163,#1164));
#1166=FACE_OUTER_BOUND('',#1165,.T.);
#1167=ADVANCED_FACE('',(#1166),#1132,.T.);
#1168=CLOSED_SHELL('',(#107,#138,#169,#202,#233,#266,#297,#330,#361,#394,#425,#458,#489,#522,#553,#586,#617,#648,#679,#712,#743,#776,#807,#840,#871,#904,#935,#968,#999,#1032,#1063,#1087,#1127,#1167));
#1169=MANIFOLD_SOLID_BREP('Volumenk',#1168);
#1170=COLOUR_RGB('',0.752941012382507,0.752941012382507,0.752941012382507);
#1171=FILL_AREA_STYLE_COLOUR('',#1170);
#1172=FILL_AREA_STYLE('',(#1171));
#1173=SURFACE_STYLE_FILL_AREA(#1172);
#1174=SURFACE_SIDE_STYLE('',(#1173));
#1175=SURFACE_STYLE_USAGE(.BOTH.,#1174);
#1176=PRESENTATION_STYLE_ASSIGNMENT((#1175));
#1177=STYLED_ITEM('',(#1176),#107);
#1178=STYLED_ITEM('',(#1176),#138);
#1179=STYLED_ITEM('',(#1176),#169);
#1180=STYLED_ITEM('',(#1176),#202);
#1181=STYLED_ITEM('',(#1176),#233);
#1182=STYLED_ITEM('',(#1176),#266);
#1183=STYLED_ITEM('',(#1176),#297);
#1184=STYLED_ITEM('',(#1176),#330);
#1185=STYLED_ITEM('',(#1176),#361);
#1186=STYLED_ITEM('',(#1176),#394);
#1187=STYLED_ITEM('',(#1176),#425);
#1188=STYLED_ITEM('',(#1176),#458);
#1189=STYLED_ITEM('',(#1176),#489);
#1190=STYLED_ITEM('',(#1176),#522);
#1191=STYLED_ITEM('',(#1176),#553);
#1192=STYLED_ITEM('',(#1176),#586);
#1193=STYLED_ITEM('',(#1176),#617);
#1194=STYLED_ITEM('',(#1176),#648);
#1195=STYLED_ITEM('',(#1176),#679);
#1196=STYLED_ITEM('',(#1176),#712);
#1197=STYLED_ITEM('',(#1176),#743);
#1198=STYLED_ITEM('',(#1176),#776);
#1199=STYLED_ITEM('',(#1176),#807);
#1200=STYLED_ITEM('',(#1176),#840);
#1201=STYLED_ITEM('',(#1176),#871);
#1202=STYLED_ITEM('',(#1176),#904);
#1203=STYLED_ITEM('',(#1176),#935);
#1204=STYLED_ITEM('',(#1176),#968);
#1205=STYLED_ITEM('',(#1176),#999);
#1206=STYLED_ITEM('',(#1176),#1032);
#1207=STYLED_ITEM('',(#1176),#1063);
#1208=STYLED_ITEM('',(#1176),#1087);
#1209=STYLED_ITEM('',(#1176),#1127);
#1210=STYLED_ITEM('',(#1176),#1167);
#1211=MECHANICAL_DESIGN_GEOMETRIC_PRESENTATION_REPRESENTATION('',(#1177,#1178,#1179,#1180,#1181,#1182,#1183,#1184,#1185,#1186,#1187,#1188,#1189,#1190,#1191,#1192,#1193,#1194,#1195,#1196,#1197,#1198,#1199,#1200,#1201,#1202,#1203,#1204,#1205,#1206,#1207,#1208,#1209,#1210,#1219),#67);
#1212=COLOUR_RGB('UNDEFINED',0.75,0.75,0.75);
#1213=FILL_AREA_STYLE_COLOUR('UNDEFINED',#1212);
#1214=FILL_AREA_STYLE('UNDEFINED',(#1213));
#1215=SURFACE_STYLE_FILL_AREA(#1214);
#1216=SURFACE_SIDE_STYLE('UNDEFINED',(#1215));
#1217=SURFACE_STYLE_USAGE(.BOTH.,#1216);
#1218=PRESENTATION_STYLE_ASSIGNMENT((#1217));
#1219=STYLED_ITEM('',(#1218),#1169);
#1220=ADVANCED_BREP_SHAPE_REPRESENTATION('ABSR',(#1169),#36);
#1221=SHAPE_REPRESENTATION_RELATIONSHIP('SRR','None',#1220,#41);
ENDSEC;
END-ISO-10303-21;
